<svg xmlns="http://www.w3.org/2000/svg" viewBox="0 0 100 100" role="img" aria-label="Breaststroke swimmer">
  <defs><clipPath id="b__UID__"><path d="M67.07,41.81 L66.25,41.98 L65.40,42.15 L64.57,42.33 L63.75,42.52 L62.94,42.71 L62.14,42.91 L61.35,43.10 L60.57,43.31 L59.80,43.51 L59.05,43.72 L58.30,43.93 L57.56,44.14 L56.84,44.35 L56.12,44.56 L55.41,44.77 L54.72,44.98 L54.04,45.18 L53.36,45.39 L52.70,45.59 L52.05,45.80 L51.40,45.99 L50.77,46.19 L50.15,46.38 L49.54,46.57 L48.94,46.75 L48.35,46.93 L47.77,47.10 L47.20,47.26 L46.64,47.42 L46.07,47.58 L46.07,47.58 L44.70,48.00 L43.49,48.77 L42.51,49.82 L41.84,51.09 L41.52,52.49 L41.58,53.93 L42.00,55.30 L42.77,56.51 L43.82,57.49 L45.09,58.16 L46.49,58.48 L47.93,58.42 L47.93,58.42 L48.56,58.37 L49.23,58.31 L49.89,58.25 L50.56,58.18 L51.23,58.10 L51.90,58.03 L52.58,57.94 L53.26,57.86 L53.94,57.77 L54.62,57.69 L55.31,57.60 L56.00,57.51 L56.69,57.42 L57.39,57.32 L58.09,57.23 L58.79,57.14 L59.49,57.06 L60.20,56.97 L60.91,56.88 L61.62,56.80 L62.34,56.72 L63.06,56.64 L63.78,56.57 L64.50,56.50 L65.23,56.44 L65.96,56.38 L66.69,56.32 L67.42,56.27 L68.16,56.23 L68.93,56.19 L68.93,56.19 L70.76,55.70 L72.40,54.76 L73.74,53.43 L74.69,51.79 L75.19,49.96 L75.19,48.07 L74.70,46.24 L73.76,44.60 L72.43,43.26 L70.79,42.31 L68.96,41.81 L67.07,41.81 Z"/><path d="M47.17,47.55 L46.59,47.81 L46.01,48.08 L45.44,48.34 L44.88,48.61 L44.33,48.86 L43.79,49.12 L43.26,49.37 L42.74,49.62 L42.22,49.86 L41.72,50.09 L41.22,50.32 L40.74,50.55 L40.26,50.77 L39.79,50.98 L39.32,51.18 L38.86,51.38 L38.41,51.57 L37.97,51.75 L37.53,51.93 L37.10,52.09 L36.67,52.25 L36.25,52.40 L35.83,52.54 L35.42,52.67 L35.01,52.79 L34.61,52.90 L34.20,53.00 L33.80,53.10 L33.40,53.18 L32.95,53.25 L32.95,53.25 L31.98,53.39 L31.08,53.78 L30.31,54.38 L29.73,55.17 L29.37,56.08 L29.25,57.05 L29.39,58.02 L29.78,58.92 L30.38,59.69 L31.17,60.27 L32.08,60.63 L33.05,60.75 L33.05,60.75 L33.60,60.81 L34.20,60.85 L34.80,60.88 L35.40,60.90 L36.00,60.90 L36.59,60.88 L37.19,60.86 L37.79,60.83 L38.38,60.78 L38.97,60.72 L39.57,60.66 L40.16,60.58 L40.75,60.50 L41.34,60.41 L41.93,60.32 L42.52,60.22 L43.11,60.11 L43.70,60.00 L44.28,59.88 L44.87,59.76 L45.46,59.63 L46.05,59.51 L46.64,59.38 L47.24,59.25 L47.83,59.12 L48.42,58.98 L49.02,58.85 L49.62,58.72 L50.22,58.59 L50.83,58.45 L50.83,58.45 L52.18,57.79 L53.31,56.81 L54.15,55.56 L54.64,54.14 L54.74,52.65 L54.45,51.17 L53.79,49.82 L52.81,48.69 L51.56,47.85 L50.14,47.36 L48.65,47.26 L47.17,47.55 Z"/><path d="M32.90,53.25 L32.31,53.33 L31.64,53.44 L30.98,53.59 L30.35,53.77 L29.74,53.99 L29.15,54.24 L28.59,54.52 L28.05,54.84 L27.54,55.20 L27.06,55.59 L26.61,56.02 L26.20,56.50 L25.83,57.02 L25.51,57.58 L25.26,58.19 L25.08,58.83 L24.98,59.49 L24.97,60.17 L25.06,60.84 L25.24,61.48 L25.49,62.09 L25.81,62.65 L26.19,63.16 L26.62,63.63 L27.10,64.06 L27.61,64.46 L28.17,64.83 L28.77,65.17 L29.42,65.49 L30.06,65.77 L30.06,65.77 L30.55,65.95 L31.07,66.00 L31.58,65.91 L32.06,65.70 L32.46,65.36 L32.77,64.94 L32.95,64.45 L33.00,63.93 L32.91,63.42 L32.70,62.94 L32.36,62.54 L31.94,62.23 L31.94,62.23 L31.44,61.91 L31.06,61.61 L30.75,61.32 L30.51,61.06 L30.34,60.82 L30.22,60.61 L30.17,60.44 L30.16,60.32 L30.19,60.24 L30.25,60.22 L30.31,60.25 L30.37,60.31 L30.42,60.39 L30.46,60.48 L30.49,60.56 L30.52,60.63 L30.56,60.67 L30.62,60.70 L30.70,60.71 L30.79,60.70 L30.92,60.69 L31.07,60.67 L31.24,60.66 L31.44,60.64 L31.66,60.63 L31.89,60.63 L32.15,60.64 L32.42,60.66 L32.70,60.70 L33.10,60.75 L33.10,60.75 L34.07,60.60 L34.96,60.20 L35.72,59.58 L36.30,58.79 L36.65,57.87 L36.75,56.90 L36.60,55.93 L36.20,55.04 L35.58,54.28 L34.79,53.70 L33.87,53.35 L32.90,53.25 Z"/><path d="M46.74,49.04 L46.25,49.35 L45.75,49.68 L45.25,50.01 L44.77,50.33 L44.30,50.66 L43.84,50.98 L43.39,51.30 L42.95,51.62 L42.52,51.94 L42.10,52.24 L41.68,52.55 L41.28,52.85 L40.88,53.14 L40.49,53.43 L40.11,53.71 L39.74,53.98 L39.38,54.25 L39.02,54.51 L38.67,54.76 L38.32,55.00 L37.99,55.23 L37.66,55.45 L37.33,55.66 L37.01,55.86 L36.70,56.05 L36.39,56.23 L36.09,56.40 L35.79,56.56 L35.50,56.71 L35.16,56.86 L35.16,56.86 L34.38,57.18 L33.71,57.70 L33.19,58.37 L32.86,59.15 L32.75,60.00 L32.86,60.84 L33.18,61.62 L33.70,62.29 L34.37,62.81 L35.15,63.14 L36.00,63.25 L36.84,63.14 L36.84,63.14 L37.30,63.08 L37.81,62.99 L38.31,62.88 L38.81,62.77 L39.31,62.64 L39.80,62.50 L40.29,62.35 L40.78,62.19 L41.27,62.03 L41.75,61.85 L42.23,61.68 L42.71,61.49 L43.19,61.30 L43.66,61.11 L44.14,60.91 L44.61,60.71 L45.08,60.51 L45.55,60.31 L46.03,60.11 L46.50,59.90 L46.97,59.70 L47.44,59.50 L47.91,59.30 L48.38,59.10 L48.86,58.90 L49.33,58.71 L49.81,58.52 L50.28,58.33 L50.76,58.15 L51.26,57.96 L51.26,57.96 L52.34,57.22 L53.19,56.23 L53.75,55.06 L53.99,53.77 L53.89,52.47 L53.46,51.24 L52.72,50.16 L51.73,49.31 L50.56,48.75 L49.27,48.51 L47.97,48.61 L46.74,49.04 Z"/><path d="M35.32,56.82 L34.79,56.99 L34.22,57.18 L33.67,57.38 L33.13,57.60 L32.60,57.84 L32.08,58.09 L31.58,58.36 L31.10,58.64 L30.64,58.95 L30.19,59.27 L29.77,59.62 L29.37,59.99 L28.99,60.39 L28.64,60.83 L28.33,61.32 L28.06,61.85 L27.85,62.43 L27.72,63.05 L27.69,63.70 L27.77,64.34 L27.94,64.96 L28.21,65.53 L28.54,66.05 L28.93,66.51 L29.37,66.92 L29.85,67.29 L30.37,67.64 L30.94,67.96 L31.55,68.27 L32.18,68.55 L32.18,68.55 L32.61,68.71 L33.06,68.75 L33.52,68.67 L33.93,68.48 L34.28,68.19 L34.55,67.82 L34.71,67.39 L34.75,66.94 L34.67,66.48 L34.48,66.07 L34.19,65.72 L33.82,65.45 L33.82,65.45 L33.31,65.13 L32.92,64.84 L32.61,64.57 L32.37,64.32 L32.21,64.10 L32.12,63.93 L32.09,63.80 L32.12,63.74 L32.17,63.74 L32.23,63.80 L32.29,63.90 L32.32,64.01 L32.35,64.10 L32.38,64.16 L32.42,64.18 L32.50,64.17 L32.60,64.13 L32.74,64.07 L32.92,64.00 L33.14,63.92 L33.39,63.83 L33.66,63.73 L33.97,63.64 L34.30,63.56 L34.65,63.48 L35.02,63.40 L35.41,63.33 L35.81,63.27 L36.22,63.23 L36.68,63.18 L36.68,63.18 L37.48,62.89 L38.18,62.41 L38.73,61.76 L39.09,61.00 L39.25,60.16 L39.18,59.32 L38.89,58.52 L38.41,57.82 L37.76,57.27 L37.00,56.91 L36.16,56.75 L35.32,56.82 Z"/><path d="M65.22,55.69 L65.83,55.73 L66.44,55.77 L67.06,55.81 L67.68,55.86 L68.30,55.90 L68.92,55.94 L69.54,55.98 L70.17,56.02 L70.80,56.05 L71.44,56.09 L72.08,56.12 L72.72,56.15 L73.36,56.18 L74.01,56.20 L74.66,56.22 L75.32,56.24 L75.98,56.25 L76.65,56.27 L77.32,56.27 L77.99,56.27 L78.67,56.27 L79.35,56.26 L80.04,56.25 L80.73,56.23 L81.43,56.21 L82.13,56.18 L82.84,56.14 L83.55,56.10 L84.27,56.05 L84.99,56.00 L84.99,56.00 L85.76,55.90 L86.49,55.61 L87.11,55.13 L87.59,54.51 L87.89,53.79 L88.00,53.01 L87.90,52.24 L87.61,51.51 L87.13,50.89 L86.51,50.41 L85.79,50.11 L85.01,50.00 L85.01,50.00 L84.33,49.94 L83.67,49.87 L83.02,49.80 L82.37,49.72 L81.73,49.63 L81.09,49.54 L80.46,49.45 L79.84,49.35 L79.22,49.24 L78.60,49.13 L77.99,49.02 L77.39,48.90 L76.78,48.78 L76.18,48.66 L75.59,48.53 L74.99,48.40 L74.40,48.26 L73.81,48.12 L73.22,47.98 L72.64,47.84 L72.05,47.69 L71.47,47.55 L70.88,47.40 L70.30,47.25 L69.71,47.09 L69.13,46.94 L68.54,46.78 L67.96,46.63 L67.37,46.47 L66.78,46.31 L66.78,46.31 L65.54,46.27 L64.33,46.55 L63.24,47.13 L62.33,47.98 L61.68,49.03 L61.31,50.22 L61.27,51.46 L61.55,52.67 L62.13,53.76 L62.98,54.67 L64.03,55.32 L65.22,55.69 Z"/><path d="M84.97,56.00 L85.23,55.96 L85.46,55.93 L85.68,55.90 L85.90,55.88 L86.11,55.86 L86.33,55.85 L86.54,55.84 L86.76,55.83 L86.97,55.83 L87.19,55.84 L87.41,55.85 L87.63,55.86 L87.85,55.88 L88.08,55.90 L88.31,55.92 L88.55,55.95 L88.79,55.99 L89.03,56.03 L89.28,56.07 L89.54,56.12 L89.80,56.16 L90.06,56.22 L90.34,56.27 L90.62,56.33 L90.90,56.39 L91.19,56.45 L91.49,56.51 L91.80,56.58 L92.11,56.64 L92.43,56.71 L92.43,56.71 L92.89,56.80 L93.36,56.76 L93.80,56.61 L94.19,56.35 L94.50,56.00 L94.71,55.57 L94.80,55.11 L94.76,54.64 L94.61,54.20 L94.35,53.81 L94.00,53.50 L93.57,53.29 L93.57,53.29 L93.30,53.16 L93.03,53.02 L92.76,52.89 L92.50,52.76 L92.25,52.62 L91.99,52.49 L91.74,52.35 L91.49,52.22 L91.23,52.09 L90.98,51.96 L90.73,51.83 L90.47,51.70 L90.21,51.57 L89.95,51.45 L89.69,51.33 L89.42,51.21 L89.15,51.09 L88.87,50.97 L88.58,50.86 L88.29,50.76 L88.00,50.65 L87.69,50.56 L87.38,50.46 L87.06,50.38 L86.74,50.30 L86.41,50.22 L86.07,50.16 L85.72,50.10 L85.36,50.04 L85.03,50.00 L85.03,50.00 L84.26,50.09 L83.53,50.39 L82.90,50.86 L82.42,51.47 L82.11,52.19 L82.00,52.97 L82.09,53.74 L82.39,54.47 L82.86,55.10 L83.47,55.58 L84.19,55.89 L84.97,56.00 Z"/><path d="M64.28,56.66 L64.91,56.86 L65.55,57.06 L66.20,57.25 L66.84,57.44 L67.48,57.63 L68.13,57.82 L68.77,58.00 L69.41,58.17 L70.06,58.34 L70.70,58.51 L71.34,58.67 L71.99,58.83 L72.63,58.98 L73.28,59.13 L73.92,59.27 L74.56,59.41 L75.21,59.54 L75.85,59.67 L76.49,59.79 L77.14,59.90 L77.78,60.01 L78.42,60.12 L79.06,60.21 L79.71,60.31 L80.35,60.39 L80.99,60.47 L81.63,60.54 L82.27,60.60 L82.91,60.66 L83.53,60.71 L83.53,60.71 L84.25,60.74 L84.95,60.58 L85.59,60.25 L86.11,59.76 L86.50,59.15 L86.71,58.47 L86.74,57.75 L86.58,57.05 L86.25,56.41 L85.76,55.89 L85.15,55.50 L84.47,55.29 L84.47,55.29 L83.89,55.13 L83.33,54.97 L82.77,54.80 L82.21,54.63 L81.65,54.45 L81.09,54.26 L80.54,54.07 L79.98,53.88 L79.42,53.67 L78.86,53.47 L78.31,53.25 L77.75,53.04 L77.19,52.81 L76.64,52.59 L76.08,52.35 L75.52,52.12 L74.97,51.87 L74.41,51.63 L73.86,51.38 L73.30,51.12 L72.74,50.86 L72.19,50.60 L71.63,50.33 L71.07,50.06 L70.52,49.78 L69.96,49.50 L69.40,49.22 L68.85,48.93 L68.29,48.64 L67.72,48.34 L67.72,48.34 L66.59,48.04 L65.41,48.04 L64.28,48.34 L63.26,48.93 L62.43,49.76 L61.84,50.78 L61.54,51.91 L61.54,53.09 L61.84,54.22 L62.43,55.24 L63.26,56.07 L64.28,56.66 Z"/><path d="M83.12,60.61 L83.42,60.67 L83.71,60.73 L83.99,60.79 L84.27,60.85 L84.54,60.92 L84.81,60.98 L85.08,61.04 L85.34,61.11 L85.60,61.17 L85.87,61.24 L86.13,61.30 L86.39,61.37 L86.65,61.43 L86.91,61.50 L87.17,61.57 L87.44,61.63 L87.70,61.70 L87.97,61.77 L88.24,61.84 L88.51,61.91 L88.79,61.98 L89.07,62.05 L89.35,62.12 L89.64,62.19 L89.93,62.26 L90.22,62.33 L90.52,62.40 L90.83,62.47 L91.14,62.54 L91.46,62.61 L91.46,62.61 L91.89,62.70 L92.34,62.67 L92.76,62.52 L93.12,62.28 L93.42,61.94 L93.61,61.54 L93.70,61.11 L93.67,60.66 L93.52,60.24 L93.28,59.88 L92.94,59.58 L92.54,59.39 L92.54,59.39 L92.26,59.26 L91.99,59.13 L91.73,59.00 L91.47,58.87 L91.22,58.74 L90.97,58.61 L90.73,58.48 L90.48,58.35 L90.24,58.22 L90.01,58.09 L89.77,57.96 L89.53,57.83 L89.30,57.70 L89.06,57.57 L88.83,57.43 L88.59,57.30 L88.35,57.17 L88.11,57.03 L87.86,56.90 L87.62,56.76 L87.36,56.63 L87.11,56.49 L86.85,56.36 L86.58,56.22 L86.31,56.08 L86.04,55.95 L85.76,55.81 L85.47,55.67 L85.17,55.53 L84.88,55.39 L84.88,55.39 L84.17,55.26 L83.46,55.30 L82.78,55.54 L82.18,55.94 L81.71,56.48 L81.39,57.12 L81.26,57.83 L81.30,58.54 L81.54,59.22 L81.94,59.82 L82.48,60.29 L83.12,60.61 Z"/><path d="M29.60,57.00 a3.40,3.40 0 1,0 6.80,0 a3.40,3.40 0 1,0 -6.80,0 Z"/><path d="M32.80,60.00 a3.20,3.20 0 1,0 6.40,0 a3.20,3.20 0 1,0 -6.40,0 Z"/><path d="M82.00,53.00 a3.00,3.00 0 1,0 6.00,0 a3.00,3.00 0 1,0 -6.00,0 Z"/><path d="M63.40,46.00 a8.60,8.60 0 1,0 17.20,0 a8.60,8.60 0 1,0 -17.20,0 Z"/></clipPath></defs>
  
  <path d="M2 55 Q14 49 26 55 T50 55 T98 55" fill="none" stroke="__OUTLINE__" stroke-width="3" stroke-linecap="round" transform="translate(0,8)"/>
  <g fill="__ACCENT__"><path d="M67.07,41.81 L66.25,41.98 L65.40,42.15 L64.57,42.33 L63.75,42.52 L62.94,42.71 L62.14,42.91 L61.35,43.10 L60.57,43.31 L59.80,43.51 L59.05,43.72 L58.30,43.93 L57.56,44.14 L56.84,44.35 L56.12,44.56 L55.41,44.77 L54.72,44.98 L54.04,45.18 L53.36,45.39 L52.70,45.59 L52.05,45.80 L51.40,45.99 L50.77,46.19 L50.15,46.38 L49.54,46.57 L48.94,46.75 L48.35,46.93 L47.77,47.10 L47.20,47.26 L46.64,47.42 L46.07,47.58 L46.07,47.58 L44.70,48.00 L43.49,48.77 L42.51,49.82 L41.84,51.09 L41.52,52.49 L41.58,53.93 L42.00,55.30 L42.77,56.51 L43.82,57.49 L45.09,58.16 L46.49,58.48 L47.93,58.42 L47.93,58.42 L48.56,58.37 L49.23,58.31 L49.89,58.25 L50.56,58.18 L51.23,58.10 L51.90,58.03 L52.58,57.94 L53.26,57.86 L53.94,57.77 L54.62,57.69 L55.31,57.60 L56.00,57.51 L56.69,57.42 L57.39,57.32 L58.09,57.23 L58.79,57.14 L59.49,57.06 L60.20,56.97 L60.91,56.88 L61.62,56.80 L62.34,56.72 L63.06,56.64 L63.78,56.57 L64.50,56.50 L65.23,56.44 L65.96,56.38 L66.69,56.32 L67.42,56.27 L68.16,56.23 L68.93,56.19 L68.93,56.19 L70.76,55.70 L72.40,54.76 L73.74,53.43 L74.69,51.79 L75.19,49.96 L75.19,48.07 L74.70,46.24 L73.76,44.60 L72.43,43.26 L70.79,42.31 L68.96,41.81 L67.07,41.81 Z"/><path d="M47.17,47.55 L46.59,47.81 L46.01,48.08 L45.44,48.34 L44.88,48.61 L44.33,48.86 L43.79,49.12 L43.26,49.37 L42.74,49.62 L42.22,49.86 L41.72,50.09 L41.22,50.32 L40.74,50.55 L40.26,50.77 L39.79,50.98 L39.32,51.18 L38.86,51.38 L38.41,51.57 L37.97,51.75 L37.53,51.93 L37.10,52.09 L36.67,52.25 L36.25,52.40 L35.83,52.54 L35.42,52.67 L35.01,52.79 L34.61,52.90 L34.20,53.00 L33.80,53.10 L33.40,53.18 L32.95,53.25 L32.95,53.25 L31.98,53.39 L31.08,53.78 L30.31,54.38 L29.73,55.17 L29.37,56.08 L29.25,57.05 L29.39,58.02 L29.78,58.92 L30.38,59.69 L31.17,60.27 L32.08,60.63 L33.05,60.75 L33.05,60.75 L33.60,60.81 L34.20,60.85 L34.80,60.88 L35.40,60.90 L36.00,60.90 L36.59,60.88 L37.19,60.86 L37.79,60.83 L38.38,60.78 L38.97,60.72 L39.57,60.66 L40.16,60.58 L40.75,60.50 L41.34,60.41 L41.93,60.32 L42.52,60.22 L43.11,60.11 L43.70,60.00 L44.28,59.88 L44.87,59.76 L45.46,59.63 L46.05,59.51 L46.64,59.38 L47.24,59.25 L47.83,59.12 L48.42,58.98 L49.02,58.85 L49.62,58.72 L50.22,58.59 L50.83,58.45 L50.83,58.45 L52.18,57.79 L53.31,56.81 L54.15,55.56 L54.64,54.14 L54.74,52.65 L54.45,51.17 L53.79,49.82 L52.81,48.69 L51.56,47.85 L50.14,47.36 L48.65,47.26 L47.17,47.55 Z"/><path d="M32.90,53.25 L32.31,53.33 L31.64,53.44 L30.98,53.59 L30.35,53.77 L29.74,53.99 L29.15,54.24 L28.59,54.52 L28.05,54.84 L27.54,55.20 L27.06,55.59 L26.61,56.02 L26.20,56.50 L25.83,57.02 L25.51,57.58 L25.26,58.19 L25.08,58.83 L24.98,59.49 L24.97,60.17 L25.06,60.84 L25.24,61.48 L25.49,62.09 L25.81,62.65 L26.19,63.16 L26.62,63.63 L27.10,64.06 L27.61,64.46 L28.17,64.83 L28.77,65.17 L29.42,65.49 L30.06,65.77 L30.06,65.77 L30.55,65.95 L31.07,66.00 L31.58,65.91 L32.06,65.70 L32.46,65.36 L32.77,64.94 L32.95,64.45 L33.00,63.93 L32.91,63.42 L32.70,62.94 L32.36,62.54 L31.94,62.23 L31.94,62.23 L31.44,61.91 L31.06,61.61 L30.75,61.32 L30.51,61.06 L30.34,60.82 L30.22,60.61 L30.17,60.44 L30.16,60.32 L30.19,60.24 L30.25,60.22 L30.31,60.25 L30.37,60.31 L30.42,60.39 L30.46,60.48 L30.49,60.56 L30.52,60.63 L30.56,60.67 L30.62,60.70 L30.70,60.71 L30.79,60.70 L30.92,60.69 L31.07,60.67 L31.24,60.66 L31.44,60.64 L31.66,60.63 L31.89,60.63 L32.15,60.64 L32.42,60.66 L32.70,60.70 L33.10,60.75 L33.10,60.75 L34.07,60.60 L34.96,60.20 L35.72,59.58 L36.30,58.79 L36.65,57.87 L36.75,56.90 L36.60,55.93 L36.20,55.04 L35.58,54.28 L34.79,53.70 L33.87,53.35 L32.90,53.25 Z"/><path d="M46.74,49.04 L46.25,49.35 L45.75,49.68 L45.25,50.01 L44.77,50.33 L44.30,50.66 L43.84,50.98 L43.39,51.30 L42.95,51.62 L42.52,51.94 L42.10,52.24 L41.68,52.55 L41.28,52.85 L40.88,53.14 L40.49,53.43 L40.11,53.71 L39.74,53.98 L39.38,54.25 L39.02,54.51 L38.67,54.76 L38.32,55.00 L37.99,55.23 L37.66,55.45 L37.33,55.66 L37.01,55.86 L36.70,56.05 L36.39,56.23 L36.09,56.40 L35.79,56.56 L35.50,56.71 L35.16,56.86 L35.16,56.86 L34.38,57.18 L33.71,57.70 L33.19,58.37 L32.86,59.15 L32.75,60.00 L32.86,60.84 L33.18,61.62 L33.70,62.29 L34.37,62.81 L35.15,63.14 L36.00,63.25 L36.84,63.14 L36.84,63.14 L37.30,63.08 L37.81,62.99 L38.31,62.88 L38.81,62.77 L39.31,62.64 L39.80,62.50 L40.29,62.35 L40.78,62.19 L41.27,62.03 L41.75,61.85 L42.23,61.68 L42.71,61.49 L43.19,61.30 L43.66,61.11 L44.14,60.91 L44.61,60.71 L45.08,60.51 L45.55,60.31 L46.03,60.11 L46.50,59.90 L46.97,59.70 L47.44,59.50 L47.91,59.30 L48.38,59.10 L48.86,58.90 L49.33,58.71 L49.81,58.52 L50.28,58.33 L50.76,58.15 L51.26,57.96 L51.26,57.96 L52.34,57.22 L53.19,56.23 L53.75,55.06 L53.99,53.77 L53.89,52.47 L53.46,51.24 L52.72,50.16 L51.73,49.31 L50.56,48.75 L49.27,48.51 L47.97,48.61 L46.74,49.04 Z"/><path d="M35.32,56.82 L34.79,56.99 L34.22,57.18 L33.67,57.38 L33.13,57.60 L32.60,57.84 L32.08,58.09 L31.58,58.36 L31.10,58.64 L30.64,58.95 L30.19,59.27 L29.77,59.62 L29.37,59.99 L28.99,60.39 L28.64,60.83 L28.33,61.32 L28.06,61.85 L27.85,62.43 L27.72,63.05 L27.69,63.70 L27.77,64.34 L27.94,64.96 L28.21,65.53 L28.54,66.05 L28.93,66.51 L29.37,66.92 L29.85,67.29 L30.37,67.64 L30.94,67.96 L31.55,68.27 L32.18,68.55 L32.18,68.55 L32.61,68.71 L33.06,68.75 L33.52,68.67 L33.93,68.48 L34.28,68.19 L34.55,67.82 L34.71,67.39 L34.75,66.94 L34.67,66.48 L34.48,66.07 L34.19,65.72 L33.82,65.45 L33.82,65.45 L33.31,65.13 L32.92,64.84 L32.61,64.57 L32.37,64.32 L32.21,64.10 L32.12,63.93 L32.09,63.80 L32.12,63.74 L32.17,63.74 L32.23,63.80 L32.29,63.90 L32.32,64.01 L32.35,64.10 L32.38,64.16 L32.42,64.18 L32.50,64.17 L32.60,64.13 L32.74,64.07 L32.92,64.00 L33.14,63.92 L33.39,63.83 L33.66,63.73 L33.97,63.64 L34.30,63.56 L34.65,63.48 L35.02,63.40 L35.41,63.33 L35.81,63.27 L36.22,63.23 L36.68,63.18 L36.68,63.18 L37.48,62.89 L38.18,62.41 L38.73,61.76 L39.09,61.00 L39.25,60.16 L39.18,59.32 L38.89,58.52 L38.41,57.82 L37.76,57.27 L37.00,56.91 L36.16,56.75 L35.32,56.82 Z"/><path d="M65.22,55.69 L65.83,55.73 L66.44,55.77 L67.06,55.81 L67.68,55.86 L68.30,55.90 L68.92,55.94 L69.54,55.98 L70.17,56.02 L70.80,56.05 L71.44,56.09 L72.08,56.12 L72.72,56.15 L73.36,56.18 L74.01,56.20 L74.66,56.22 L75.32,56.24 L75.98,56.25 L76.65,56.27 L77.32,56.27 L77.99,56.27 L78.67,56.27 L79.35,56.26 L80.04,56.25 L80.73,56.23 L81.43,56.21 L82.13,56.18 L82.84,56.14 L83.55,56.10 L84.27,56.05 L84.99,56.00 L84.99,56.00 L85.76,55.90 L86.49,55.61 L87.11,55.13 L87.59,54.51 L87.89,53.79 L88.00,53.01 L87.90,52.24 L87.61,51.51 L87.13,50.89 L86.51,50.41 L85.79,50.11 L85.01,50.00 L85.01,50.00 L84.33,49.94 L83.67,49.87 L83.02,49.80 L82.37,49.72 L81.73,49.63 L81.09,49.54 L80.46,49.45 L79.84,49.35 L79.22,49.24 L78.60,49.13 L77.99,49.02 L77.39,48.90 L76.78,48.78 L76.18,48.66 L75.59,48.53 L74.99,48.40 L74.40,48.26 L73.81,48.12 L73.22,47.98 L72.64,47.84 L72.05,47.69 L71.47,47.55 L70.88,47.40 L70.30,47.25 L69.71,47.09 L69.13,46.94 L68.54,46.78 L67.96,46.63 L67.37,46.47 L66.78,46.31 L66.78,46.31 L65.54,46.27 L64.33,46.55 L63.24,47.13 L62.33,47.98 L61.68,49.03 L61.31,50.22 L61.27,51.46 L61.55,52.67 L62.13,53.76 L62.98,54.67 L64.03,55.32 L65.22,55.69 Z"/><path d="M84.97,56.00 L85.23,55.96 L85.46,55.93 L85.68,55.90 L85.90,55.88 L86.11,55.86 L86.33,55.85 L86.54,55.84 L86.76,55.83 L86.97,55.83 L87.19,55.84 L87.41,55.85 L87.63,55.86 L87.85,55.88 L88.08,55.90 L88.31,55.92 L88.55,55.95 L88.79,55.99 L89.03,56.03 L89.28,56.07 L89.54,56.12 L89.80,56.16 L90.06,56.22 L90.34,56.27 L90.62,56.33 L90.90,56.39 L91.19,56.45 L91.49,56.51 L91.80,56.58 L92.11,56.64 L92.43,56.71 L92.43,56.71 L92.89,56.80 L93.36,56.76 L93.80,56.61 L94.19,56.35 L94.50,56.00 L94.71,55.57 L94.80,55.11 L94.76,54.64 L94.61,54.20 L94.35,53.81 L94.00,53.50 L93.57,53.29 L93.57,53.29 L93.30,53.16 L93.03,53.02 L92.76,52.89 L92.50,52.76 L92.25,52.62 L91.99,52.49 L91.74,52.35 L91.49,52.22 L91.23,52.09 L90.98,51.96 L90.73,51.83 L90.47,51.70 L90.21,51.57 L89.95,51.45 L89.69,51.33 L89.42,51.21 L89.15,51.09 L88.87,50.97 L88.58,50.86 L88.29,50.76 L88.00,50.65 L87.69,50.56 L87.38,50.46 L87.06,50.38 L86.74,50.30 L86.41,50.22 L86.07,50.16 L85.72,50.10 L85.36,50.04 L85.03,50.00 L85.03,50.00 L84.26,50.09 L83.53,50.39 L82.90,50.86 L82.42,51.47 L82.11,52.19 L82.00,52.97 L82.09,53.74 L82.39,54.47 L82.86,55.10 L83.47,55.58 L84.19,55.89 L84.97,56.00 Z"/><path d="M64.28,56.66 L64.91,56.86 L65.55,57.06 L66.20,57.25 L66.84,57.44 L67.48,57.63 L68.13,57.82 L68.77,58.00 L69.41,58.17 L70.06,58.34 L70.70,58.51 L71.34,58.67 L71.99,58.83 L72.63,58.98 L73.28,59.13 L73.92,59.27 L74.56,59.41 L75.21,59.54 L75.85,59.67 L76.49,59.79 L77.14,59.90 L77.78,60.01 L78.42,60.12 L79.06,60.21 L79.71,60.31 L80.35,60.39 L80.99,60.47 L81.63,60.54 L82.27,60.60 L82.91,60.66 L83.53,60.71 L83.53,60.71 L84.25,60.74 L84.95,60.58 L85.59,60.25 L86.11,59.76 L86.50,59.15 L86.71,58.47 L86.74,57.75 L86.58,57.05 L86.25,56.41 L85.76,55.89 L85.15,55.50 L84.47,55.29 L84.47,55.29 L83.89,55.13 L83.33,54.97 L82.77,54.80 L82.21,54.63 L81.65,54.45 L81.09,54.26 L80.54,54.07 L79.98,53.88 L79.42,53.67 L78.86,53.47 L78.31,53.25 L77.75,53.04 L77.19,52.81 L76.64,52.59 L76.08,52.35 L75.52,52.12 L74.97,51.87 L74.41,51.63 L73.86,51.38 L73.30,51.12 L72.74,50.86 L72.19,50.60 L71.63,50.33 L71.07,50.06 L70.52,49.78 L69.96,49.50 L69.40,49.22 L68.85,48.93 L68.29,48.64 L67.72,48.34 L67.72,48.34 L66.59,48.04 L65.41,48.04 L64.28,48.34 L63.26,48.93 L62.43,49.76 L61.84,50.78 L61.54,51.91 L61.54,53.09 L61.84,54.22 L62.43,55.24 L63.26,56.07 L64.28,56.66 Z"/><path d="M83.12,60.61 L83.42,60.67 L83.71,60.73 L83.99,60.79 L84.27,60.85 L84.54,60.92 L84.81,60.98 L85.08,61.04 L85.34,61.11 L85.60,61.17 L85.87,61.24 L86.13,61.30 L86.39,61.37 L86.65,61.43 L86.91,61.50 L87.17,61.57 L87.44,61.63 L87.70,61.70 L87.97,61.77 L88.24,61.84 L88.51,61.91 L88.79,61.98 L89.07,62.05 L89.35,62.12 L89.64,62.19 L89.93,62.26 L90.22,62.33 L90.52,62.40 L90.83,62.47 L91.14,62.54 L91.46,62.61 L91.46,62.61 L91.89,62.70 L92.34,62.67 L92.76,62.52 L93.12,62.28 L93.42,61.94 L93.61,61.54 L93.70,61.11 L93.67,60.66 L93.52,60.24 L93.28,59.88 L92.94,59.58 L92.54,59.39 L92.54,59.39 L92.26,59.26 L91.99,59.13 L91.73,59.00 L91.47,58.87 L91.22,58.74 L90.97,58.61 L90.73,58.48 L90.48,58.35 L90.24,58.22 L90.01,58.09 L89.77,57.96 L89.53,57.83 L89.30,57.70 L89.06,57.57 L88.83,57.43 L88.59,57.30 L88.35,57.17 L88.11,57.03 L87.86,56.90 L87.62,56.76 L87.36,56.63 L87.11,56.49 L86.85,56.36 L86.58,56.22 L86.31,56.08 L86.04,55.95 L85.76,55.81 L85.47,55.67 L85.17,55.53 L84.88,55.39 L84.88,55.39 L84.17,55.26 L83.46,55.30 L82.78,55.54 L82.18,55.94 L81.71,56.48 L81.39,57.12 L81.26,57.83 L81.30,58.54 L81.54,59.22 L81.94,59.82 L82.48,60.29 L83.12,60.61 Z"/><path d="M29.60,57.00 a3.40,3.40 0 1,0 6.80,0 a3.40,3.40 0 1,0 -6.80,0 Z"/><path d="M32.80,60.00 a3.20,3.20 0 1,0 6.40,0 a3.20,3.20 0 1,0 -6.40,0 Z"/><path d="M82.00,53.00 a3.00,3.00 0 1,0 6.00,0 a3.00,3.00 0 1,0 -6.00,0 Z"/><path d="M63.40,46.00 a8.60,8.60 0 1,0 17.20,0 a8.60,8.60 0 1,0 -17.20,0 Z"/></g>
  <g clip-path="url(#b__UID__)"><rect x="0" y="55" width="100" height="45" fill="__GROUND__" opacity="0.24"/></g>
  <path d="M2 55 Q14 49 26 55 T50 55 T98 55" fill="none" stroke="__ACCENT__" stroke-width="3.2" stroke-linecap="round"/>
  <g fill="__ACCENT__" opacity="0.85"><circle cx="93" cy="55" r="1.6"/><circle cx="92" cy="61" r="1.6"/></g>
</svg>
