<svg xmlns="http://www.w3.org/2000/svg" viewBox="0 0 100 100" role="img" aria-label="Breaststroke swimmer"><path d="M2 53 Q14 47 26 53 T50 53 T98 53" fill="none" stroke="__OUTLINE__" stroke-width="3" stroke-linecap="round" transform="translate(0,8)"/><path d="M28.98,66.52 C30.17,67.60 33.45,69.76 34.73,70.45 C36.01,71.15 36.15,70.95 36.66,70.67 C37.17,70.40 37.92,69.47 37.79,68.79 C37.66,68.12 36.12,67.21 35.89,66.61 C35.66,66.02 35.38,65.72 36.43,65.22 C37.47,64.71 39.56,64.62 42.16,63.59 C44.76,62.56 48.41,60.03 52.02,59.03 C55.62,58.03 56.73,56.80 63.81,57.57 C70.89,58.33 89.23,62.75 94.51,63.62 C99.80,64.48 95.34,63.12 95.52,62.76 C95.70,62.40 95.99,62.18 95.61,61.46 C95.23,60.75 93.13,59.19 93.25,58.48 C93.37,57.77 95.75,57.71 96.33,57.21 C96.91,56.71 97.60,56.38 96.71,55.45 C95.82,54.53 93.51,52.55 90.99,51.66 C88.47,50.77 83.17,51.38 81.59,50.13 C80.01,48.88 81.84,45.81 81.50,44.17 C81.17,42.53 80.50,41.37 79.59,40.32 C78.67,39.26 77.42,38.31 76.02,37.84 C74.62,37.37 72.62,37.23 71.17,37.50 C69.72,37.76 68.45,38.43 67.32,39.41 C66.18,40.39 68.12,41.76 64.35,43.36 C60.58,44.96 49.15,47.12 44.70,49.00 C40.25,50.89 40.16,53.14 37.64,54.67 C35.12,56.20 31.25,57.13 29.58,58.19 C27.91,59.26 27.96,60.09 27.62,61.05 C27.28,62.01 27.33,63.05 27.56,63.96 C27.79,64.87 27.78,65.43 28.98,66.52 Z" fill="__ACCENT__"/><path d="M2 53 Q14 47 26 53 T50 53 T98 53" fill="none" stroke="__ACCENT__" stroke-width="3.2" stroke-linecap="round"/></svg>
