<svg xmlns="http://www.w3.org/2000/svg" viewBox="0 0 100 100" role="img" aria-label="Butterfly swimmer"><path d="M2 60 Q14 54 26 60 T50 60 T98 60" fill="none" stroke="__OUTLINE__" stroke-width="3" stroke-linecap="round" transform="translate(0,8)"/><path d="M6.75,60.72 C4.30,61.73 5.68,61.51 5.70,61.94 C5.73,62.37 4.08,63.22 6.92,63.30 C9.75,63.38 16.77,63.67 22.70,62.43 C28.62,61.19 37.09,56.17 42.45,55.87 C47.82,55.57 52.12,59.41 54.88,60.64 C57.65,61.87 57.86,62.76 59.06,63.25 C60.26,63.74 61.09,63.65 62.09,63.58 C63.09,63.51 64.14,63.25 65.05,62.83 C65.97,62.41 66.85,61.87 67.59,61.07 C68.34,60.27 69.13,59.04 69.55,58.02 C69.97,57.01 70.11,56.13 70.10,54.98 C70.09,53.83 68.38,54.81 69.50,51.15 C70.63,47.49 75.17,36.49 76.87,33.02 C78.57,29.54 78.46,30.92 79.71,30.29 C80.96,29.67 83.51,29.88 84.40,29.26 C85.29,28.65 85.16,27.25 85.06,26.60 C84.97,25.96 84.75,25.70 83.83,25.41 C82.90,25.12 81.19,24.62 79.49,24.87 C77.80,25.12 75.12,26.12 73.64,26.92 C72.16,27.72 72.46,27.23 70.62,29.67 C68.77,32.11 64.08,39.68 62.58,41.56 C61.08,43.45 62.46,42.55 61.61,40.98 C60.75,39.42 58.84,34.40 57.45,32.17 C56.07,29.94 55.00,28.79 53.30,27.60 C51.59,26.41 49.39,25.39 47.21,25.03 C45.03,24.66 41.63,25.04 40.22,25.39 C38.82,25.74 38.89,26.48 38.78,27.12 C38.67,27.76 38.34,28.66 39.56,29.23 C40.78,29.80 44.42,29.78 46.11,30.55 C47.80,31.31 48.68,32.31 49.69,33.81 C50.71,35.31 51.68,37.61 52.21,39.56 C52.73,41.51 54.87,44.66 52.83,45.51 C50.79,46.35 45.37,42.89 39.97,44.62 C34.56,46.35 25.93,53.20 20.40,55.88 C14.86,58.57 9.20,59.71 6.75,60.72 Z" fill="__ACCENT__"/><path d="M2 60 Q14 54 26 60 T50 60 T98 60" fill="none" stroke="__ACCENT__" stroke-width="3.2" stroke-linecap="round"/></svg>
