<svg xmlns="http://www.w3.org/2000/svg" viewBox="0 0 100 100" role="img" aria-label="Backstroke swimmer"><path d="M2 56 Q14 50 26 56 T50 56 T98 56" fill="none" stroke="__OUTLINE__" stroke-width="3" stroke-linecap="round" transform="translate(0,8)"/><path d="M37 52 C47 52 56 52 64 52" stroke="__ACCENT__" stroke-width="8.4" fill="none" stroke-linecap="round" stroke-linejoin="round"/><path d="M62 51 L70 30" stroke="__ACCENT__" stroke-width="7.2" fill="none" stroke-linecap="round" stroke-linejoin="round"/><path d="M63 53.5 C66 57 67 59 65.5 61.5" stroke="__ACCENT__" stroke-width="6.0" fill="none" stroke-linecap="round" stroke-linejoin="round"/><path d="M38 52 C29 52 19 52 10 52" stroke="__ACCENT__" stroke-width="7.2" fill="none" stroke-linecap="round" stroke-linejoin="round"/><path d="M38 54 C30 56 21 58 12 60" stroke="__ACCENT__" stroke-width="6.0" fill="none" stroke-linecap="round" stroke-linejoin="round"/><circle cx="72" cy="52" r="7.4" fill="__ACCENT__"/><circle cx="74" cy="46.5" r="3.108" fill="__ACCENT__"/><path d="M2 56 Q14 50 26 56 T50 56 T98 56" fill="none" stroke="__ACCENT__" stroke-width="3.2" stroke-linecap="round"/></svg>
