<svg xmlns="http://www.w3.org/2000/svg" viewBox="0 0 100 100" role="img" aria-label="Freestyle swimmer"><path d="M2 57 Q14 51 26 57 T50 57 T98 57" fill="none" stroke="__OUTLINE__" stroke-width="3" stroke-linecap="round" transform="translate(0,8)"/><path d="M37 56 C47 54 56 53 64 52" stroke="__ACCENT__" stroke-width="8.4" fill="none" stroke-linecap="round" stroke-linejoin="round"/><path d="M65 53 C73 54 81 55.5 89 57" stroke="__ACCENT__" stroke-width="7.2" fill="none" stroke-linecap="round" stroke-linejoin="round"/><path d="M60 52 C57 46 55.5 41 57 38 C59 40 62 42 65 43.5" stroke="__ACCENT__" stroke-width="7.2" fill="none" stroke-linecap="round" stroke-linejoin="round"/><path d="M38 56 C29 55 19 54.5 10 54" stroke="__ACCENT__" stroke-width="7.2" fill="none" stroke-linecap="round" stroke-linejoin="round"/><path d="M38 57.5 C30 59.5 21 61.5 12 63.5" stroke="__ACCENT__" stroke-width="6.0" fill="none" stroke-linecap="round" stroke-linejoin="round"/><circle cx="72" cy="52" r="7.4" fill="__ACCENT__"/><circle cx="76.5" cy="56.5" r="3.108" fill="__ACCENT__"/><path d="M2 57 Q14 51 26 57 T50 57 T98 57" fill="none" stroke="__ACCENT__" stroke-width="3.2" stroke-linecap="round"/></svg>
