<svg xmlns="http://www.w3.org/2000/svg" viewBox="0 0 100 100" role="img" aria-label="Breaststroke swimmer"><path d="M2 55 Q14 49 26 55 T50 55 T98 55" fill="none" stroke="__OUTLINE__" stroke-width="3" stroke-linecap="round" transform="translate(0,8)"/><path d="M44 57 C54 54.5 62 51 70 48" stroke="__ACCENT__" stroke-width="8.4" fill="none" stroke-linecap="round" stroke-linejoin="round"/><path d="M68 49 C76 50 83 51 91 52" stroke="__ACCENT__" stroke-width="7.2" fill="none" stroke-linecap="round" stroke-linejoin="round"/><path d="M68 50.5 C76 53 82 55 89 56" stroke="__ACCENT__" stroke-width="6.0" fill="none" stroke-linecap="round" stroke-linejoin="round"/><path d="M46 57 C40 59 35 60 32 59 C35 62 40 63.5 38 67" stroke="__ACCENT__" stroke-width="7.2" fill="none" stroke-linecap="round" stroke-linejoin="round"/><path d="M47.5 58 C42 60 37 61.5 34.5 61 C37.5 64 42 65.5 40 69" stroke="__ACCENT__" stroke-width="6.0" fill="none" stroke-linecap="round" stroke-linejoin="round"/><circle cx="74" cy="45" r="7.4" fill="__ACCENT__"/><circle cx="79" cy="45.5" r="3.108" fill="__ACCENT__"/><path d="M2 55 Q14 49 26 55 T50 55 T98 55" fill="none" stroke="__ACCENT__" stroke-width="3.2" stroke-linecap="round"/></svg>
