<svg viewBox="0 0 100 100" xmlns="http://www.w3.org/2000/svg" fill="__ACCENT__" stroke="none"><path fill="__ACCENT__" fill-rule="evenodd" d="M11.4 13.8L12.1 13.7L13.8 14.5L16.1 16.2L19.2 16.8L19.6 17.2L19.9 19.8L27.4 25.3L29.3 27.4L31.3 30.8L32.8 32.4L37.1 35.2L39.6 37.8L45 39.8L46.9 41.6L48.6 45.6L50.4 47.7L57.8 51.1L62.1 54L66.5 59.5L67 61.5L69.9 66.3L73.9 70.3L75.6 73.1L78.1 76L81 81.4L81.8 82.2L81.2 82.8L81.5 83.4L80.5 83.2L78.3 81L78.4 81.7L78 82.1L75.6 79.4L75.3 77.7L69.3 72.6L67.9 70.6L68.6 70.4L71.2 73L72.3 73.9L72.7 73.7L69 70.3L68.5 69.2L64.8 64.9L62.4 61.1L61.5 61.4L59.5 60.2L59.1 60.4L61.2 61.6L62.4 61.9L65.3 66.3L68.2 69.5L67.7 70.2L66.9 70.4L64.9 70.4L63.2 69.6L62.1 68.5L60.5 68L60.5 66.9L59.1 64.9L59.1 64.3L60.5 62.9L60.1 61.9L54.1 61.6L51.3 58.8L47.6 56.2L46.3 54.4L40.1 48.4L39.2 47L37.4 45.7L32.7 41.1L29.6 36.2L27.6 34L25.9 30.5L21.6 25.4L18.1 21.9L16.4 20.8L10.8 14.9L10.5 14.4L11.2 13.9ZM4.3 22.6L6.7 22.7L9 23.9L12.9 23.6L13.7 24.3L13.9 25.7L15.8 27.3L22.3 29.8L24.3 31L27 33.7L31.3 39.9L33.8 43L38.6 47.3L38.2 47.4L36.8 46.9L32.8 44.6L28.3 40.6L26 39.2L22.9 35.8L13.8 29.3L8.4 26.4L6.1 24.4L4.4 23.6L4 23.2L4.1 22.7ZM68.2 60.6L70 60.5L70.7 61.2L71 63.5L71.6 64.3L71.3 66.3L70.9 66.8L68.5 63.5L67.3 61.2L68 60.8ZM89.2 67.2L89.6 67L90 67.5L89.8 68L89 68.7L89 67.3ZM90.9 68.6L91.6 68.5L92 68.9L91.7 69.5L90.7 69.9L90.3 69.5L90.7 68.7ZM88.6 70.6L89.6 70.4L89.8 71.4L86.9 74.3L86.6 76L87.3 76.4L89.3 74.1L89.9 74.1L90 74.8L88.3 76.8L89 77L90.7 75.6L91.2 76.3L89.3 77.5L87.2 80L87.3 80.7L88.2 79.5L89.3 79L90 79.4L90 80L87.5 82.2L86.9 83.4L86.9 84.2L88.2 85.2L93.6 85.8L94.7 86.1L94.7 86.3L49 86.3L49 86.1L50.7 86.1L51 85.8L54.4 85.8L54.7 85.5L62.9 84.9L64.5 84.2L64.2 82.8L62.6 81.2L59.9 80L60.1 79.2L61.2 79.2L62.6 80.1L63.1 80L61.2 78.4L59.2 77.5L58.4 77.5L58 77.1L58.4 76.1L59.2 76.1L60.4 77L61.5 77.3L61.9 76.8L61.6 76L59.5 74.7L57.8 74.1L57.4 73.4L57.8 73L58.7 73L59.8 73.6L64.3 77L65 76.8L63.9 75.7L64.3 75L67.2 77.8L68.3 78.4L69.3 78.3L69 77.1L67.9 76L67.9 75.4L68.6 75.3L72 79.8L74.6 80.1L77.4 83.2L78.3 83.8L80.5 84.4L81.9 83.8L82.7 82.5L81.2 80.8L80.4 78.5L79.8 78L81 76L81.5 73.1L81.9 72.7L82.7 72.9L81.8 74.6L81.8 75.7L82.2 76.1L83.9 73.9L84.4 74L84.4 74.6L83.8 75.1L83.8 75.7L84.5 75.8L88.5 70.7ZM58.8 70.9L59.2 70.7L59.9 71.7L59.5 71.9L58.8 71.2ZM54 71.2L55 71L56.2 72.3L55.8 72.7L55 72.7L54 72L53.8 71.3ZM95.1 71.2L95.6 71L96 72L92.2 73.9L94.2 71.6L95 71.3ZM84.9 71.7L85.5 72L84.8 72.4L84.8 71.9ZM65.9 73.1L66.6 73L67.3 74L66.6 74.1L65.9 73.4ZM62.2 73.4L62.9 73.3L63.3 73.7L63.2 74.4L62.6 74.4L62.2 73.7ZM52.8 75.4L55 75.6L55.4 76L52.7 76.4L52.3 76L52.7 75.6ZM93.4 77.1L94.6 77.1L94.2 77.5L93.4 77.4ZM85.8 77.4L86.2 77.3L86.3 78L85.9 78.4L85.5 78L85.6 77.5ZM72.7 78L73.1 77.8L73.6 78.3L73.1 78.7L72.7 78.3ZM91.2 78L92.2 77.8L92.3 78.3L91.9 78.7L91 78.7L91 78.1ZM56.5 78.5L57.8 78.4L58.5 79.1L58.1 79.5L56.7 79.5L56.4 78.7ZM65.6 78.8L66 78.7L68.6 80.7L69.5 80.7L70 79.8L70.9 79.8L73.1 82.1L75.1 82.4L75.7 83.2L73.4 82.9L70.9 80.7L70.3 80.7L69.7 81.2L68.9 81.2L65.8 79ZM84.6 79.7L85.6 79.5L86.1 80L85.5 81.4L85.2 81.4L85.5 80L85.1 79.8L83.2 82.2L83.8 80.5L84.5 79.8ZM75.8 83.4L76.3 83.2L77.3 84.2L76.8 84.4L76 83.5Z"/></svg>
