<svg viewBox="0 0 100 100" xmlns="http://www.w3.org/2000/svg" fill="__ACCENT__" stroke="none"><path fill="__ACCENT__" fill-rule="evenodd" d="M54.4 25.6L59.3 26L64.2 28.1L66 30.1L67.1 32.3L69.1 39.9L68.9 40.3L67.9 39.7L66.2 39.7L58.9 42.1L55.2 42.3L51.9 41.1L48.7 37.9L46.8 37.8L47.9 35.2L48.5 31.5L49.7 28.7L51.5 26.8L54.4 25.8ZM37.2 39.3L41.3 39.3L45.4 40.9L47.4 43.4L48.1 46.8L45.4 43.4L42.7 42.3L37.2 42.1L32.9 43.6L27.8 47.6L24 51.5L20.9 56.4L16.2 65.6L20.1 53L23.1 47.9L26 44.8L29.7 42.1L32.9 40.5L37.2 39.5ZM58.9 42.3L61.3 44.8L63.4 45.8L64.6 47.2L64.4 48.5L63.4 49.3L62.1 49.3L60.7 48.5L59.7 46.8L58.9 42.5ZM57 50.5L58.3 50.5L59.5 51.9L59.5 52.3L57.7 52.1L57.2 52.6L57 54L55.8 52.6L56.2 51.1L57 50.7ZM50.5 53.2L51.9 54.6L55.4 61.3L57 63L59.3 63L67.9 60.9L65.6 62.4L56.4 66L55.8 66.6L56 67.5L60.3 67.9L68.9 67L55.4 72.2L52.6 72.8L50.7 72.8L49.7 72.2L45 67.5L40.5 61.9L38.3 58.5L36.6 54L42.1 61.7L45 64.8L47.9 66.6L50.5 66.8L51.9 65.2L52.3 62.6L51.7 57.3L50.5 53.4ZM78.9 56L83 56L85.6 56.8L86.2 57.2L85.4 58.1L85.8 59.5L91.6 61.1L93 61.9L94 63.2L94 63.8L92.6 65L88.1 66.2L81.5 66.6L76.6 65.6L76.9 65L82.4 63.4L84.4 62.1L84.2 60.7L81.7 58.9L74.6 58.1L76.8 56.6L78.9 56.2ZM33.6 58.9L36 59.1L37.2 59.7L29.3 62.4L27.2 64.6L25.2 67.9L22.5 70.5L18.3 72.8L14.2 74.2L10.5 74.4L9.1 73.6L8.9 71.9L9.9 69.7L10.1 67.3L8.9 66.2L6 65.8L9.1 64.2L11.7 63.8L14 66L15 69.7L18 69.7L22.1 67.3L28.3 60.7L31.3 59.3L33.6 59.1Z"/></svg>
