<svg xmlns="http://www.w3.org/2000/svg" viewBox="0 0 100 100" role="img" aria-label="Breaststroke swimmer"><g fill="__ACCENT__"><path d="M60.24,43.57 L59.56,43.90 L58.87,44.23 L58.19,44.56 L57.50,44.89 L56.82,45.21 L56.14,45.54 L55.47,45.87 L54.79,46.19 L54.12,46.51 L53.46,46.83 L52.80,47.15 L52.15,47.46 L51.50,47.77 L50.85,48.08 L50.22,48.39 L49.59,48.69 L48.97,48.99 L48.35,49.28 L47.75,49.57 L47.15,49.86 L46.56,50.14 L45.98,50.42 L45.42,50.69 L44.86,50.96 L44.31,51.22 L43.78,51.47 L43.26,51.72 L42.75,51.96 L42.25,52.20 L41.77,52.43 L41.77,52.43 L40.40,53.20 L39.28,54.29 L38.48,55.64 L38.06,57.15 L38.04,58.72 L38.43,60.23 L39.20,61.60 L40.29,62.72 L41.64,63.52 L43.15,63.94 L44.72,63.96 L46.23,63.57 L46.23,63.57 L46.76,63.39 L47.30,63.21 L47.86,63.02 L48.42,62.83 L49.00,62.63 L49.59,62.42 L50.19,62.21 L50.79,61.99 L51.41,61.77 L52.04,61.55 L52.67,61.32 L53.31,61.08 L53.96,60.85 L54.62,60.61 L55.28,60.36 L55.95,60.11 L56.63,59.86 L57.31,59.61 L58.00,59.35 L58.69,59.10 L59.38,58.84 L60.08,58.57 L60.78,58.31 L61.49,58.04 L62.20,57.78 L62.91,57.51 L63.62,57.24 L64.33,56.97 L65.04,56.70 L65.76,56.43 L65.76,56.43 L67.33,55.50 L68.60,54.19 L69.50,52.60 L69.95,50.83 L69.93,49.00 L69.43,47.24 L68.50,45.67 L67.19,44.40 L65.60,43.50 L63.83,43.05 L62.00,43.07 L60.24,43.57 Z"/><path d="M66.49,53.88 L66.70,53.69 L66.92,53.49 L67.13,53.30 L67.34,53.11 L67.56,52.91 L67.77,52.72 L67.99,52.53 L68.20,52.33 L68.41,52.14 L68.63,51.94 L68.84,51.75 L69.05,51.56 L69.27,51.36 L69.48,51.17 L69.70,50.98 L69.91,50.78 L70.12,50.59 L70.34,50.39 L70.55,50.20 L70.77,50.01 L70.98,49.81 L71.19,49.62 L71.41,49.43 L71.62,49.23 L71.84,49.04 L72.05,48.84 L72.26,48.65 L72.48,48.46 L72.69,48.26 L72.91,48.07 L72.91,48.07 L73.86,47.18 L74.55,46.07 L74.93,44.82 L74.98,43.52 L74.68,42.25 L74.07,41.09 L73.18,40.14 L72.07,39.45 L70.82,39.07 L69.52,39.02 L68.25,39.32 L67.09,39.93 L67.09,39.93 L66.84,40.07 L66.59,40.21 L66.34,40.35 L66.08,40.49 L65.83,40.63 L65.58,40.77 L65.32,40.91 L65.07,41.05 L64.82,41.19 L64.57,41.33 L64.31,41.47 L64.06,41.61 L63.81,41.75 L63.56,41.88 L63.30,42.02 L63.05,42.16 L62.80,42.30 L62.55,42.44 L62.29,42.58 L62.04,42.72 L61.79,42.86 L61.53,43.00 L61.28,43.14 L61.03,43.28 L60.78,43.42 L60.52,43.56 L60.27,43.70 L60.02,43.84 L59.77,43.98 L59.51,44.12 L59.51,44.12 L58.37,45.19 L57.54,46.52 L57.08,48.01 L57.03,49.58 L57.38,51.10 L58.12,52.49 L59.19,53.63 L60.52,54.46 L62.01,54.92 L63.58,54.97 L65.10,54.62 L66.49,53.88 Z"/><path d="M67.00,39.00 a8.00,8.00 0 1,0 16.00,0 a8.00,8.00 0 1,0 -16.00,0 Z"/><path d="M57.00,49.00 a6.00,6.00 0 1,0 12.00,0 a6.00,6.00 0 1,0 -12.00,0 Z"/><path d="M64.08,53.91 L64.88,53.98 L65.68,54.05 L66.48,54.12 L67.27,54.18 L68.06,54.25 L68.84,54.31 L69.63,54.38 L70.41,54.45 L71.18,54.51 L71.96,54.57 L72.73,54.64 L73.51,54.70 L74.28,54.76 L75.05,54.82 L75.82,54.88 L76.60,54.93 L77.37,54.99 L78.15,55.04 L78.92,55.09 L79.70,55.14 L80.49,55.18 L81.27,55.23 L82.06,55.27 L82.85,55.31 L83.64,55.35 L84.44,55.38 L85.25,55.41 L86.06,55.44 L86.87,55.46 L87.68,55.48 L87.68,55.48 L88.34,55.48 L88.97,55.31 L89.53,54.98 L89.99,54.51 L90.31,53.95 L90.48,53.32 L90.48,52.66 L90.31,52.03 L89.98,51.47 L89.51,51.01 L88.95,50.69 L88.32,50.52 L88.32,50.52 L87.54,50.34 L86.77,50.15 L86.01,49.96 L85.25,49.77 L84.50,49.58 L83.76,49.38 L83.02,49.18 L82.28,48.98 L81.55,48.77 L80.81,48.57 L80.09,48.36 L79.36,48.14 L78.63,47.93 L77.90,47.72 L77.18,47.50 L76.45,47.28 L75.72,47.06 L74.99,46.84 L74.26,46.61 L73.52,46.39 L72.78,46.16 L72.04,45.94 L71.30,45.71 L70.55,45.48 L69.79,45.25 L69.03,45.02 L68.26,44.78 L67.49,44.55 L66.71,44.32 L65.92,44.09 L65.92,44.09 L64.62,44.01 L63.34,44.28 L62.18,44.87 L61.21,45.74 L60.49,46.83 L60.09,48.08 L60.01,49.38 L60.28,50.66 L60.87,51.82 L61.74,52.79 L62.83,53.51 L64.08,53.91 Z"/><ellipse cx="90" cy="53.5" rx="5.4" ry="2.9" transform="rotate(12 90 53.5)"/><path d="M63.70,55.07 L64.42,55.20 L65.14,55.32 L65.86,55.45 L66.58,55.58 L67.31,55.71 L68.03,55.83 L68.75,55.96 L69.48,56.09 L70.20,56.21 L70.93,56.34 L71.66,56.46 L72.38,56.58 L73.11,56.70 L73.84,56.82 L74.56,56.94 L75.29,57.06 L76.02,57.17 L76.74,57.28 L77.47,57.39 L78.20,57.50 L78.93,57.61 L79.66,57.71 L80.38,57.81 L81.11,57.91 L81.84,58.01 L82.57,58.10 L83.29,58.19 L84.02,58.28 L84.75,58.36 L85.47,58.44 L85.47,58.44 L86.12,58.50 L86.76,58.38 L87.35,58.10 L87.85,57.68 L88.22,57.14 L88.44,56.53 L88.50,55.88 L88.38,55.24 L88.10,54.65 L87.68,54.15 L87.14,53.78 L86.53,53.56 L86.53,53.56 L85.85,53.33 L85.18,53.11 L84.51,52.88 L83.83,52.65 L83.16,52.41 L82.49,52.18 L81.82,51.94 L81.14,51.69 L80.47,51.45 L79.80,51.20 L79.13,50.95 L78.46,50.70 L77.78,50.45 L77.11,50.19 L76.44,49.94 L75.76,49.68 L75.09,49.42 L74.42,49.16 L73.74,48.89 L73.07,48.63 L72.40,48.36 L71.72,48.09 L71.05,47.83 L70.37,47.56 L69.69,47.29 L69.02,47.02 L68.34,46.75 L67.66,46.48 L66.98,46.20 L66.30,45.93 L66.30,45.93 L65.08,45.75 L63.85,45.89 L62.69,46.35 L61.70,47.09 L60.93,48.06 L60.43,49.20 L60.25,50.42 L60.39,51.65 L60.85,52.81 L61.59,53.80 L62.56,54.57 L63.70,55.07 Z"/><ellipse cx="88" cy="56.5" rx="5.4" ry="2.9" transform="rotate(15 88 56.5)"/><path d="M45.57,52.52 L45.01,52.64 L44.48,52.75 L43.96,52.85 L43.45,52.95 L42.95,53.04 L42.46,53.13 L41.97,53.21 L41.50,53.28 L41.03,53.34 L40.57,53.40 L40.13,53.46 L39.69,53.50 L39.26,53.54 L38.85,53.57 L38.45,53.60 L38.05,53.62 L37.67,53.63 L37.30,53.64 L36.95,53.64 L36.60,53.64 L36.27,53.63 L35.95,53.61 L35.64,53.59 L35.34,53.56 L35.05,53.53 L34.78,53.49 L34.52,53.45 L34.27,53.40 L34.03,53.35 L33.74,53.26 L33.74,53.26 L32.97,52.90 L32.14,52.75 L31.29,52.83 L30.50,53.12 L29.80,53.61 L29.26,54.26 L28.90,55.03 L28.75,55.86 L28.83,56.71 L29.12,57.50 L29.61,58.20 L30.26,58.74 L30.26,58.74 L30.58,59.04 L30.98,59.36 L31.40,59.66 L31.83,59.95 L32.27,60.22 L32.72,60.49 L33.19,60.73 L33.67,60.97 L34.16,61.19 L34.66,61.40 L35.17,61.60 L35.69,61.78 L36.22,61.96 L36.76,62.12 L37.30,62.28 L37.86,62.42 L38.42,62.55 L39.00,62.67 L39.58,62.79 L40.17,62.89 L40.77,62.99 L41.37,63.08 L41.98,63.16 L42.60,63.23 L43.23,63.29 L43.86,63.34 L44.50,63.39 L45.15,63.43 L45.80,63.46 L46.43,63.48 L46.43,63.48 L47.83,63.19 L49.11,62.53 L50.18,61.57 L50.96,60.37 L51.41,59.01 L51.48,57.57 L51.19,56.17 L50.53,54.89 L49.57,53.82 L48.37,53.04 L47.01,52.59 L45.57,52.52 Z"/><path d="M29.43,57.99 L29.80,58.39 L30.21,58.83 L30.63,59.25 L31.06,59.66 L31.50,60.05 L31.95,60.44 L32.41,60.81 L32.88,61.17 L33.36,61.52 L33.84,61.86 L34.34,62.18 L34.84,62.50 L35.35,62.80 L35.86,63.09 L36.38,63.36 L36.91,63.63 L37.44,63.88 L37.97,64.12 L38.51,64.35 L39.05,64.56 L39.60,64.76 L40.15,64.95 L40.70,65.13 L41.26,65.29 L41.81,65.43 L42.37,65.57 L42.93,65.69 L43.49,65.79 L44.05,65.88 L44.58,65.96 L44.58,65.96 L45.10,66.00 L45.62,65.90 L46.09,65.68 L46.49,65.34 L46.78,64.91 L46.96,64.42 L47.00,63.90 L46.90,63.38 L46.68,62.91 L46.34,62.51 L45.91,62.22 L45.42,62.04 L45.42,62.04 L44.95,61.90 L44.51,61.75 L44.07,61.59 L43.64,61.42 L43.20,61.24 L42.77,61.05 L42.35,60.85 L41.92,60.63 L41.51,60.41 L41.09,60.18 L40.69,59.94 L40.28,59.69 L39.89,59.43 L39.50,59.16 L39.12,58.89 L38.75,58.60 L38.38,58.31 L38.02,58.01 L37.68,57.71 L37.34,57.40 L37.01,57.08 L36.70,56.76 L36.39,56.44 L36.10,56.10 L35.82,55.77 L35.55,55.43 L35.29,55.09 L35.05,54.74 L34.82,54.40 L34.57,54.01 L34.57,54.01 L33.97,53.41 L33.23,52.99 L32.41,52.78 L31.56,52.78 L30.75,53.00 L30.01,53.43 L29.41,54.03 L28.99,54.77 L28.78,55.59 L28.78,56.44 L29.00,57.25 L29.43,57.99 Z"/><ellipse cx="48" cy="64" rx="4.8" ry="2.5" transform="rotate(35 48 64)"/><path d="M45.29,54.91 L44.79,55.10 L44.33,55.27 L43.87,55.44 L43.42,55.60 L42.97,55.74 L42.53,55.88 L42.09,56.01 L41.66,56.14 L41.23,56.25 L40.81,56.35 L40.39,56.45 L39.99,56.54 L39.59,56.62 L39.20,56.69 L38.81,56.75 L38.44,56.80 L38.07,56.85 L37.72,56.89 L37.37,56.92 L37.04,56.94 L36.71,56.96 L36.40,56.97 L36.10,56.97 L35.81,56.96 L35.54,56.95 L35.27,56.93 L35.02,56.91 L34.78,56.89 L34.55,56.85 L34.28,56.79 L34.28,56.79 L33.54,56.55 L32.75,56.51 L31.99,56.68 L31.29,57.03 L30.71,57.56 L30.29,58.22 L30.05,58.96 L30.01,59.75 L30.18,60.51 L30.53,61.21 L31.06,61.79 L31.72,62.21 L31.72,62.21 L32.06,62.44 L32.47,62.67 L32.90,62.90 L33.34,63.11 L33.78,63.30 L34.24,63.48 L34.71,63.64 L35.19,63.79 L35.68,63.93 L36.18,64.06 L36.69,64.17 L37.21,64.27 L37.74,64.36 L38.27,64.44 L38.81,64.50 L39.36,64.55 L39.92,64.59 L40.49,64.62 L41.06,64.64 L41.64,64.65 L42.22,64.64 L42.81,64.62 L43.41,64.60 L44.02,64.56 L44.63,64.51 L45.24,64.44 L45.86,64.37 L46.49,64.29 L47.12,64.19 L47.71,64.09 L47.71,64.09 L48.86,63.62 L49.85,62.87 L50.61,61.89 L51.08,60.74 L51.25,59.52 L51.09,58.29 L50.62,57.14 L49.87,56.15 L48.89,55.39 L47.74,54.92 L46.52,54.75 L45.29,54.91 Z"/><path d="M30.63,61.33 L30.99,61.74 L31.39,62.17 L31.80,62.59 L32.22,63.00 L32.65,63.39 L33.10,63.78 L33.55,64.15 L34.01,64.51 L34.48,64.87 L34.95,65.21 L35.43,65.54 L35.92,65.86 L36.42,66.17 L36.92,66.46 L37.43,66.75 L37.94,67.03 L38.46,67.30 L38.98,67.55 L39.51,67.80 L40.04,68.04 L40.57,68.26 L41.11,68.48 L41.65,68.68 L42.19,68.88 L42.73,69.06 L43.28,69.23 L43.82,69.40 L44.37,69.55 L44.91,69.69 L45.44,69.81 L45.44,69.81 L45.93,69.90 L46.42,69.85 L46.89,69.68 L47.29,69.39 L47.61,69.01 L47.81,68.56 L47.90,68.07 L47.85,67.58 L47.68,67.11 L47.39,66.71 L47.01,66.39 L46.56,66.19 L46.56,66.19 L46.09,66.00 L45.64,65.81 L45.18,65.61 L44.73,65.41 L44.29,65.19 L43.84,64.97 L43.40,64.74 L42.96,64.50 L42.53,64.25 L42.11,64.00 L41.69,63.74 L41.27,63.47 L40.86,63.19 L40.46,62.91 L40.07,62.62 L39.68,62.33 L39.31,62.03 L38.94,61.72 L38.58,61.41 L38.23,61.09 L37.90,60.77 L37.57,60.44 L37.26,60.11 L36.95,59.77 L36.66,59.43 L36.38,59.09 L36.12,58.75 L35.86,58.40 L35.63,58.05 L35.37,57.67 L35.37,57.67 L34.82,57.11 L34.14,56.72 L33.38,56.52 L32.60,56.53 L31.84,56.73 L31.17,57.13 L30.61,57.68 L30.22,58.36 L30.02,59.12 L30.03,59.90 L30.23,60.66 L30.63,61.33 Z"/><ellipse cx="49" cy="68" rx="4.8" ry="2.5" transform="rotate(35 49 68)"/></g><g fill="__GROUND__"><ellipse cx="78" cy="40" rx="2.8" ry="2.2"/></g><path d="M4 62 Q18 56 32 62 T60 62 T88 62 T98 62" fill="none" stroke="__SECONDARY__" stroke-width="4" stroke-linecap="round"/><path d="M8 56 Q22 50 36 56 T64 56 T92 56" fill="none" stroke="__ACCENT__" stroke-width="4.5" stroke-linecap="round"/></svg>
