<svg xmlns="http://www.w3.org/2000/svg" viewBox="0 0 100 100" role="img" aria-label="Freestyle swimmer"><g fill="__ACCENT__"><path d="M57.95,47.57 L57.28,47.73 L56.62,47.88 L55.96,48.02 L55.32,48.17 L54.67,48.31 L54.04,48.45 L53.40,48.58 L52.77,48.72 L52.15,48.85 L51.53,48.98 L50.91,49.11 L50.29,49.23 L49.68,49.35 L49.07,49.48 L48.47,49.60 L47.86,49.71 L47.26,49.83 L46.66,49.95 L46.06,50.06 L45.46,50.17 L44.87,50.29 L44.27,50.40 L43.68,50.51 L43.08,50.62 L42.49,50.73 L41.90,50.84 L41.30,50.95 L40.71,51.05 L40.12,51.16 L39.52,51.27 L39.52,51.27 L38.06,51.59 L36.72,52.28 L35.61,53.29 L34.80,54.55 L34.34,55.98 L34.27,57.48 L34.59,58.94 L35.28,60.28 L36.29,61.39 L37.55,62.20 L38.98,62.66 L40.48,62.73 L40.48,62.73 L41.08,62.74 L41.69,62.75 L42.30,62.75 L42.91,62.76 L43.52,62.77 L44.13,62.77 L44.75,62.78 L45.37,62.78 L45.99,62.79 L46.61,62.79 L47.24,62.79 L47.87,62.79 L48.50,62.79 L49.14,62.78 L49.78,62.78 L50.43,62.77 L51.08,62.76 L51.74,62.75 L52.40,62.74 L53.07,62.73 L53.74,62.71 L54.42,62.69 L55.10,62.67 L55.79,62.64 L56.48,62.61 L57.19,62.58 L57.89,62.55 L58.61,62.51 L59.33,62.47 L60.05,62.43 L60.05,62.43 L61.93,61.90 L63.62,60.91 L64.99,59.51 L65.96,57.81 L66.44,55.91 L66.43,53.95 L65.90,52.07 L64.91,50.38 L63.51,49.01 L61.81,48.04 L59.91,47.56 L57.95,47.57 Z"/><path d="M41.70,49.04 L41.12,49.08 L40.54,49.12 L39.96,49.16 L39.38,49.20 L38.80,49.25 L38.23,49.29 L37.65,49.33 L37.07,49.37 L36.49,49.41 L35.91,49.45 L35.33,49.49 L34.75,49.53 L34.17,49.57 L33.59,49.61 L33.01,49.65 L32.43,49.70 L31.85,49.74 L31.27,49.78 L30.69,49.82 L30.11,49.86 L29.54,49.90 L28.96,49.94 L28.38,49.98 L27.80,50.02 L27.22,50.06 L26.64,50.11 L26.06,50.15 L25.48,50.19 L24.90,50.23 L24.32,50.27 L24.32,50.27 L23.60,50.28 L22.91,50.47 L22.30,50.84 L21.80,51.36 L21.45,51.98 L21.27,52.68 L21.28,53.40 L21.47,54.09 L21.84,54.70 L22.36,55.20 L22.98,55.55 L23.68,55.73 L23.68,55.73 L24.23,55.91 L24.79,56.08 L25.34,56.25 L25.89,56.43 L26.45,56.60 L27.00,56.78 L27.56,56.95 L28.11,57.13 L28.66,57.30 L29.22,57.47 L29.77,57.65 L30.33,57.82 L30.88,58.00 L31.43,58.17 L31.99,58.35 L32.54,58.52 L33.10,58.69 L33.65,58.87 L34.20,59.04 L34.76,59.22 L35.31,59.39 L35.87,59.56 L36.42,59.74 L36.97,59.91 L37.53,60.09 L38.08,60.26 L38.64,60.44 L39.19,60.61 L39.74,60.78 L40.30,60.96 L40.30,60.96 L41.87,60.94 L43.37,60.51 L44.72,59.71 L45.81,58.59 L46.57,57.22 L46.96,55.70 L46.94,54.13 L46.51,52.63 L45.71,51.28 L44.59,50.19 L43.22,49.43 L41.70,49.04 Z"/><ellipse cx="11" cy="52" rx="4.8" ry="2.5" transform="rotate(-22 11 52)"/><path d="M39.82,52.63 L39.31,52.83 L38.80,53.04 L38.28,53.25 L37.77,53.45 L37.26,53.66 L36.74,53.86 L36.23,54.07 L35.71,54.28 L35.20,54.48 L34.69,54.69 L34.17,54.90 L33.66,55.10 L33.15,55.31 L32.63,55.51 L32.12,55.72 L31.60,55.93 L31.09,56.13 L30.58,56.34 L30.06,56.55 L29.55,56.75 L29.04,56.96 L28.52,57.16 L28.01,57.37 L27.49,57.58 L26.98,57.78 L26.47,57.99 L25.95,58.19 L25.44,58.40 L24.93,58.61 L24.41,58.81 L24.41,58.81 L23.74,59.06 L23.15,59.47 L22.68,60.02 L22.38,60.67 L22.25,61.37 L22.31,62.09 L22.56,62.76 L22.97,63.35 L23.52,63.82 L24.17,64.12 L24.87,64.25 L25.59,64.19 L25.59,64.19 L26.14,64.16 L26.69,64.13 L27.25,64.11 L27.80,64.08 L28.35,64.05 L28.91,64.02 L29.46,64.00 L30.01,63.97 L30.56,63.94 L31.12,63.92 L31.67,63.89 L32.22,63.86 L32.78,63.83 L33.33,63.81 L33.88,63.78 L34.43,63.75 L34.99,63.73 L35.54,63.70 L36.09,63.67 L36.65,63.64 L37.20,63.62 L37.75,63.59 L38.30,63.56 L38.86,63.54 L39.41,63.51 L39.96,63.48 L40.52,63.45 L41.07,63.43 L41.62,63.40 L42.18,63.37 L42.18,63.37 L43.53,62.89 L44.70,62.07 L45.63,60.97 L46.24,59.67 L46.49,58.26 L46.37,56.82 L45.89,55.47 L45.07,54.30 L43.97,53.37 L42.67,52.76 L41.26,52.51 L39.82,52.63 Z"/><ellipse cx="11" cy="63" rx="4.8" ry="2.5" transform="rotate(22 11 63)"/><path d="M61.90,60.43 L62.10,60.36 L62.29,60.29 L62.49,60.23 L62.68,60.16 L62.88,60.09 L63.07,60.03 L63.27,59.96 L63.46,59.90 L63.65,59.83 L63.85,59.76 L64.04,59.70 L64.24,59.63 L64.43,59.56 L64.63,59.50 L64.82,59.43 L65.02,59.37 L65.21,59.30 L65.41,59.23 L65.60,59.17 L65.79,59.10 L65.99,59.03 L66.18,58.97 L66.38,58.90 L66.57,58.84 L66.77,58.77 L66.96,58.70 L67.16,58.64 L67.35,58.57 L67.55,58.50 L67.74,58.44 L67.74,58.44 L68.86,58.10 L69.86,57.47 L70.66,56.62 L71.21,55.58 L71.48,54.43 L71.44,53.26 L71.10,52.14 L70.47,51.14 L69.62,50.34 L68.58,49.79 L67.43,49.52 L66.26,49.56 L66.26,49.56 L66.05,49.56 L65.85,49.56 L65.64,49.56 L65.44,49.56 L65.23,49.56 L65.03,49.56 L64.82,49.56 L64.62,49.56 L64.41,49.57 L64.21,49.57 L64.00,49.57 L63.79,49.57 L63.59,49.57 L63.38,49.57 L63.18,49.57 L62.97,49.57 L62.77,49.57 L62.56,49.57 L62.36,49.57 L62.15,49.57 L61.95,49.57 L61.74,49.57 L61.53,49.57 L61.33,49.57 L61.12,49.57 L60.92,49.57 L60.71,49.57 L60.51,49.57 L60.30,49.57 L60.10,49.57 L60.10,49.57 L58.72,49.99 L57.50,50.75 L56.52,51.80 L55.85,53.07 L55.53,54.47 L55.57,55.90 L55.99,57.28 L56.75,58.50 L57.80,59.48 L59.07,60.15 L60.47,60.47 L61.90,60.43 Z"/><path d="M66.00,53.00 a7.00,7.00 0 1,0 14.00,0 a7.00,7.00 0 1,0 -14.00,0 Z"/><path d="M75.1,55.8 Q80.7,57.2 79.65,61.05 Q75.8,60.0 74.4,57.2 Z"/><path d="M56.00,54.00 a6.00,6.00 0 1,0 12.00,0 a6.00,6.00 0 1,0 -12.00,0 Z"/><path d="M65.39,60.97 L66.30,60.97 L67.19,60.97 L68.08,60.97 L68.97,60.97 L69.85,60.97 L70.72,60.97 L71.59,60.97 L72.46,60.97 L73.32,60.97 L74.17,60.97 L75.03,60.97 L75.87,60.97 L76.72,60.97 L77.56,60.97 L78.39,60.97 L79.23,60.97 L80.06,60.97 L80.89,60.97 L81.71,60.97 L82.53,60.97 L83.36,60.97 L84.18,60.97 L84.99,60.98 L85.81,60.98 L86.62,60.98 L87.44,60.98 L88.25,60.98 L89.07,60.98 L89.88,60.98 L90.69,60.98 L90.69,60.98 L91.34,60.98 L91.97,60.80 L92.53,60.47 L92.99,60.01 L93.32,59.44 L93.48,58.81 L93.48,58.16 L93.30,57.53 L92.97,56.97 L92.51,56.51 L91.94,56.18 L91.31,56.02 L91.31,56.02 L90.52,55.82 L89.73,55.62 L88.95,55.42 L88.16,55.22 L87.37,55.02 L86.57,54.82 L85.78,54.62 L84.99,54.43 L84.19,54.23 L83.39,54.03 L82.59,53.83 L81.79,53.63 L80.98,53.43 L80.17,53.23 L79.36,53.03 L78.54,52.83 L77.72,52.63 L76.89,52.43 L76.07,52.23 L75.23,52.03 L74.40,51.83 L73.55,51.63 L72.70,51.43 L71.85,51.23 L70.99,51.03 L70.13,50.83 L69.26,50.63 L68.38,50.43 L67.50,50.23 L66.61,50.03 L66.61,50.03 L65.17,50.06 L63.79,50.46 L62.57,51.20 L61.57,52.24 L60.88,53.50 L60.53,54.89 L60.56,56.33 L60.96,57.71 L61.70,58.93 L62.74,59.93 L64.00,60.62 L65.39,60.97 Z"/><ellipse cx="93" cy="59" rx="5.4" ry="2.9" transform="rotate(8 93 59)"/><path d="M65.20,49.00 L64.45,47.88 L63.75,46.80 L63.08,45.75 L62.44,44.73 L61.82,43.72 L61.24,42.75 L60.69,41.79 L60.17,40.87 L59.69,39.97 L59.23,39.10 L58.81,38.26 L58.43,37.45 L58.08,36.66 L57.76,35.91 L57.48,35.19 L57.23,34.51 L57.01,33.85 L56.83,33.24 L56.67,32.65 L56.55,32.11 L56.46,31.59 L56.39,31.12 L56.35,30.67 L56.34,30.26 L56.34,29.88 L56.37,29.51 L56.42,29.17 L56.50,28.84 L56.60,28.51 L56.82,28.07 L56.82,28.07 L57.26,27.27 L57.48,26.38 L57.46,25.47 L57.20,24.59 L56.73,23.81 L56.07,23.18 L55.27,22.74 L54.38,22.52 L53.47,22.54 L52.59,22.80 L51.81,23.27 L51.18,23.93 L51.18,23.93 L50.65,24.51 L50.09,25.27 L49.59,26.07 L49.16,26.91 L48.80,27.78 L48.49,28.68 L48.26,29.61 L48.08,30.55 L47.96,31.51 L47.89,32.49 L47.88,33.48 L47.91,34.48 L47.99,35.49 L48.11,36.52 L48.27,37.56 L48.48,38.61 L48.72,39.68 L49.00,40.76 L49.31,41.86 L49.65,42.97 L50.03,44.10 L50.45,45.25 L50.89,46.41 L51.37,47.59 L51.87,48.79 L52.40,50.00 L52.97,51.23 L53.56,52.48 L54.17,53.74 L54.80,55.00 L54.80,55.00 L55.76,56.24 L57.00,57.20 L58.45,57.80 L60.00,58.00 L61.55,57.80 L63.00,57.20 L64.24,56.24 L65.20,55.00 L65.80,53.55 L66.00,52.00 L65.80,50.45 L65.20,49.00 Z"/><path d="M53.92,29.50 L54.84,29.49 L55.69,29.51 L56.54,29.57 L57.41,29.68 L58.28,29.82 L59.16,29.99 L60.05,30.21 L60.94,30.46 L61.84,30.75 L62.75,31.07 L63.66,31.43 L64.58,31.83 L65.50,32.25 L66.42,32.72 L67.35,33.21 L68.28,33.73 L69.21,34.29 L70.15,34.87 L71.08,35.49 L72.01,36.13 L72.94,36.79 L73.88,37.48 L74.81,38.20 L75.73,38.93 L76.66,39.69 L77.58,40.47 L78.50,41.27 L79.42,42.09 L80.33,42.92 L81.24,43.78 L81.24,43.78 L81.76,44.17 L82.37,44.42 L83.01,44.50 L83.66,44.41 L84.26,44.16 L84.78,43.76 L85.17,43.24 L85.42,42.63 L85.50,41.99 L85.41,41.34 L85.16,40.74 L84.76,40.22 L84.76,40.22 L83.87,39.30 L82.96,38.37 L82.04,37.46 L81.12,36.57 L80.18,35.69 L79.24,34.83 L78.29,33.98 L77.33,33.16 L76.37,32.36 L75.39,31.58 L74.41,30.82 L73.42,30.09 L72.42,29.38 L71.42,28.70 L70.40,28.04 L69.37,27.41 L68.34,26.82 L67.29,26.25 L66.24,25.72 L65.18,25.22 L64.11,24.76 L63.02,24.34 L61.93,23.95 L60.82,23.61 L59.71,23.30 L58.59,23.05 L57.45,22.84 L56.31,22.67 L55.16,22.56 L54.08,22.50 L54.08,22.50 L53.17,22.60 L52.32,22.93 L51.58,23.47 L51.01,24.18 L50.64,25.02 L50.50,25.92 L50.60,26.83 L50.93,27.68 L51.47,28.42 L52.18,28.99 L53.02,29.36 L53.92,29.50 Z"/><ellipse cx="85" cy="43" rx="5.4" ry="2.9" transform="rotate(40 85 43)"/></g><g fill="__GROUND__"><ellipse cx="76" cy="56.5" rx="2.8" ry="2.3"/></g><path d="M4 64 Q18 58 32 64 T60 64 T88 64 T98 64" fill="none" stroke="__SECONDARY__" stroke-width="4" stroke-linecap="round"/><path d="M8 58 Q22 52 36 58 T64 58 T92 58" fill="none" stroke="__ACCENT__" stroke-width="4.5" stroke-linecap="round"/></svg>
