<svg xmlns="http://www.w3.org/2000/svg" viewBox="0 0 100 100" role="img" aria-label="Racing dive off the blocks"><path d="M6 60 H40 L33 67 H6 Z" fill="__SECONDARY__"/><rect x="6" y="67" width="19" height="25" rx="2" fill="__SECONDARY__"/><rect x="6" y="60" width="34" height="3" rx="1.5" fill="__ACCENT__"/><path d="M42 86 Q54 80 66 86 T90 86 T138 86" fill="none" stroke="__OUTLINE__" stroke-width="3" stroke-linecap="round" transform="translate(0,8)"/><path d="M58 57 C52 52 48 49 44 46" stroke="__ACCENT__" stroke-width="8.4" fill="none" stroke-linecap="round" stroke-linejoin="round"/><path d="M44 46 C38 42 33 38 27 33" stroke="__ACCENT__" stroke-width="7.2" fill="none" stroke-linecap="round" stroke-linejoin="round"/><path d="M60 58 C68 64 73 68 79 72" stroke="__ACCENT__" stroke-width="7.2" fill="none" stroke-linecap="round" stroke-linejoin="round"/><path d="M61 59.5 C69 65 74 69 79.5 73.5" stroke="__ACCENT__" stroke-width="6.0" fill="none" stroke-linecap="round" stroke-linejoin="round"/><circle cx="80" cy="73" r="7.2" fill="__ACCENT__"/><circle cx="85" cy="76.5" r="3.024" fill="__ACCENT__"/><path d="M42 86 Q54 80 66 86 T90 86 T138 86" fill="none" stroke="__ACCENT__" stroke-width="3.2" stroke-linecap="round"/></svg>
