<svg xmlns="http://www.w3.org/2000/svg" viewBox="0 0 100 100" role="img" aria-label="Freestyle swimmer"><path d="M2 58 Q14 52 26 58 T50 58 T98 58" fill="none" stroke="__OUTLINE__" stroke-width="3" stroke-linecap="round" transform="translate(0,8)"/><path d="M20.40,57.92 C22.55,58.79 21.15,58.52 21.21,58.85 C21.26,59.18 22.86,58.89 20.74,59.88 C18.61,60.88 10.58,63.66 8.46,64.82 C6.33,65.98 7.56,66.43 8.00,66.83 C8.44,67.23 7.96,67.36 11.10,67.21 C14.23,67.06 22.83,66.38 26.80,65.92 C30.77,65.45 28.63,66.03 34.92,64.43 C41.20,62.83 54.77,56.67 64.53,56.31 C74.29,55.96 88.43,61.39 93.47,62.30 C98.51,63.21 94.46,62.08 94.77,61.78 C95.07,61.48 95.36,60.98 95.30,60.51 C95.24,60.04 97.11,60.28 94.41,58.95 C91.70,57.61 81.68,54.77 79.07,52.52 C76.46,50.27 79.07,47.07 78.75,45.44 C78.43,43.82 77.83,43.53 77.16,42.75 C76.49,41.98 75.85,41.30 74.73,40.79 C73.62,40.28 72.14,39.55 70.48,39.70 C68.82,39.85 66.05,41.41 64.75,41.67 C63.44,41.92 63.83,42.67 62.66,41.21 C61.49,39.75 58.10,34.65 57.71,32.90 C57.32,31.15 58.79,31.41 60.32,30.73 C61.84,30.04 65.70,29.39 66.85,28.78 C68.00,28.18 67.30,27.62 67.21,27.10 C67.12,26.58 67.10,26.03 66.30,25.67 C65.51,25.31 64.22,24.87 62.44,24.96 C60.66,25.04 57.74,25.32 55.63,26.18 C53.52,27.04 50.81,28.99 49.76,30.11 C48.72,31.24 48.73,30.62 49.37,32.93 C50.00,35.24 52.98,41.92 53.58,43.98 C54.19,46.03 55.36,44.08 53.00,45.26 C50.64,46.44 44.02,49.87 39.41,51.07 C34.80,52.27 30.39,52.44 25.32,52.46 C20.26,52.48 11.94,51.30 9.03,51.20 C6.13,51.10 8.00,51.44 7.88,51.84 C7.77,52.24 6.26,52.61 8.34,53.62 C10.43,54.63 18.26,57.05 20.40,57.92 Z" fill="__ACCENT__"/><path d="M2 58 Q14 52 26 58 T50 58 T98 58" fill="none" stroke="__ACCENT__" stroke-width="3.2" stroke-linecap="round"/></svg>
