<svg xmlns="http://www.w3.org/2000/svg" viewBox="0 0 100 100" role="img" aria-label="Backstroke swimmer"><g fill="__ACCENT__"><path d="M62.43,45.95 L61.52,45.36 L60.55,44.75 L59.57,44.18 L58.59,43.66 L57.61,43.17 L56.62,42.72 L55.63,42.31 L54.63,41.94 L53.63,41.62 L52.62,41.35 L51.60,41.13 L50.58,40.95 L49.56,40.83 L48.53,40.76 L47.50,40.75 L46.49,40.80 L45.48,40.91 L44.48,41.07 L43.50,41.29 L42.54,41.56 L41.60,41.88 L40.69,42.25 L39.80,42.67 L38.95,43.12 L38.12,43.62 L37.31,44.15 L36.53,44.71 L35.77,45.31 L35.04,45.93 L34.39,46.52 L34.39,46.52 L33.36,47.61 L32.64,48.93 L32.28,50.38 L32.32,51.88 L32.74,53.32 L33.52,54.61 L34.61,55.64 L35.93,56.36 L37.38,56.72 L38.88,56.68 L40.32,56.26 L41.61,55.48 L41.61,55.48 L42.16,55.10 L42.63,54.83 L43.07,54.59 L43.50,54.39 L43.90,54.22 L44.29,54.09 L44.65,53.99 L44.99,53.92 L45.31,53.87 L45.61,53.85 L45.90,53.84 L46.18,53.86 L46.45,53.89 L46.72,53.93 L47.00,54.00 L47.28,54.07 L47.57,54.17 L47.88,54.28 L48.21,54.42 L48.57,54.58 L48.94,54.76 L49.34,54.98 L49.77,55.23 L50.23,55.51 L50.71,55.82 L51.21,56.18 L51.75,56.57 L52.31,57.01 L52.89,57.48 L53.57,58.05 L53.57,58.05 L55.29,58.99 L57.19,59.46 L59.15,59.41 L61.03,58.86 L62.70,57.84 L64.05,56.43 L64.99,54.71 L65.46,52.81 L65.41,50.85 L64.86,48.97 L63.84,47.30 L62.43,45.95 Z"/><path d="M38.50,45.52 L38.14,45.62 L37.78,45.72 L37.42,45.82 L37.06,45.92 L36.70,46.02 L36.34,46.12 L35.98,46.22 L35.62,46.32 L35.26,46.42 L34.90,46.52 L34.54,46.62 L34.17,46.72 L33.81,46.82 L33.45,46.92 L33.09,47.02 L32.73,47.12 L32.37,47.22 L32.01,47.32 L31.65,47.42 L31.29,47.52 L30.93,47.62 L30.57,47.72 L30.21,47.82 L29.85,47.92 L29.49,48.02 L29.13,48.12 L28.77,48.22 L28.40,48.31 L28.04,48.41 L27.68,48.51 L27.68,48.51 L26.79,48.72 L25.98,49.14 L25.31,49.76 L24.82,50.53 L24.55,51.40 L24.51,52.32 L24.72,53.21 L25.14,54.02 L25.76,54.69 L26.53,55.18 L27.40,55.45 L28.32,55.49 L28.32,55.49 L28.69,55.52 L29.06,55.55 L29.43,55.58 L29.81,55.62 L30.18,55.65 L30.55,55.68 L30.93,55.72 L31.30,55.75 L31.67,55.78 L32.04,55.82 L32.42,55.85 L32.79,55.88 L33.16,55.92 L33.53,55.95 L33.91,55.98 L34.28,56.01 L34.65,56.05 L35.03,56.08 L35.40,56.11 L35.77,56.15 L36.14,56.18 L36.52,56.21 L36.89,56.25 L37.26,56.28 L37.63,56.31 L38.01,56.35 L38.38,56.38 L38.75,56.41 L39.13,56.44 L39.50,56.48 L39.50,56.48 L40.90,56.16 L42.17,55.49 L43.23,54.52 L43.99,53.31 L44.42,51.94 L44.48,50.50 L44.16,49.10 L43.49,47.83 L42.52,46.77 L41.31,46.01 L39.94,45.58 L38.50,45.52 Z"/><path d="M30.14,49.23 L29.76,48.98 L29.44,48.76 L29.12,48.53 L28.83,48.30 L28.54,48.07 L28.27,47.84 L28.02,47.61 L27.78,47.38 L27.56,47.14 L27.35,46.91 L27.16,46.68 L26.98,46.45 L26.82,46.22 L26.67,45.99 L26.54,45.76 L26.42,45.54 L26.31,45.31 L26.22,45.09 L26.14,44.87 L26.07,44.64 L26.02,44.42 L25.98,44.19 L25.96,43.96 L25.94,43.72 L25.95,43.47 L25.97,43.22 L26.00,42.96 L26.06,42.69 L26.14,42.41 L26.27,42.06 L26.27,42.06 L26.46,41.44 L26.49,40.78 L26.35,40.15 L26.05,39.57 L25.61,39.09 L25.06,38.73 L24.44,38.54 L23.78,38.51 L23.15,38.65 L22.57,38.95 L22.09,39.39 L21.73,39.94 L21.73,39.94 L21.49,40.39 L21.25,40.91 L21.03,41.44 L20.85,41.97 L20.70,42.52 L20.58,43.07 L20.50,43.62 L20.45,44.17 L20.43,44.73 L20.44,45.28 L20.49,45.84 L20.57,46.38 L20.67,46.93 L20.80,47.46 L20.96,47.99 L21.15,48.51 L21.36,49.02 L21.60,49.52 L21.85,50.01 L22.13,50.50 L22.43,50.97 L22.75,51.43 L23.08,51.89 L23.44,52.33 L23.81,52.77 L24.20,53.19 L24.60,53.61 L25.02,54.02 L25.45,54.41 L25.86,54.77 L25.86,54.77 L26.65,55.23 L27.53,55.47 L28.45,55.47 L29.33,55.24 L30.12,54.78 L30.77,54.14 L31.23,53.35 L31.47,52.47 L31.47,51.55 L31.24,50.67 L30.78,49.88 L30.14,49.23 Z"/><ellipse cx="25" cy="39" rx="4.8" ry="2.5" transform="rotate(0 25 39)"/><path d="M38.36,47.54 L37.80,47.70 L37.25,47.87 L36.69,48.04 L36.14,48.20 L35.58,48.37 L35.03,48.53 L34.47,48.70 L33.92,48.87 L33.36,49.03 L32.81,49.20 L32.25,49.36 L31.70,49.53 L31.14,49.70 L30.59,49.86 L30.03,50.03 L29.48,50.19 L28.92,50.36 L28.37,50.53 L27.81,50.69 L27.26,50.86 L26.70,51.02 L26.15,51.19 L25.59,51.36 L25.04,51.52 L24.48,51.69 L23.93,51.85 L23.37,52.02 L22.82,52.19 L22.26,52.35 L21.71,52.52 L21.71,52.52 L21.08,52.68 L20.51,53.00 L20.04,53.45 L19.70,54.01 L19.53,54.64 L19.52,55.29 L19.68,55.92 L20.00,56.49 L20.45,56.96 L21.01,57.30 L21.64,57.47 L22.29,57.48 L22.29,57.48 L22.87,57.52 L23.45,57.55 L24.03,57.58 L24.61,57.61 L25.18,57.65 L25.76,57.68 L26.34,57.71 L26.92,57.74 L27.50,57.78 L28.08,57.81 L28.65,57.84 L29.23,57.87 L29.81,57.91 L30.39,57.94 L30.97,57.97 L31.55,58.01 L32.12,58.04 L32.70,58.07 L33.28,58.10 L33.86,58.14 L34.44,58.17 L35.02,58.20 L35.59,58.23 L36.17,58.27 L36.75,58.30 L37.33,58.33 L37.91,58.36 L38.49,58.40 L39.06,58.43 L39.64,58.46 L39.64,58.46 L41.03,58.11 L42.29,57.41 L43.32,56.41 L44.05,55.17 L44.44,53.79 L44.46,52.36 L44.11,50.97 L43.41,49.71 L42.41,48.68 L41.17,47.95 L39.79,47.56 L38.36,47.54 Z"/><ellipse cx="9" cy="56" rx="4.8" ry="2.5" transform="rotate(-25 9 56)"/><path d="M57.42,55.77 L57.60,55.79 L57.77,55.80 L57.95,55.82 L58.12,55.84 L58.30,55.86 L58.48,55.88 L58.65,55.89 L58.83,55.91 L59.01,55.93 L59.18,55.95 L59.36,55.97 L59.53,55.98 L59.71,56.00 L59.89,56.02 L60.06,56.04 L60.24,56.06 L60.42,56.08 L60.59,56.09 L60.77,56.11 L60.94,56.13 L61.12,56.15 L61.30,56.17 L61.47,56.18 L61.65,56.20 L61.83,56.22 L62.00,56.24 L62.18,56.26 L62.35,56.27 L62.53,56.29 L62.71,56.31 L62.71,56.31 L63.87,56.50 L65.04,56.38 L66.13,55.96 L67.09,55.27 L67.83,54.36 L68.31,53.29 L68.50,52.13 L68.38,50.96 L67.96,49.87 L67.27,48.91 L66.36,48.17 L65.29,47.69 L65.29,47.69 L65.14,47.61 L64.98,47.53 L64.82,47.44 L64.66,47.36 L64.51,47.28 L64.35,47.20 L64.19,47.12 L64.04,47.03 L63.88,46.95 L63.72,46.87 L63.57,46.79 L63.41,46.71 L63.25,46.62 L63.09,46.54 L62.94,46.46 L62.78,46.38 L62.62,46.30 L62.47,46.22 L62.31,46.13 L62.15,46.05 L61.99,45.97 L61.84,45.89 L61.68,45.81 L61.52,45.72 L61.37,45.64 L61.21,45.56 L61.05,45.48 L60.89,45.40 L60.74,45.31 L60.58,45.23 L60.58,45.23 L59.16,45.00 L57.73,45.15 L56.39,45.66 L55.23,46.50 L54.32,47.61 L53.73,48.92 L53.50,50.34 L53.65,51.77 L54.16,53.11 L55.00,54.27 L56.11,55.18 L57.42,55.77 Z"/><path d="M63.00,53.00 a7.00,7.00 0 1,0 14.00,0 a7.00,7.00 0 1,0 -14.00,0 Z"/><path d="M72.1,50.2 Q77.7,48.8 76.65,44.95 Q72.8,46.0 71.4,48.8 Z"/><path d="M53.00,49.00 a6.00,6.00 0 1,0 12.00,0 a6.00,6.00 0 1,0 -12.00,0 Z"/><path d="M64.13,49.98 L64.32,49.20 L64.51,48.49 L64.71,47.77 L64.92,47.07 L65.14,46.38 L65.38,45.69 L65.63,45.01 L65.89,44.34 L66.16,43.67 L66.45,43.01 L66.75,42.35 L67.06,41.71 L67.38,41.06 L67.71,40.43 L68.06,39.80 L68.42,39.17 L68.79,38.55 L69.17,37.93 L69.56,37.32 L69.97,36.72 L70.38,36.12 L70.81,35.52 L71.25,34.93 L71.70,34.34 L72.16,33.76 L72.62,33.18 L73.10,32.61 L73.59,32.04 L74.09,31.48 L74.61,30.91 L74.61,30.91 L75.05,30.43 L75.35,29.85 L75.49,29.21 L75.46,28.56 L75.26,27.94 L74.91,27.39 L74.43,26.95 L73.85,26.65 L73.21,26.51 L72.56,26.54 L71.94,26.74 L71.39,27.09 L71.39,27.09 L70.71,27.53 L70.03,27.98 L69.36,28.45 L68.69,28.93 L68.02,29.41 L67.36,29.91 L66.70,30.42 L66.05,30.94 L65.41,31.48 L64.77,32.02 L64.14,32.58 L63.52,33.16 L62.90,33.74 L62.29,34.34 L61.69,34.95 L61.10,35.58 L60.51,36.23 L59.93,36.89 L59.37,37.56 L58.81,38.25 L58.26,38.96 L57.73,39.68 L57.20,40.42 L56.68,41.17 L56.18,41.95 L55.69,42.74 L55.21,43.54 L54.74,44.37 L54.29,45.21 L53.87,46.02 L53.87,46.02 L53.53,47.41 L53.57,48.85 L53.97,50.23 L54.72,51.45 L55.76,52.44 L57.02,53.13 L58.41,53.47 L59.85,53.43 L61.23,53.03 L62.45,52.28 L63.44,51.24 L64.13,49.98 Z"/><ellipse cx="75" cy="28" rx="5.4" ry="2.9" transform="rotate(20 75 28)"/><path d="M54.58,47.20 L54.13,47.43 L53.71,47.63 L53.29,47.84 L52.87,48.03 L52.46,48.22 L52.06,48.41 L51.66,48.59 L51.26,48.76 L50.87,48.93 L50.48,49.10 L50.09,49.26 L49.71,49.41 L49.33,49.57 L48.95,49.71 L48.58,49.85 L48.21,49.99 L47.83,50.12 L47.46,50.25 L47.09,50.38 L46.72,50.50 L46.35,50.61 L45.98,50.73 L45.61,50.84 L45.24,50.94 L44.87,51.04 L44.50,51.14 L44.13,51.24 L43.75,51.33 L43.38,51.42 L42.99,51.50 L42.99,51.50 L42.34,51.59 L41.74,51.84 L41.22,52.24 L40.83,52.76 L40.58,53.36 L40.50,54.01 L40.59,54.66 L40.84,55.26 L41.24,55.78 L41.76,56.17 L42.36,56.42 L43.01,56.50 L43.01,56.50 L43.42,56.58 L43.85,56.66 L44.27,56.73 L44.70,56.80 L45.14,56.87 L45.57,56.93 L46.01,56.99 L46.45,57.04 L46.90,57.09 L47.35,57.13 L47.81,57.17 L48.27,57.20 L48.73,57.23 L49.20,57.26 L49.67,57.27 L50.15,57.28 L50.63,57.29 L51.12,57.29 L51.61,57.28 L52.11,57.27 L52.62,57.25 L53.13,57.23 L53.65,57.20 L54.17,57.16 L54.70,57.11 L55.23,57.06 L55.77,57.00 L56.32,56.94 L56.88,56.87 L57.42,56.80 L57.42,56.80 L58.61,56.27 L59.62,55.44 L60.39,54.39 L60.86,53.17 L61.00,51.87 L60.80,50.58 L60.27,49.39 L59.44,48.38 L58.39,47.61 L57.17,47.14 L55.87,47.00 L54.58,47.20 Z"/><ellipse cx="41" cy="54" rx="5.4" ry="2.9" transform="rotate(-18 41 54)"/></g><g fill="__GROUND__"><ellipse cx="70" cy="50" rx="2.8" ry="2.2"/></g><path d="M4 58 Q18 52 32 58 T60 58 T88 58 T98 58" fill="none" stroke="__SECONDARY__" stroke-width="4" stroke-linecap="round"/><path d="M8 52 Q22 46 36 52 T64 52 T92 52" fill="none" stroke="__ACCENT__" stroke-width="4.5" stroke-linecap="round"/></svg>
