<svg xmlns="http://www.w3.org/2000/svg" viewBox="0 0 100 100" role="img" aria-label="Butterfly swimmer"><path d="M2 59 Q14 53 26 59 T50 59 T98 59" fill="none" stroke="__OUTLINE__" stroke-width="3" stroke-linecap="round" transform="translate(0,8)"/><path d="M40 55 C49 55 57 54 63 52.5" stroke="__ACCENT__" stroke-width="8.4" fill="none" stroke-linecap="round" stroke-linejoin="round"/><path d="M61 51 C70 48 80 46 91 45" stroke="__ACCENT__" stroke-width="7.2" fill="none" stroke-linecap="round" stroke-linejoin="round"/><path d="M61 54 C70 52.5 80 51.5 91 51" stroke="__ACCENT__" stroke-width="7.2" fill="none" stroke-linecap="round" stroke-linejoin="round"/><path d="M40 55 C30 56.5 19 57.5 8 57.5" stroke="__ACCENT__" stroke-width="8.4" fill="none" stroke-linecap="round" stroke-linejoin="round"/><circle cx="64" cy="53" r="7.2" fill="__ACCENT__"/><circle cx="68.5" cy="57" r="3.024" fill="__ACCENT__"/><path d="M2 59 Q14 53 26 59 T50 59 T98 59" fill="none" stroke="__ACCENT__" stroke-width="3.2" stroke-linecap="round"/></svg>
