<svg xmlns="http://www.w3.org/2000/svg" viewBox="0 0 100 100" role="img" aria-label="Backstroke swimmer"><path d="M8 65 Q22 61 34 65 T60 65 T86 65 T96 65" fill="none" stroke="__SECONDARY__" stroke-linecap="round" stroke-width="3.5"/><path d="M12 72 Q26 68 40 72 T72 72" fill="none" stroke="__SECONDARY__" stroke-linecap="round" stroke-width="3"/><path d="M30 54 Q20 55 10 52" fill="none" stroke="__ACCENT__" stroke-linecap="round" stroke-linejoin="round" stroke-width="6"/><path d="M30 54 Q19 59 11 60" fill="none" stroke="__ACCENT__" stroke-linecap="round" stroke-linejoin="round" stroke-width="6"/><path d="M30 54 L64 53" fill="none" stroke="__ACCENT__" stroke-linecap="round" stroke-linejoin="round" stroke-width="11"/><path d="M64 52 Q63 33 61 15" fill="none" stroke="__ACCENT__" stroke-linecap="round" stroke-linejoin="round" stroke-width="7"/><path d="M65 55 Q77 60 87 61" fill="none" stroke="__ACCENT__" stroke-linecap="round" stroke-linejoin="round" stroke-width="6"/><circle cx="75" cy="53" r="6" fill="__ACCENT__"/><ellipse cx="76" cy="48" rx="2.3" ry="2.3" fill="__GROUND__"/><circle cx="7" cy="49" r="1.6" fill="__ACCENT__"/><circle cx="8" cy="62" r="1.5" fill="__ACCENT__"/><circle cx="12" cy="55" r="1.3" fill="__ACCENT__"/></svg>
