<svg xmlns="http://www.w3.org/2000/svg" viewBox="0 0 100 100" role="img" aria-label="Racing dive off the blocks"><path d="M6 56 H38 L31 63 H6 Z" fill="__SECONDARY__"/><rect x="6" y="63" width="18" height="29" rx="2" fill="__SECONDARY__"/><rect x="6" y="56" width="32" height="3" rx="1.5" fill="__ACCENT__"/><g fill="__ACCENT__"><path d="M47.75,40.31 L47.18,40.01 L46.61,39.70 L46.04,39.39 L45.47,39.08 L44.90,38.78 L44.33,38.47 L43.76,38.16 L43.20,37.85 L42.63,37.54 L42.07,37.23 L41.51,36.92 L40.94,36.60 L40.38,36.28 L39.82,35.96 L39.25,35.64 L38.69,35.31 L38.13,34.98 L37.56,34.64 L37.00,34.31 L36.44,33.96 L35.87,33.62 L35.31,33.26 L34.74,32.91 L34.18,32.54 L33.61,32.17 L33.04,31.80 L32.48,31.42 L31.91,31.03 L31.34,30.63 L30.76,30.23 L30.76,30.23 L30.24,29.83 L29.64,29.58 L28.99,29.50 L28.34,29.59 L27.74,29.84 L27.23,30.24 L26.83,30.76 L26.58,31.36 L26.50,32.01 L26.59,32.66 L26.84,33.26 L27.24,33.77 L27.24,33.77 L27.66,34.36 L28.09,34.94 L28.52,35.52 L28.96,36.10 L29.39,36.67 L29.82,37.23 L30.26,37.79 L30.69,38.35 L31.13,38.90 L31.56,39.44 L32.00,39.99 L32.44,40.52 L32.87,41.06 L33.31,41.59 L33.75,42.11 L34.18,42.64 L34.62,43.16 L35.06,43.67 L35.49,44.19 L35.93,44.70 L36.37,45.20 L36.80,45.71 L37.24,46.21 L37.67,46.71 L38.10,47.21 L38.53,47.71 L38.96,48.21 L39.39,48.70 L39.82,49.19 L40.25,49.69 L40.25,49.69 L41.59,50.50 L43.10,50.93 L44.66,50.96 L46.18,50.59 L47.56,49.83 L48.69,48.75 L49.50,47.41 L49.93,45.90 L49.96,44.34 L49.59,42.82 L48.83,41.44 L47.75,40.31 Z"/><ellipse cx="27" cy="30" rx="4.6" ry="2.5" transform="rotate(55 27 30)"/><path d="M39.52,50.38 L40.15,50.84 L40.78,51.30 L41.40,51.75 L42.02,52.19 L42.63,52.63 L43.23,53.06 L43.83,53.49 L44.42,53.91 L45.01,54.33 L45.59,54.74 L46.17,55.15 L46.75,55.55 L47.32,55.95 L47.88,56.34 L48.44,56.73 L49.00,57.12 L49.56,57.50 L50.11,57.88 L50.66,58.26 L51.20,58.64 L51.75,59.01 L52.29,59.38 L52.83,59.75 L53.36,60.12 L53.90,60.48 L54.43,60.85 L54.97,61.21 L55.50,61.57 L56.03,61.93 L56.56,62.29 L56.56,62.29 L57.79,63.04 L59.17,63.44 L60.61,63.47 L62.00,63.12 L63.26,62.43 L64.29,61.44 L65.04,60.21 L65.44,58.83 L65.47,57.39 L65.12,56.00 L64.43,54.74 L63.44,53.71 L63.44,53.71 L62.97,53.27 L62.50,52.83 L62.03,52.39 L61.56,51.95 L61.09,51.51 L60.62,51.07 L60.15,50.62 L59.67,50.18 L59.20,49.73 L58.72,49.29 L58.25,48.84 L57.76,48.39 L57.28,47.93 L56.80,47.48 L56.31,47.02 L55.82,46.55 L55.32,46.09 L54.82,45.62 L54.32,45.15 L53.81,44.67 L53.30,44.19 L52.79,43.70 L52.27,43.21 L51.74,42.71 L51.22,42.21 L50.68,41.71 L50.14,41.19 L49.59,40.68 L49.04,40.15 L48.48,39.62 L48.48,39.62 L46.93,38.64 L45.19,38.10 L43.36,38.03 L41.58,38.43 L39.96,39.28 L38.62,40.52 L37.64,42.07 L37.10,43.81 L37.03,45.64 L37.43,47.42 L38.28,49.04 L39.52,50.38 Z"/><path d="M57.80,62.47 L58.53,62.90 L59.25,63.31 L59.96,63.72 L60.66,64.12 L61.35,64.52 L62.03,64.92 L62.70,65.31 L63.36,65.69 L64.02,66.08 L64.67,66.45 L65.31,66.83 L65.95,67.20 L66.59,67.57 L67.22,67.93 L67.85,68.29 L68.48,68.65 L69.10,69.01 L69.72,69.36 L70.35,69.72 L70.97,70.07 L71.60,70.41 L72.22,70.76 L72.85,71.11 L73.48,71.45 L74.11,71.79 L74.75,72.14 L75.39,72.48 L76.03,72.82 L76.68,73.16 L77.33,73.49 L77.33,73.49 L78.03,73.84 L78.80,73.99 L79.58,73.94 L80.32,73.69 L80.97,73.26 L81.49,72.67 L81.84,71.97 L81.99,71.20 L81.94,70.42 L81.69,69.68 L81.26,69.03 L80.67,68.51 L80.67,68.51 L80.13,68.04 L79.59,67.58 L79.07,67.12 L78.55,66.66 L78.03,66.20 L77.52,65.73 L77.00,65.27 L76.49,64.80 L75.98,64.33 L75.47,63.86 L74.96,63.39 L74.45,62.91 L73.94,62.43 L73.42,61.94 L72.90,61.46 L72.38,60.97 L71.85,60.47 L71.31,59.97 L70.77,59.46 L70.22,58.95 L69.67,58.44 L69.10,57.92 L68.53,57.39 L67.94,56.86 L67.35,56.32 L66.74,55.77 L66.13,55.22 L65.50,54.66 L64.85,54.10 L64.20,53.53 L64.20,53.53 L62.94,52.85 L61.54,52.53 L60.10,52.57 L58.73,52.99 L57.51,53.75 L56.53,54.80 L55.85,56.06 L55.53,57.46 L55.57,58.90 L55.99,60.27 L56.75,61.49 L57.80,62.47 Z"/><path d="M58.22,63.04 L58.95,63.53 L59.67,64.01 L60.38,64.49 L61.08,64.95 L61.77,65.41 L62.45,65.86 L63.12,66.30 L63.79,66.73 L64.44,67.16 L65.09,67.58 L65.73,68.00 L66.37,68.40 L67.00,68.81 L67.63,69.21 L68.26,69.60 L68.88,69.99 L69.50,70.37 L70.11,70.75 L70.73,71.12 L71.35,71.50 L71.96,71.86 L72.58,72.23 L73.20,72.59 L73.82,72.95 L74.44,73.31 L75.07,73.67 L75.70,74.02 L76.33,74.38 L76.97,74.73 L77.61,75.08 L77.61,75.08 L78.19,75.37 L78.83,75.49 L79.48,75.45 L80.10,75.24 L80.65,74.88 L81.08,74.39 L81.37,73.81 L81.49,73.17 L81.45,72.52 L81.24,71.90 L80.88,71.35 L80.39,70.92 L80.39,70.92 L79.84,70.47 L79.30,70.02 L78.76,69.57 L78.23,69.13 L77.70,68.68 L77.17,68.22 L76.65,67.77 L76.13,67.31 L75.62,66.85 L75.10,66.39 L74.58,65.93 L74.06,65.46 L73.54,64.99 L73.02,64.51 L72.49,64.03 L71.97,63.54 L71.43,63.05 L70.89,62.55 L70.35,62.04 L69.80,61.53 L69.24,61.01 L68.67,60.48 L68.10,59.95 L67.52,59.41 L66.92,58.86 L66.32,58.30 L65.70,57.73 L65.07,57.15 L64.43,56.56 L63.78,55.96 L63.78,55.96 L62.77,55.36 L61.64,55.05 L60.46,55.03 L59.33,55.32 L58.30,55.90 L57.46,56.72 L56.86,57.73 L56.55,58.86 L56.53,60.04 L56.82,61.17 L57.40,62.20 L58.22,63.04 Z"/><ellipse cx="81" cy="74" rx="5.2" ry="2.9" transform="rotate(42 81 74)"/><path d="M68.00,69.00 a7.00,7.00 0 1,0 14.00,0 a7.00,7.00 0 1,0 -14.00,0 Z"/></g><g fill="__GROUND__"><ellipse cx="78" cy="71" rx="2.8" ry="2.3"/></g><path d="M40 86 Q52 80 64 86 T60 86 T88 86 T98 86" fill="none" stroke="__SECONDARY__" stroke-width="4" stroke-linecap="round"/><path d="M8 80 Q22 74 36 80 T64 80 T92 80" fill="none" stroke="__ACCENT__" stroke-width="4.5" stroke-linecap="round"/><g fill="__ACCENT__"><circle cx="84" cy="80" r="1.8"/><circle cx="90" cy="84" r="1.5"/></g></svg>
