<svg xmlns="http://www.w3.org/2000/svg" viewBox="0 0 100 100" role="img" aria-label="Freestyle front-crawl swimmer"><path d="M6 68 Q20 63 34 68 T62 68 T90 68" fill="none" stroke="__SECONDARY__" stroke-linecap="round" stroke-width="3.5"/><path d="M10 74 Q26 70 42 74 T74 74" fill="none" stroke="__SECONDARY__" stroke-linecap="round" stroke-width="3"/><path d="M26 57 Q17 53 8 51" fill="none" stroke="__ACCENT__" stroke-linecap="round" stroke-linejoin="round" stroke-width="6.5"/><path d="M26 60 Q16 64 10 67" fill="none" stroke="__ACCENT__" stroke-linecap="round" stroke-linejoin="round" stroke-width="6"/><path d="M24 58 Q45 55 66 55" fill="none" stroke="__ACCENT__" stroke-linecap="round" stroke-linejoin="round" stroke-width="11"/><path d="M64 56 Q54 62 46 66" fill="none" stroke="__ACCENT__" stroke-linecap="round" stroke-linejoin="round" stroke-width="6.5"/><path d="M64 54 Q59 42 59 32" fill="none" stroke="__ACCENT__" stroke-linecap="round" stroke-linejoin="round" stroke-width="7"/><path d="M59 32 Q73 38 86 49" fill="none" stroke="__ACCENT__" stroke-linecap="round" stroke-linejoin="round" stroke-width="6"/><circle cx="75" cy="58" r="6" fill="__ACCENT__"/><circle cx="79" cy="60" r="2.2" fill="__GROUND__"/><circle cx="6" cy="50" r="1.6" fill="__ACCENT__"/><circle cx="9" cy="68" r="1.6" fill="__ACCENT__"/></svg>
