<svg viewBox="0 0 100 100" xmlns="http://www.w3.org/2000/svg" fill="__ACCENT__" stroke="none"><path fill="__ACCENT__" fill-rule="evenodd" d="M32.4 38.8L33.6 39L36.5 40.4L42.1 43.4L43.8 44.7L43.2 44.9L46.5 45.9L49.3 47.4L50.9 48.9L51.5 49.8L51.9 51L51.1 50.6L50.9 50.7L51.8 51.2L52.5 52.1L52.9 53L53 54L53.1 54.1L53.3 53.2L55.4 55.1L54.7 56L54.8 56.1L55.2 55.9L54.6 57.9L54.1 58.2L48.4 58.6L43.7 58.6L39.4 58.3L36.1 57.6L38 56.1L41.7 52L43.2 52.6L37.8 48.7L33.3 44.7L33.4 44.4L34.9 43.6L30.5 45L25.9 45.8L21.5 47.9L20.8 48.5L19.4 50.6L17.2 52.2L16.1 53.4L15.6 53.2L15.7 52L16.6 51L18 50.4L16.3 50.7L12.1 52.2L10.9 52.2L10.6 52L10.8 51.5L14.5 49.9L14.4 49.7L10.5 51.3L9.6 51.2L9.6 50.7L9.8 50.4L13.9 48.4L10.6 49.7L9.8 49.8L9.7 49.1L10.1 48.8L14.2 46.8L13.6 46.8L11 47.7L10.9 47.2L11.5 46.6L15.8 44.7L19.8 44.3L27.5 40.3L30.5 39.2L32.4 38.9ZM64.1 48.4L67.1 48.8L68.5 49.5L69.3 50.2L69.9 51.6L70.1 53.1L70 54.8L69.5 56.2L65.4 56.5L64.4 54.6L62.7 52.8L61.3 51.9L60.3 51.8L59.9 51.9L60.7 52.3L61.2 52.9L61.6 53.9L61.6 54.8L61.1 55.2L61.5 54.7L61.5 54.1L61 53L60.4 52.6L59.8 52.6L59.3 52.9L59 53.7L59.1 54.2L59.8 55.1L60.9 55.3L61.9 56.2L61.7 57.1L59 57.5L58.7 56.8L58.9 57.5L58.6 57.6L54.7 58L55.1 56.4L55.8 55.1L57.9 52.8L59 52.3L58.7 54.1L59 54.7L60 55.6L60.9 55.6L59.8 55.3L59.1 54.6L58.9 53.9L59 52.7L59.7 52.1L60.3 50.3L60.7 49.8L62.5 48.8L64.1 48.5ZM67.6 49.6L67.6 49.8L69 51.1L68.8 50.5L68.2 49.9L67.6 49.7ZM59.6 50.7L59.2 52L57.9 52.6L58.2 52L59.6 50.7ZM21.8 50.8L22.2 51L22 51.4L21.7 51.4L21.6 51L21.8 50.9ZM43.8 51.3L44 54.4L43.1 56.7L43.2 56.9L43.4 56.6L43.9 55.7L44.3 53.9L44.2 52.2L43.8 51.4ZM60.7 52L61.3 52.1L62.4 52.8L64.2 54.7L65.2 56.4L65.2 56.6L64.1 56.7L63.4 56.3L62.5 56.2L62.5 56.4L63.4 56.5L63.7 56.8L62.9 56.5L62.3 56.6L62 55.8L61.5 55.4L61.8 54.7L61.5 53L60.7 52.1ZM21.4 53.1L21.8 53.1L22 53.4L21.8 53.8L21.4 53.8L21.4 53.1ZM26.3 54.5L26.6 54.5L26.1 55L26.4 56.4L27 56.4L27.3 56.8L26.7 56.8L25.8 56.4L25.9 57L24.8 56.8L23.8 57.3L21 58L21.4 57.6L21.8 56.7L21.8 56.5L21.2 56.4L19.9 57.7L18.1 58.5L18 58.5L18.4 58L18 57.9L16.6 58.5L14.3 58.7L16.9 57.7L17.3 57.2L17.1 56.5L18 56.6L18.1 56.4L17.8 55.7L18.3 56.1L18.2 57.4L19.1 57.5L20.1 57.1L21.1 56.1L22.2 56.2L22.5 55.8L22.5 55.4L22 54.7L22.8 55.2L23.2 56.5L24.1 56.7L24.6 56.5L24.7 55.7L25.3 56.1L25.6 56L25.9 55.6L25.9 54.8L26.3 54.5ZM18 54.8L18.2 54.9L18.2 55.2L17.9 55.2L18 54.9ZM22.4 56.6L22 56.9L22 57.3L22.8 57L22.9 56.7L22.5 56.6ZM17.4 56.8L17.3 57.7L16.2 58.3L17 58.2L17.7 57.7L17.7 56.9L17.5 56.8ZM68.2 56.7L73.1 56.9L82.9 59L86 59.1L88.3 58.8L85.4 59.4L82.4 59.4L73.1 58L69.4 57.8L52.8 59.8L56.5 58.9L51 59.2L48.1 59.1L55.2 58.5L64.4 57.1L68.2 56.8ZM27.8 57.2L32.7 57.4L39.1 58.7L43 59.1L40.4 59.2L30.4 58.1L26.6 58.1L18.5 59.1L25.5 57.5L27.8 57.2ZM87.5 57.7L91.9 58L96 58.8L91.3 58.3L82.7 58.4L84.7 58L87.5 57.8ZM69.1 58.5L74.8 58.8L81.9 59.9L79.8 59.9L75.9 59.6L69.1 58.5ZM27.6 58.7L32.5 58.8L42 60.2L47.2 60.3L45.9 60.5L41.8 60.6L28.6 59.6L14.9 60.5L8.6 60.6L27.6 58.8ZM10.9 58.8L13.4 59L14.2 59.3L4 59.5L6.4 59.1L10.9 58.9ZM63.8 59.1L64.2 59.1L61.5 59.9L56.1 61L52 61.2L48.8 60.9L54.2 60.5L63.8 59.1Z"/></svg>
