<svg xmlns="http://www.w3.org/2000/svg" viewBox="0 0 100 100" role="img" aria-label="Racing dive off the blocks">
  <defs><clipPath id="b__UID__"><path d="M64.64,51.43 L64.00,50.97 L63.37,50.52 L62.74,50.09 L62.13,49.66 L61.53,49.25 L60.94,48.85 L60.36,48.45 L59.78,48.07 L59.21,47.70 L58.65,47.33 L58.09,46.97 L57.54,46.62 L56.99,46.28 L56.45,45.95 L55.91,45.62 L55.37,45.30 L54.83,44.98 L54.30,44.67 L53.77,44.37 L53.23,44.07 L52.70,43.77 L52.17,43.48 L51.64,43.20 L51.10,42.92 L50.56,42.64 L50.02,42.36 L49.48,42.09 L48.94,41.82 L48.38,41.55 L47.84,41.29 L47.84,41.29 L46.53,40.72 L45.11,40.50 L43.68,40.66 L42.34,41.18 L41.19,42.03 L40.29,43.16 L39.72,44.47 L39.50,45.89 L39.66,47.32 L40.18,48.66 L41.03,49.81 L42.16,50.71 L42.16,50.71 L42.61,51.05 L43.04,51.38 L43.46,51.71 L43.88,52.05 L44.30,52.38 L44.71,52.72 L45.11,53.05 L45.52,53.39 L45.92,53.73 L46.32,54.08 L46.72,54.43 L47.12,54.78 L47.53,55.14 L47.93,55.51 L48.34,55.88 L48.76,56.26 L49.17,56.65 L49.60,57.04 L50.03,57.44 L50.46,57.86 L50.91,58.28 L51.36,58.71 L51.82,59.15 L52.29,59.60 L52.77,60.06 L53.26,60.54 L53.77,61.03 L54.29,61.53 L54.82,62.04 L55.36,62.57 L55.36,62.57 L56.97,63.58 L58.77,64.15 L60.66,64.22 L62.51,63.80 L64.19,62.92 L65.57,61.64 L66.58,60.03 L67.15,58.23 L67.22,56.34 L66.80,54.49 L65.92,52.81 L64.64,51.43 Z"/><path d="M48.59,41.51 L48.05,41.16 L47.51,40.81 L46.97,40.47 L46.44,40.14 L45.91,39.81 L45.39,39.49 L44.87,39.17 L44.35,38.86 L43.84,38.55 L43.32,38.24 L42.81,37.94 L42.30,37.64 L41.80,37.35 L41.29,37.06 L40.78,36.77 L40.27,36.49 L39.76,36.21 L39.25,35.93 L38.74,35.66 L38.23,35.39 L37.72,35.12 L37.20,34.85 L36.68,34.59 L36.16,34.33 L35.63,34.07 L35.10,33.81 L34.56,33.55 L34.02,33.29 L33.48,33.04 L32.94,32.79 L32.94,32.79 L32.04,32.40 L31.07,32.25 L30.10,32.36 L29.19,32.72 L28.40,33.30 L27.79,34.06 L27.40,34.96 L27.25,35.93 L27.36,36.90 L27.72,37.81 L28.30,38.60 L29.06,39.21 L29.06,39.21 L29.51,39.56 L29.95,39.91 L30.38,40.25 L30.80,40.60 L31.22,40.94 L31.64,41.29 L32.04,41.64 L32.45,41.98 L32.85,42.33 L33.25,42.68 L33.65,43.04 L34.04,43.39 L34.43,43.75 L34.83,44.11 L35.22,44.48 L35.61,44.84 L36.00,45.21 L36.40,45.59 L36.80,45.97 L37.19,46.35 L37.59,46.74 L38.00,47.13 L38.41,47.53 L38.82,47.94 L39.24,48.34 L39.66,48.76 L40.09,49.18 L40.52,49.61 L40.96,50.05 L41.41,50.49 L41.41,50.49 L42.70,51.27 L44.14,51.69 L45.64,51.71 L47.10,51.35 L48.41,50.63 L49.49,49.59 L50.27,48.30 L50.69,46.86 L50.71,45.36 L50.35,43.90 L49.63,42.59 L48.59,41.51 Z"/><path d="M32.69,32.65 L32.26,32.53 L31.86,32.42 L31.45,32.30 L31.05,32.18 L30.65,32.06 L30.26,31.94 L29.86,31.82 L29.47,31.70 L29.08,31.58 L28.69,31.46 L28.30,31.33 L27.91,31.21 L27.52,31.08 L27.13,30.96 L26.74,30.83 L26.35,30.70 L25.95,30.57 L25.56,30.44 L25.16,30.31 L24.76,30.18 L24.36,30.05 L23.95,29.92 L23.54,29.79 L23.13,29.66 L22.71,29.53 L22.29,29.40 L21.87,29.27 L21.44,29.14 L21.00,29.01 L20.56,28.88 L20.56,28.88 L20.25,28.78 L19.93,28.75 L19.61,28.81 L19.31,28.95 L19.07,29.17 L18.88,29.44 L18.78,29.75 L18.75,30.07 L18.81,30.39 L18.95,30.69 L19.17,30.93 L19.44,31.12 L19.44,31.12 L19.79,31.39 L20.14,31.66 L20.48,31.93 L20.81,32.20 L21.14,32.47 L21.46,32.74 L21.78,33.01 L22.10,33.28 L22.41,33.55 L22.72,33.82 L23.03,34.09 L23.34,34.36 L23.64,34.63 L23.95,34.90 L24.26,35.17 L24.57,35.44 L24.88,35.72 L25.19,35.99 L25.51,36.27 L25.83,36.54 L26.15,36.82 L26.48,37.10 L26.81,37.38 L27.15,37.66 L27.50,37.94 L27.85,38.22 L28.20,38.50 L28.57,38.78 L28.94,39.07 L29.31,39.35 L29.31,39.35 L30.24,39.67 L31.21,39.74 L32.17,39.56 L33.06,39.14 L33.80,38.50 L34.35,37.69 L34.67,36.76 L34.74,35.79 L34.56,34.83 L34.14,33.94 L33.50,33.20 L32.69,32.65 Z"/><path d="M49.95,42.28 L49.40,41.91 L48.84,41.55 L48.28,41.20 L47.73,40.87 L47.19,40.54 L46.65,40.23 L46.12,39.92 L45.59,39.63 L45.07,39.35 L44.55,39.08 L44.04,38.81 L43.53,38.55 L43.02,38.30 L42.52,38.06 L42.02,37.82 L41.52,37.58 L41.03,37.36 L40.54,37.13 L40.04,36.91 L39.55,36.69 L39.06,36.47 L38.57,36.25 L38.07,36.03 L37.58,35.81 L37.08,35.59 L36.58,35.36 L36.08,35.14 L35.57,34.90 L35.06,34.67 L34.54,34.42 L34.54,34.42 L33.82,34.11 L33.04,34.00 L32.27,34.09 L31.54,34.38 L30.91,34.85 L30.42,35.46 L30.11,36.18 L30.00,36.96 L30.09,37.73 L30.38,38.46 L30.85,39.09 L31.46,39.58 L31.46,39.58 L31.93,39.92 L32.40,40.27 L32.86,40.61 L33.32,40.95 L33.77,41.27 L34.21,41.60 L34.65,41.92 L35.08,42.24 L35.51,42.56 L35.93,42.87 L36.35,43.18 L36.76,43.49 L37.17,43.81 L37.58,44.12 L37.98,44.43 L38.38,44.75 L38.78,45.06 L39.18,45.38 L39.57,45.71 L39.97,46.04 L40.36,46.37 L40.76,46.71 L41.16,47.05 L41.56,47.40 L41.96,47.76 L42.37,48.13 L42.78,48.51 L43.19,48.90 L43.61,49.30 L44.05,49.72 L44.05,49.72 L45.11,50.36 L46.31,50.70 L47.55,50.72 L48.75,50.42 L49.83,49.81 L50.72,48.95 L51.36,47.89 L51.70,46.69 L51.72,45.45 L51.42,44.25 L50.81,43.17 L49.95,42.28 Z"/><path d="M34.33,34.31 L33.90,34.16 L33.47,34.02 L33.04,33.88 L32.61,33.74 L32.20,33.61 L31.78,33.49 L31.37,33.37 L30.97,33.26 L30.57,33.16 L30.17,33.06 L29.77,32.96 L29.38,32.87 L28.99,32.78 L28.60,32.70 L28.21,32.62 L27.83,32.55 L27.44,32.48 L27.06,32.41 L26.67,32.35 L26.29,32.29 L25.90,32.23 L25.51,32.17 L25.12,32.12 L24.73,32.07 L24.34,32.02 L23.94,31.97 L23.54,31.92 L23.13,31.88 L22.72,31.83 L22.31,31.79 L22.31,31.79 L21.98,31.75 L21.66,31.80 L21.36,31.93 L21.10,32.13 L20.91,32.39 L20.79,32.69 L20.75,33.02 L20.80,33.34 L20.93,33.64 L21.13,33.90 L21.39,34.09 L21.69,34.21 L21.69,34.21 L22.07,34.37 L22.44,34.52 L22.81,34.68 L23.16,34.83 L23.52,34.99 L23.86,35.15 L24.20,35.31 L24.54,35.46 L24.87,35.63 L25.19,35.79 L25.52,35.95 L25.84,36.12 L26.16,36.28 L26.47,36.45 L26.79,36.63 L27.10,36.80 L27.41,36.98 L27.72,37.16 L28.04,37.35 L28.35,37.54 L28.66,37.73 L28.98,37.92 L29.30,38.13 L29.63,38.33 L29.95,38.54 L30.28,38.76 L30.62,38.98 L30.96,39.21 L31.31,39.44 L31.67,39.69 L31.67,39.69 L32.41,39.94 L33.19,39.99 L33.96,39.84 L34.66,39.50 L35.25,38.98 L35.69,38.33 L35.94,37.59 L35.99,36.81 L35.84,36.04 L35.50,35.34 L34.98,34.75 L34.33,34.31 Z"/><path d="M57.94,62.27 L58.66,62.71 L59.37,63.15 L60.06,63.58 L60.74,64.00 L61.41,64.42 L62.06,64.83 L62.71,65.24 L63.35,65.64 L63.98,66.04 L64.60,66.43 L65.21,66.82 L65.81,67.20 L66.41,67.58 L66.99,67.96 L67.57,68.34 L68.15,68.71 L68.72,69.08 L69.28,69.44 L69.84,69.81 L70.40,70.17 L70.95,70.53 L71.50,70.89 L72.05,71.25 L72.59,71.61 L73.13,71.96 L73.67,72.32 L74.20,72.67 L74.74,73.02 L75.28,73.38 L75.81,73.73 L75.81,73.73 L76.60,74.21 L77.47,74.46 L78.39,74.48 L79.27,74.26 L80.07,73.82 L80.73,73.19 L81.21,72.40 L81.46,71.53 L81.48,70.61 L81.26,69.73 L80.82,68.93 L80.19,68.27 L80.19,68.27 L79.72,67.82 L79.26,67.37 L78.79,66.93 L78.32,66.48 L77.85,66.03 L77.38,65.58 L76.90,65.13 L76.42,64.67 L75.94,64.21 L75.45,63.75 L74.96,63.29 L74.46,62.83 L73.95,62.36 L73.44,61.89 L72.93,61.41 L72.40,60.93 L71.87,60.45 L71.33,59.97 L70.78,59.47 L70.22,58.98 L69.65,58.48 L69.07,57.97 L68.49,57.46 L67.89,56.95 L67.28,56.43 L66.66,55.90 L66.03,55.37 L65.38,54.83 L64.72,54.28 L64.06,53.73 L64.06,53.73 L62.85,53.09 L61.51,52.78 L60.14,52.82 L58.83,53.22 L57.67,53.94 L56.73,54.94 L56.09,56.15 L55.78,57.49 L55.82,58.86 L56.22,60.17 L56.94,61.33 L57.94,62.27 Z"/><path d="M76.04,73.90 L76.35,74.06 L76.64,74.20 L76.93,74.35 L77.21,74.49 L77.49,74.64 L77.76,74.79 L78.04,74.94 L78.31,75.09 L78.59,75.25 L78.86,75.40 L79.13,75.56 L79.41,75.72 L79.68,75.88 L79.96,76.04 L80.24,76.21 L80.51,76.37 L80.80,76.54 L81.08,76.71 L81.37,76.88 L81.66,77.05 L81.95,77.22 L82.25,77.39 L82.55,77.57 L82.86,77.74 L83.17,77.91 L83.48,78.09 L83.81,78.26 L84.13,78.44 L84.47,78.61 L84.80,78.78 L84.80,78.78 L85.30,79.03 L85.85,79.14 L86.41,79.11 L86.94,78.93 L87.41,78.62 L87.78,78.20 L88.03,77.70 L88.14,77.15 L88.11,76.59 L87.93,76.06 L87.62,75.59 L87.20,75.22 L87.20,75.22 L86.94,74.99 L86.69,74.76 L86.45,74.54 L86.21,74.31 L85.98,74.09 L85.75,73.86 L85.53,73.63 L85.30,73.41 L85.08,73.18 L84.86,72.95 L84.64,72.72 L84.42,72.49 L84.21,72.26 L83.99,72.03 L83.76,71.79 L83.54,71.56 L83.32,71.32 L83.09,71.08 L82.86,70.84 L82.62,70.60 L82.38,70.35 L82.13,70.11 L81.88,69.86 L81.63,69.61 L81.36,69.36 L81.10,69.11 L80.82,68.85 L80.53,68.60 L80.24,68.34 L79.96,68.10 L79.96,68.10 L79.14,67.69 L78.24,67.51 L77.33,67.56 L76.46,67.85 L75.70,68.36 L75.10,69.04 L74.69,69.86 L74.51,70.76 L74.56,71.67 L74.85,72.54 L75.36,73.30 L76.04,73.90 Z"/><path d="M58.42,63.49 L59.14,63.88 L59.83,64.26 L60.50,64.64 L61.17,65.02 L61.82,65.39 L62.47,65.77 L63.10,66.14 L63.72,66.51 L64.33,66.88 L64.94,67.24 L65.53,67.61 L66.12,67.98 L66.70,68.35 L67.27,68.72 L67.84,69.10 L68.40,69.47 L68.95,69.85 L69.50,70.22 L70.05,70.61 L70.59,70.99 L71.12,71.38 L71.66,71.78 L72.19,72.17 L72.72,72.58 L73.25,72.99 L73.77,73.40 L74.30,73.82 L74.83,74.25 L75.35,74.68 L75.89,75.13 L75.89,75.13 L76.51,75.60 L77.23,75.90 L78.01,76.00 L78.79,75.90 L79.51,75.59 L80.13,75.11 L80.60,74.49 L80.90,73.77 L81.00,72.99 L80.90,72.21 L80.59,71.49 L80.11,70.87 L80.11,70.87 L79.65,70.33 L79.17,69.78 L78.70,69.24 L78.22,68.70 L77.73,68.17 L77.25,67.64 L76.76,67.12 L76.27,66.59 L75.77,66.08 L75.27,65.56 L74.76,65.05 L74.24,64.54 L73.72,64.04 L73.20,63.53 L72.66,63.03 L72.12,62.53 L71.57,62.03 L71.02,61.53 L70.45,61.03 L69.88,60.53 L69.29,60.03 L68.70,59.54 L68.10,59.04 L67.49,58.54 L66.86,58.04 L66.23,57.53 L65.58,57.03 L64.92,56.52 L64.25,56.02 L63.58,55.51 L63.58,55.51 L62.46,54.98 L61.24,54.76 L60.00,54.86 L58.84,55.27 L57.81,55.98 L57.01,56.92 L56.48,58.04 L56.26,59.26 L56.36,60.50 L56.77,61.66 L57.48,62.69 L58.42,63.49 Z"/><path d="M76.34,75.50 L76.66,75.67 L76.98,75.84 L77.30,76.01 L77.60,76.16 L77.90,76.32 L78.20,76.46 L78.48,76.61 L78.77,76.75 L79.04,76.88 L79.32,77.01 L79.59,77.15 L79.85,77.27 L80.12,77.40 L80.38,77.53 L80.64,77.66 L80.90,77.79 L81.15,77.92 L81.41,78.05 L81.67,78.18 L81.93,78.32 L82.19,78.47 L82.45,78.61 L82.72,78.76 L82.99,78.92 L83.26,79.09 L83.54,79.26 L83.83,79.44 L84.12,79.63 L84.42,79.83 L84.73,80.04 L84.73,80.04 L85.17,80.32 L85.67,80.47 L86.19,80.49 L86.70,80.37 L87.16,80.13 L87.54,79.77 L87.82,79.33 L87.97,78.83 L87.99,78.31 L87.87,77.80 L87.63,77.34 L87.27,76.96 L87.27,76.96 L86.99,76.68 L86.71,76.41 L86.43,76.14 L86.15,75.89 L85.89,75.64 L85.62,75.40 L85.36,75.16 L85.10,74.93 L84.84,74.71 L84.59,74.49 L84.34,74.28 L84.09,74.07 L83.85,73.87 L83.61,73.66 L83.36,73.47 L83.12,73.27 L82.88,73.08 L82.64,72.89 L82.40,72.69 L82.16,72.50 L81.92,72.31 L81.68,72.12 L81.44,71.93 L81.20,71.74 L80.95,71.54 L80.70,71.34 L80.45,71.14 L80.19,70.93 L79.93,70.72 L79.66,70.50 L79.66,70.50 L78.95,70.16 L78.19,70.01 L77.40,70.06 L76.66,70.31 L76.01,70.75 L75.50,71.34 L75.16,72.05 L75.01,72.81 L75.06,73.60 L75.31,74.34 L75.75,74.99 L76.34,75.50 Z"/><path d="M41.40,46.00 a3.60,3.60 0 1,0 7.20,0 a3.60,3.60 0 1,0 -7.20,0 Z"/><path d="M27.80,36.00 a3.20,3.20 0 1,0 6.40,0 a3.20,3.20 0 1,0 -6.40,0 Z"/><path d="M74.40,72.00 a3.60,3.60 0 1,0 7.20,0 a3.60,3.60 0 1,0 -7.20,0 Z"/><path d="M67.60,74.00 a8.40,8.40 0 1,0 16.80,0 a8.40,8.40 0 1,0 -16.80,0 Z"/></clipPath></defs>
  <path d="M6 60 H40 L33 67 H6 Z" fill="__SECONDARY__"/><rect x="6" y="67" width="19" height="25" rx="2" fill="__SECONDARY__"/><rect x="6" y="60" width="34" height="3" rx="1.5" fill="__ACCENT__"/>
  <path d="M42 86 Q54 80 66 86 T90 86 T138 86" fill="none" stroke="__OUTLINE__" stroke-width="3" stroke-linecap="round" transform="translate(0,8)"/>
  <g fill="__ACCENT__"><path d="M64.64,51.43 L64.00,50.97 L63.37,50.52 L62.74,50.09 L62.13,49.66 L61.53,49.25 L60.94,48.85 L60.36,48.45 L59.78,48.07 L59.21,47.70 L58.65,47.33 L58.09,46.97 L57.54,46.62 L56.99,46.28 L56.45,45.95 L55.91,45.62 L55.37,45.30 L54.83,44.98 L54.30,44.67 L53.77,44.37 L53.23,44.07 L52.70,43.77 L52.17,43.48 L51.64,43.20 L51.10,42.92 L50.56,42.64 L50.02,42.36 L49.48,42.09 L48.94,41.82 L48.38,41.55 L47.84,41.29 L47.84,41.29 L46.53,40.72 L45.11,40.50 L43.68,40.66 L42.34,41.18 L41.19,42.03 L40.29,43.16 L39.72,44.47 L39.50,45.89 L39.66,47.32 L40.18,48.66 L41.03,49.81 L42.16,50.71 L42.16,50.71 L42.61,51.05 L43.04,51.38 L43.46,51.71 L43.88,52.05 L44.30,52.38 L44.71,52.72 L45.11,53.05 L45.52,53.39 L45.92,53.73 L46.32,54.08 L46.72,54.43 L47.12,54.78 L47.53,55.14 L47.93,55.51 L48.34,55.88 L48.76,56.26 L49.17,56.65 L49.60,57.04 L50.03,57.44 L50.46,57.86 L50.91,58.28 L51.36,58.71 L51.82,59.15 L52.29,59.60 L52.77,60.06 L53.26,60.54 L53.77,61.03 L54.29,61.53 L54.82,62.04 L55.36,62.57 L55.36,62.57 L56.97,63.58 L58.77,64.15 L60.66,64.22 L62.51,63.80 L64.19,62.92 L65.57,61.64 L66.58,60.03 L67.15,58.23 L67.22,56.34 L66.80,54.49 L65.92,52.81 L64.64,51.43 Z"/><path d="M48.59,41.51 L48.05,41.16 L47.51,40.81 L46.97,40.47 L46.44,40.14 L45.91,39.81 L45.39,39.49 L44.87,39.17 L44.35,38.86 L43.84,38.55 L43.32,38.24 L42.81,37.94 L42.30,37.64 L41.80,37.35 L41.29,37.06 L40.78,36.77 L40.27,36.49 L39.76,36.21 L39.25,35.93 L38.74,35.66 L38.23,35.39 L37.72,35.12 L37.20,34.85 L36.68,34.59 L36.16,34.33 L35.63,34.07 L35.10,33.81 L34.56,33.55 L34.02,33.29 L33.48,33.04 L32.94,32.79 L32.94,32.79 L32.04,32.40 L31.07,32.25 L30.10,32.36 L29.19,32.72 L28.40,33.30 L27.79,34.06 L27.40,34.96 L27.25,35.93 L27.36,36.90 L27.72,37.81 L28.30,38.60 L29.06,39.21 L29.06,39.21 L29.51,39.56 L29.95,39.91 L30.38,40.25 L30.80,40.60 L31.22,40.94 L31.64,41.29 L32.04,41.64 L32.45,41.98 L32.85,42.33 L33.25,42.68 L33.65,43.04 L34.04,43.39 L34.43,43.75 L34.83,44.11 L35.22,44.48 L35.61,44.84 L36.00,45.21 L36.40,45.59 L36.80,45.97 L37.19,46.35 L37.59,46.74 L38.00,47.13 L38.41,47.53 L38.82,47.94 L39.24,48.34 L39.66,48.76 L40.09,49.18 L40.52,49.61 L40.96,50.05 L41.41,50.49 L41.41,50.49 L42.70,51.27 L44.14,51.69 L45.64,51.71 L47.10,51.35 L48.41,50.63 L49.49,49.59 L50.27,48.30 L50.69,46.86 L50.71,45.36 L50.35,43.90 L49.63,42.59 L48.59,41.51 Z"/><path d="M32.69,32.65 L32.26,32.53 L31.86,32.42 L31.45,32.30 L31.05,32.18 L30.65,32.06 L30.26,31.94 L29.86,31.82 L29.47,31.70 L29.08,31.58 L28.69,31.46 L28.30,31.33 L27.91,31.21 L27.52,31.08 L27.13,30.96 L26.74,30.83 L26.35,30.70 L25.95,30.57 L25.56,30.44 L25.16,30.31 L24.76,30.18 L24.36,30.05 L23.95,29.92 L23.54,29.79 L23.13,29.66 L22.71,29.53 L22.29,29.40 L21.87,29.27 L21.44,29.14 L21.00,29.01 L20.56,28.88 L20.56,28.88 L20.25,28.78 L19.93,28.75 L19.61,28.81 L19.31,28.95 L19.07,29.17 L18.88,29.44 L18.78,29.75 L18.75,30.07 L18.81,30.39 L18.95,30.69 L19.17,30.93 L19.44,31.12 L19.44,31.12 L19.79,31.39 L20.14,31.66 L20.48,31.93 L20.81,32.20 L21.14,32.47 L21.46,32.74 L21.78,33.01 L22.10,33.28 L22.41,33.55 L22.72,33.82 L23.03,34.09 L23.34,34.36 L23.64,34.63 L23.95,34.90 L24.26,35.17 L24.57,35.44 L24.88,35.72 L25.19,35.99 L25.51,36.27 L25.83,36.54 L26.15,36.82 L26.48,37.10 L26.81,37.38 L27.15,37.66 L27.50,37.94 L27.85,38.22 L28.20,38.50 L28.57,38.78 L28.94,39.07 L29.31,39.35 L29.31,39.35 L30.24,39.67 L31.21,39.74 L32.17,39.56 L33.06,39.14 L33.80,38.50 L34.35,37.69 L34.67,36.76 L34.74,35.79 L34.56,34.83 L34.14,33.94 L33.50,33.20 L32.69,32.65 Z"/><path d="M49.95,42.28 L49.40,41.91 L48.84,41.55 L48.28,41.20 L47.73,40.87 L47.19,40.54 L46.65,40.23 L46.12,39.92 L45.59,39.63 L45.07,39.35 L44.55,39.08 L44.04,38.81 L43.53,38.55 L43.02,38.30 L42.52,38.06 L42.02,37.82 L41.52,37.58 L41.03,37.36 L40.54,37.13 L40.04,36.91 L39.55,36.69 L39.06,36.47 L38.57,36.25 L38.07,36.03 L37.58,35.81 L37.08,35.59 L36.58,35.36 L36.08,35.14 L35.57,34.90 L35.06,34.67 L34.54,34.42 L34.54,34.42 L33.82,34.11 L33.04,34.00 L32.27,34.09 L31.54,34.38 L30.91,34.85 L30.42,35.46 L30.11,36.18 L30.00,36.96 L30.09,37.73 L30.38,38.46 L30.85,39.09 L31.46,39.58 L31.46,39.58 L31.93,39.92 L32.40,40.27 L32.86,40.61 L33.32,40.95 L33.77,41.27 L34.21,41.60 L34.65,41.92 L35.08,42.24 L35.51,42.56 L35.93,42.87 L36.35,43.18 L36.76,43.49 L37.17,43.81 L37.58,44.12 L37.98,44.43 L38.38,44.75 L38.78,45.06 L39.18,45.38 L39.57,45.71 L39.97,46.04 L40.36,46.37 L40.76,46.71 L41.16,47.05 L41.56,47.40 L41.96,47.76 L42.37,48.13 L42.78,48.51 L43.19,48.90 L43.61,49.30 L44.05,49.72 L44.05,49.72 L45.11,50.36 L46.31,50.70 L47.55,50.72 L48.75,50.42 L49.83,49.81 L50.72,48.95 L51.36,47.89 L51.70,46.69 L51.72,45.45 L51.42,44.25 L50.81,43.17 L49.95,42.28 Z"/><path d="M34.33,34.31 L33.90,34.16 L33.47,34.02 L33.04,33.88 L32.61,33.74 L32.20,33.61 L31.78,33.49 L31.37,33.37 L30.97,33.26 L30.57,33.16 L30.17,33.06 L29.77,32.96 L29.38,32.87 L28.99,32.78 L28.60,32.70 L28.21,32.62 L27.83,32.55 L27.44,32.48 L27.06,32.41 L26.67,32.35 L26.29,32.29 L25.90,32.23 L25.51,32.17 L25.12,32.12 L24.73,32.07 L24.34,32.02 L23.94,31.97 L23.54,31.92 L23.13,31.88 L22.72,31.83 L22.31,31.79 L22.31,31.79 L21.98,31.75 L21.66,31.80 L21.36,31.93 L21.10,32.13 L20.91,32.39 L20.79,32.69 L20.75,33.02 L20.80,33.34 L20.93,33.64 L21.13,33.90 L21.39,34.09 L21.69,34.21 L21.69,34.21 L22.07,34.37 L22.44,34.52 L22.81,34.68 L23.16,34.83 L23.52,34.99 L23.86,35.15 L24.20,35.31 L24.54,35.46 L24.87,35.63 L25.19,35.79 L25.52,35.95 L25.84,36.12 L26.16,36.28 L26.47,36.45 L26.79,36.63 L27.10,36.80 L27.41,36.98 L27.72,37.16 L28.04,37.35 L28.35,37.54 L28.66,37.73 L28.98,37.92 L29.30,38.13 L29.63,38.33 L29.95,38.54 L30.28,38.76 L30.62,38.98 L30.96,39.21 L31.31,39.44 L31.67,39.69 L31.67,39.69 L32.41,39.94 L33.19,39.99 L33.96,39.84 L34.66,39.50 L35.25,38.98 L35.69,38.33 L35.94,37.59 L35.99,36.81 L35.84,36.04 L35.50,35.34 L34.98,34.75 L34.33,34.31 Z"/><path d="M57.94,62.27 L58.66,62.71 L59.37,63.15 L60.06,63.58 L60.74,64.00 L61.41,64.42 L62.06,64.83 L62.71,65.24 L63.35,65.64 L63.98,66.04 L64.60,66.43 L65.21,66.82 L65.81,67.20 L66.41,67.58 L66.99,67.96 L67.57,68.34 L68.15,68.71 L68.72,69.08 L69.28,69.44 L69.84,69.81 L70.40,70.17 L70.95,70.53 L71.50,70.89 L72.05,71.25 L72.59,71.61 L73.13,71.96 L73.67,72.32 L74.20,72.67 L74.74,73.02 L75.28,73.38 L75.81,73.73 L75.81,73.73 L76.60,74.21 L77.47,74.46 L78.39,74.48 L79.27,74.26 L80.07,73.82 L80.73,73.19 L81.21,72.40 L81.46,71.53 L81.48,70.61 L81.26,69.73 L80.82,68.93 L80.19,68.27 L80.19,68.27 L79.72,67.82 L79.26,67.37 L78.79,66.93 L78.32,66.48 L77.85,66.03 L77.38,65.58 L76.90,65.13 L76.42,64.67 L75.94,64.21 L75.45,63.75 L74.96,63.29 L74.46,62.83 L73.95,62.36 L73.44,61.89 L72.93,61.41 L72.40,60.93 L71.87,60.45 L71.33,59.97 L70.78,59.47 L70.22,58.98 L69.65,58.48 L69.07,57.97 L68.49,57.46 L67.89,56.95 L67.28,56.43 L66.66,55.90 L66.03,55.37 L65.38,54.83 L64.72,54.28 L64.06,53.73 L64.06,53.73 L62.85,53.09 L61.51,52.78 L60.14,52.82 L58.83,53.22 L57.67,53.94 L56.73,54.94 L56.09,56.15 L55.78,57.49 L55.82,58.86 L56.22,60.17 L56.94,61.33 L57.94,62.27 Z"/><path d="M76.04,73.90 L76.35,74.06 L76.64,74.20 L76.93,74.35 L77.21,74.49 L77.49,74.64 L77.76,74.79 L78.04,74.94 L78.31,75.09 L78.59,75.25 L78.86,75.40 L79.13,75.56 L79.41,75.72 L79.68,75.88 L79.96,76.04 L80.24,76.21 L80.51,76.37 L80.80,76.54 L81.08,76.71 L81.37,76.88 L81.66,77.05 L81.95,77.22 L82.25,77.39 L82.55,77.57 L82.86,77.74 L83.17,77.91 L83.48,78.09 L83.81,78.26 L84.13,78.44 L84.47,78.61 L84.80,78.78 L84.80,78.78 L85.30,79.03 L85.85,79.14 L86.41,79.11 L86.94,78.93 L87.41,78.62 L87.78,78.20 L88.03,77.70 L88.14,77.15 L88.11,76.59 L87.93,76.06 L87.62,75.59 L87.20,75.22 L87.20,75.22 L86.94,74.99 L86.69,74.76 L86.45,74.54 L86.21,74.31 L85.98,74.09 L85.75,73.86 L85.53,73.63 L85.30,73.41 L85.08,73.18 L84.86,72.95 L84.64,72.72 L84.42,72.49 L84.21,72.26 L83.99,72.03 L83.76,71.79 L83.54,71.56 L83.32,71.32 L83.09,71.08 L82.86,70.84 L82.62,70.60 L82.38,70.35 L82.13,70.11 L81.88,69.86 L81.63,69.61 L81.36,69.36 L81.10,69.11 L80.82,68.85 L80.53,68.60 L80.24,68.34 L79.96,68.10 L79.96,68.10 L79.14,67.69 L78.24,67.51 L77.33,67.56 L76.46,67.85 L75.70,68.36 L75.10,69.04 L74.69,69.86 L74.51,70.76 L74.56,71.67 L74.85,72.54 L75.36,73.30 L76.04,73.90 Z"/><path d="M58.42,63.49 L59.14,63.88 L59.83,64.26 L60.50,64.64 L61.17,65.02 L61.82,65.39 L62.47,65.77 L63.10,66.14 L63.72,66.51 L64.33,66.88 L64.94,67.24 L65.53,67.61 L66.12,67.98 L66.70,68.35 L67.27,68.72 L67.84,69.10 L68.40,69.47 L68.95,69.85 L69.50,70.22 L70.05,70.61 L70.59,70.99 L71.12,71.38 L71.66,71.78 L72.19,72.17 L72.72,72.58 L73.25,72.99 L73.77,73.40 L74.30,73.82 L74.83,74.25 L75.35,74.68 L75.89,75.13 L75.89,75.13 L76.51,75.60 L77.23,75.90 L78.01,76.00 L78.79,75.90 L79.51,75.59 L80.13,75.11 L80.60,74.49 L80.90,73.77 L81.00,72.99 L80.90,72.21 L80.59,71.49 L80.11,70.87 L80.11,70.87 L79.65,70.33 L79.17,69.78 L78.70,69.24 L78.22,68.70 L77.73,68.17 L77.25,67.64 L76.76,67.12 L76.27,66.59 L75.77,66.08 L75.27,65.56 L74.76,65.05 L74.24,64.54 L73.72,64.04 L73.20,63.53 L72.66,63.03 L72.12,62.53 L71.57,62.03 L71.02,61.53 L70.45,61.03 L69.88,60.53 L69.29,60.03 L68.70,59.54 L68.10,59.04 L67.49,58.54 L66.86,58.04 L66.23,57.53 L65.58,57.03 L64.92,56.52 L64.25,56.02 L63.58,55.51 L63.58,55.51 L62.46,54.98 L61.24,54.76 L60.00,54.86 L58.84,55.27 L57.81,55.98 L57.01,56.92 L56.48,58.04 L56.26,59.26 L56.36,60.50 L56.77,61.66 L57.48,62.69 L58.42,63.49 Z"/><path d="M76.34,75.50 L76.66,75.67 L76.98,75.84 L77.30,76.01 L77.60,76.16 L77.90,76.32 L78.20,76.46 L78.48,76.61 L78.77,76.75 L79.04,76.88 L79.32,77.01 L79.59,77.15 L79.85,77.27 L80.12,77.40 L80.38,77.53 L80.64,77.66 L80.90,77.79 L81.15,77.92 L81.41,78.05 L81.67,78.18 L81.93,78.32 L82.19,78.47 L82.45,78.61 L82.72,78.76 L82.99,78.92 L83.26,79.09 L83.54,79.26 L83.83,79.44 L84.12,79.63 L84.42,79.83 L84.73,80.04 L84.73,80.04 L85.17,80.32 L85.67,80.47 L86.19,80.49 L86.70,80.37 L87.16,80.13 L87.54,79.77 L87.82,79.33 L87.97,78.83 L87.99,78.31 L87.87,77.80 L87.63,77.34 L87.27,76.96 L87.27,76.96 L86.99,76.68 L86.71,76.41 L86.43,76.14 L86.15,75.89 L85.89,75.64 L85.62,75.40 L85.36,75.16 L85.10,74.93 L84.84,74.71 L84.59,74.49 L84.34,74.28 L84.09,74.07 L83.85,73.87 L83.61,73.66 L83.36,73.47 L83.12,73.27 L82.88,73.08 L82.64,72.89 L82.40,72.69 L82.16,72.50 L81.92,72.31 L81.68,72.12 L81.44,71.93 L81.20,71.74 L80.95,71.54 L80.70,71.34 L80.45,71.14 L80.19,70.93 L79.93,70.72 L79.66,70.50 L79.66,70.50 L78.95,70.16 L78.19,70.01 L77.40,70.06 L76.66,70.31 L76.01,70.75 L75.50,71.34 L75.16,72.05 L75.01,72.81 L75.06,73.60 L75.31,74.34 L75.75,74.99 L76.34,75.50 Z"/><path d="M41.40,46.00 a3.60,3.60 0 1,0 7.20,0 a3.60,3.60 0 1,0 -7.20,0 Z"/><path d="M27.80,36.00 a3.20,3.20 0 1,0 6.40,0 a3.20,3.20 0 1,0 -6.40,0 Z"/><path d="M74.40,72.00 a3.60,3.60 0 1,0 7.20,0 a3.60,3.60 0 1,0 -7.20,0 Z"/><path d="M67.60,74.00 a8.40,8.40 0 1,0 16.80,0 a8.40,8.40 0 1,0 -16.80,0 Z"/></g>
  <g clip-path="url(#b__UID__)"><rect x="0" y="86" width="100" height="14" fill="__GROUND__" opacity="0.24"/></g>
  <path d="M42 86 Q54 80 66 86 T90 86 T138 86" fill="none" stroke="__ACCENT__" stroke-width="3.2" stroke-linecap="round"/>
  <g fill="__ACCENT__" opacity="0.85"><circle cx="88" cy="76" r="1.6"/><circle cx="90" cy="82" r="1.6"/><circle cx="86" cy="78.5" r="1.6"/></g>
</svg>
