<svg viewBox="0 0 100 100" xmlns="http://www.w3.org/2000/svg" fill="__ACCENT__" stroke="none"><g stroke="none"><path fill="__ACCENT__" d="M49 39.3Q49.1 39.1 50 39.1Q50.9 39.1 52.2 39.8Q53.5 40.6 54.6 43.7Q55.6 46.8 56.6 46.3Q57.7 45.9 59.4 45.9Q61.2 45.9 66 43.7Q70.9 41.5 74.9 41Q78.9 40.6 83.9 40.6Q88.9 40.6 91.2 41.6Q93.6 42.6 95.5 44.4Q97.4 46.2 97.4 46.5Q97.4 46.8 95.9 46.6Q94.5 46.5 93.4 45.6Q92.4 44.7 91.1 44.7Q89.8 44.7 87.8 43.7Q85.9 42.6 84.7 42.8Q83.6 42.9 80.8 44.1Q78 45.3 75.2 45.7Q72.4 46.2 70.6 47.8Q68.8 49.4 68 49.9Q67.1 50.3 63.8 51Q60.6 51.8 59.9 52.9Q59.1 54.1 56.3 55.9Q53.5 57.7 52.7 58Q51.8 58.2 50 58.2Q48.2 58.2 45.1 56.6Q42 55 41.3 54.4Q40.6 53.8 40 52.8Q39.4 51.8 36.2 51Q32.9 50.3 32 49.9Q31.2 49.4 29.4 47.8Q27.6 46.2 24.8 45.7Q22 45.3 19.2 44.1Q16.4 42.9 15.3 42.8Q14.1 42.6 12.7 43.5Q11.4 44.4 9.5 44.6Q7.6 44.7 6.1 45.7Q4.7 46.8 3.6 46.8Q2.6 46.8 2.6 46.5Q2.6 46.2 4.5 44.4Q6.4 42.6 8.3 41.8Q10.2 40.9 16 40.7Q21.7 40.6 25.4 41Q29.1 41.5 34 43.7Q38.8 45.9 40.6 45.9Q42.3 45.9 43.4 46.3Q44.4 46.8 45.1 44.1Q45.9 41.5 46.5 40.7Q47.1 40 47.9 39.7Q48.8 39.4 49 39.3ZM32.5 53.7Q32.6 53.5 34.4 53.5Q36.2 53.5 37 53.8Q37.9 54.1 41 56.2Q44.1 58.2 46.5 59.1Q48.8 60 51.2 59.7Q53.5 59.4 57.2 57.1Q60.9 54.7 62.4 54.1Q63.8 53.5 65.6 53.5Q67.4 53.5 68.6 54Q69.7 54.4 70.5 55Q71.2 55.6 71.6 56.8Q72.1 58 70.5 56.9Q68.8 55.9 66.6 55.7Q64.4 55.6 64 55.7Q63.5 55.9 63.4 56.3Q63.3 56.8 64.4 56.8Q65.6 56.8 66.8 57.4Q68 58 66.5 57.7Q65 57.4 63.7 57.5Q62.4 57.7 58.4 59.1Q54.4 60.6 51.9 60.9Q49.4 61.2 47.1 60.7Q44.7 60.3 41.2 59Q37.6 57.7 36.6 57.5Q35.6 57.4 33.8 57.7Q32 58 33.2 57.4Q34.4 56.8 35.6 56.8Q36.7 56.8 36.9 56.6Q37 56.5 36.3 56Q35.6 55.6 33.4 55.7Q31.2 55.9 29.5 56.9Q27.9 58 28.1 57.2Q28.2 56.5 28.8 55.7Q29.4 55 30.9 54.4Q32.3 53.8 32.5 53.7Z"/><path fill="__ACCENT__" opacity="0.5" d="M81.8 40.1Q81.8 40 85.3 40Q88.9 40 90.6 40.6Q92.4 41.2 95.2 43.5Q98 45.9 98 46.5Q98 47.1 96.7 47.2Q95.3 47.3 93.7 46.3Q92.1 45.3 90.3 45.1Q88.6 45 87.3 44.1Q85.9 43.2 82 44.6Q78 45.9 75.6 46.2Q73.3 46.5 70.9 48.4Q68.6 50.3 64.7 51.3Q60.9 52.4 60.5 53.1Q60 53.8 60.2 54.1Q60.3 54.4 62.8 53.7Q65.3 52.9 65.5 52.5Q65.6 52.1 67.2 52.1Q68.8 52.1 70.3 52.7Q71.8 53.2 72.4 52.8Q73 52.4 73.9 52.9Q74.7 53.5 74.7 54Q74.7 54.4 74.3 54.4Q73.9 54.4 73.7 55.4Q73.6 56.5 73 56.6Q72.4 56.8 72.5 57.7Q72.7 58.5 69.9 57.4Q67.1 56.2 68 56.9Q68.8 57.7 68.7 58.1Q68.6 58.5 67.2 58.4Q65.9 58.2 66.3 57.8Q66.8 57.4 66.2 57.2Q65.6 57.1 65.5 57.5Q65.3 58 59.1 59.7Q52.9 61.5 51.8 61.5Q50.6 61.5 50.6 61.2Q50.6 60.9 58 59.1Q65.3 57.4 65.3 57.1Q65.3 56.8 64.1 56.8Q63 56.8 63.5 56.2Q64.1 55.6 66 55.6Q68 55.6 69.7 56.3Q71.5 57.1 71.3 56.5Q71.2 55.9 69.7 54.9Q68.3 53.8 66.2 53.7Q64.1 53.5 59 56.5Q53.8 59.4 51.2 59.7Q48.5 60 46.2 59.1Q43.8 58.2 40.7 56.2Q37.6 54.1 35.3 53.8Q32.9 53.5 31.3 54.3Q29.7 55 29.2 55.9Q28.8 56.8 30.4 56.2Q32 55.6 34 55.6Q35.9 55.6 36.5 56.2Q37 56.8 35.4 56.9Q33.8 57.1 34.2 57.7Q34.7 58.2 32.9 58.4Q31.2 58.5 31.7 57.7Q32.3 56.8 31.9 56.6Q31.4 56.5 29.4 57.5Q27.3 58.5 27.5 57.7Q27.6 56.8 27 56.6Q26.4 56.5 26.4 55.6Q26.4 54.7 25.9 54.4Q25.3 54.1 26.1 53.2Q27 52.4 27.6 52.8Q28.2 53.2 31 52.7Q33.8 52.1 36.6 53.2Q39.4 54.4 39.5 53.7Q39.7 52.9 35.9 51.8Q32 50.6 29.4 48.5Q26.7 46.5 24.4 46.2Q22 45.9 18.8 44.7Q15.5 43.5 16.1 43.2Q16.7 42.9 19.5 44.1Q22.3 45.3 25.1 45.7Q27.9 46.2 30.6 48.2Q33.2 50.3 36.5 51Q39.7 51.8 40.9 53.4Q42 55 43.5 55.9Q45 56.8 46.8 57.5Q48.5 58.2 50 58.2Q51.5 58.2 55.2 56.2Q58.8 54.1 59.6 52.9Q60.3 51.8 63.5 51Q66.8 50.3 69.4 48.2Q72.1 46.2 74.9 45.7Q77.7 45.3 80.5 44.1Q83.3 42.9 84.7 42.8Q86.2 42.6 87.3 43.4Q88.3 44.1 90.5 44.4Q92.7 44.7 93.7 45.6Q94.8 46.5 95.9 46.6Q97.1 46.8 95.8 45.1Q94.5 43.5 92.8 42.5Q91.2 41.5 86.5 40.9Q81.8 40.3 81.8 40.1ZM49.7 38.7Q49.7 38.5 51.8 39.3Q53.8 40 54.9 42.9Q55.9 45.9 58.4 45.6Q60.9 45.3 66.5 42.9Q72.1 40.6 75.5 40.4Q78.9 40.3 78.9 40.6Q78.9 40.9 75 41.2Q71.2 41.5 66.3 43.7Q61.5 45.9 58.4 46.3Q55.3 46.8 54.4 43.8Q53.5 40.9 51.6 39.8Q49.7 38.8 49.7 38.7ZM47.8 39Q47.9 38.8 48.5 39.1Q49.1 39.4 48.2 39.7Q47.3 40 46.6 40.9Q45.9 41.8 45.3 44.3Q44.7 46.8 41.6 46.3Q38.5 45.9 35 44.1Q31.4 42.3 28.9 41.6Q26.4 40.9 24.1 40.9Q21.7 40.9 21.7 40.6Q21.7 40.3 24.8 40.4Q27.9 40.6 33.4 42.9Q38.8 45.3 41.5 45.6Q44.1 45.9 44.8 43.4Q45.6 40.9 46.6 40Q47.6 39.1 47.8 39ZM11 40.1Q11.1 40 14.8 40Q18.5 40 18.5 40.3Q18.5 40.6 15.1 40.6Q11.7 40.6 10 41.2Q8.2 41.8 5.5 44.3Q2.9 46.8 3.6 46.8Q4.4 46.8 5.8 45.7Q7.3 44.7 9.2 44.6Q11.1 44.4 12.5 43.5Q13.8 42.6 14.4 42.9Q15 43.2 13.2 44.1Q11.4 45 9.7 45.1Q7.9 45.3 6.7 46.2Q5.5 47.1 4.1 47.2Q2.6 47.3 2.3 46.8Q2 46.2 3.3 44.7Q4.7 43.2 5.8 42.3Q7 41.5 8.9 40.9Q10.8 40.3 11 40.1ZM64 57.5Q64.1 57.4 64.9 57.2Q65.6 57.1 64.3 56.9Q63 56.8 63.5 56.2Q64.1 55.6 66 55.6Q68 55.6 69.9 56.2Q71.8 56.8 70 55.3Q68.3 53.8 66.2 53.7Q64.1 53.5 59 56.5Q53.8 59.4 51.2 59.7Q48.5 60 46.2 59.1Q43.8 58.2 40.7 56.2Q37.6 54.1 35.3 53.8Q32.9 53.5 31.3 54.3Q29.7 55 29.2 55.9Q28.8 56.8 30.4 56.2Q32 55.6 34 55.6Q35.9 55.6 36.5 56.2Q37 56.8 35.4 56.9Q33.8 57.1 34.2 57.7Q34.7 58.2 32.9 58.4Q31.2 58.5 31.7 57.7Q32.3 56.8 31.9 56.6Q31.4 56.5 29.4 57.5Q27.3 58.5 27.5 57.7Q27.6 56.8 27 56.6Q26.4 56.5 26.4 55.6Q26.4 54.7 25.9 54.4Q25.3 54.1 26.1 53.2Q27 52.4 27.6 52.8Q28.2 53.2 31 52.7Q33.8 52.1 36.6 53.2Q39.4 54.4 39.5 53.7Q39.7 52.9 35.9 51.8Q32 50.6 29.4 48.5Q26.7 46.5 24.4 46.2Q22 45.9 18.8 44.4Q15.5 42.9 18.9 44.1Q22.3 45.3 25.1 45.7Q27.9 46.2 30.6 48.2Q33.2 50.3 36.5 51Q39.7 51.8 40.9 53.4Q42 55 43.5 55.9Q45 56.8 46.8 57.5Q48.5 58.2 50 58.2Q51.5 58.2 55.2 56.2Q58.8 54.1 59.6 52.9Q60.3 51.8 63.5 51Q66.8 50.3 69.4 48.2Q72.1 46.2 74.9 45.7Q77.7 45.3 80.5 44.1Q83.3 42.9 84.7 42.8Q86.2 42.6 87.3 43.4Q88.3 44.1 90.5 44.4Q92.7 44.7 93.7 45.6Q94.8 46.5 95.9 46.6Q97.1 46.8 95.8 45.1Q94.5 43.5 92.8 42.5Q91.2 41.5 89.9 41Q88.6 40.6 85.2 40.6Q81.8 40.6 81.8 40.3Q81.8 40 85.3 40Q88.9 40 91.4 41Q93.9 42 95.9 44Q98 45.9 98 46.5Q98 47.1 96.7 47.2Q95.3 47.3 93.7 46.3Q92.1 45.3 90.3 45.1Q88.6 45 87.3 44.1Q85.9 43.2 82 44.6Q78 45.9 75.6 46.2Q73.3 46.5 70.9 48.4Q68.6 50.3 64.7 51.3Q60.9 52.4 60.5 53.1Q60 53.8 60.2 54.1Q60.3 54.4 62.8 53.7Q65.3 52.9 65.5 52.5Q65.6 52.1 67.2 52.1Q68.8 52.1 70.3 52.7Q71.8 53.2 72.4 52.8Q73 52.4 73.9 52.9Q74.7 53.5 74.7 54Q74.7 54.4 74.3 54.4Q73.9 54.4 73.7 55.4Q73.6 56.5 73 56.6Q72.4 56.8 72.5 57.7Q72.7 58.5 69.9 57.4Q67.1 56.2 68 56.9Q68.8 57.7 68.7 58.1Q68.6 58.5 67.2 58.4Q65.9 58.2 66.3 57.8Q66.8 57.4 66.2 57.2Q65.6 57.1 65.5 57.5Q65.3 58 63.8 58.1Q62.4 58.2 59 59.6Q55.6 60.9 54.3 61.2Q52.9 61.5 51.8 61.5Q50.6 61.5 50.6 61.2Q50.6 60.9 57.2 59.3Q63.8 57.7 64 57.5ZM35.3 57.5Q35.3 57.4 42.3 59.1Q49.4 60.9 49.4 61.2Q49.4 61.5 47.5 61.3Q45.6 61.2 40.4 59.4Q35.3 57.7 35.3 57.5Z"/></g></svg>
