<svg xmlns="http://www.w3.org/2000/svg" viewBox="0 0 100 100" role="img" aria-label="Backstroke swimmer">
  <defs><clipPath id="b__UID__"><path d="M64.90,44.81 L64.10,44.76 L63.31,44.72 L62.52,44.68 L61.73,44.64 L60.95,44.60 L60.17,44.56 L59.40,44.52 L58.62,44.49 L57.85,44.45 L57.09,44.42 L56.32,44.39 L55.56,44.36 L54.80,44.33 L54.04,44.31 L53.28,44.28 L52.52,44.27 L51.77,44.25 L51.02,44.24 L50.26,44.23 L49.51,44.23 L48.76,44.23 L48.01,44.24 L47.26,44.25 L46.51,44.27 L45.76,44.29 L45.01,44.32 L44.25,44.36 L43.50,44.40 L42.75,44.45 L42.03,44.50 L42.03,44.50 L40.60,44.68 L39.27,45.22 L38.13,46.09 L37.25,47.23 L36.69,48.55 L36.50,49.97 L36.68,51.40 L37.22,52.73 L38.09,53.87 L39.23,54.75 L40.55,55.31 L41.97,55.50 L41.97,55.50 L42.65,55.56 L43.30,55.63 L43.95,55.70 L44.60,55.78 L45.25,55.86 L45.91,55.95 L46.57,56.05 L47.23,56.15 L47.90,56.25 L48.56,56.36 L49.24,56.47 L49.91,56.59 L50.59,56.71 L51.28,56.84 L51.97,56.97 L52.67,57.10 L53.37,57.23 L54.07,57.37 L54.79,57.51 L55.51,57.66 L56.23,57.80 L56.97,57.95 L57.70,58.10 L58.45,58.25 L59.21,58.41 L59.97,58.56 L60.74,58.72 L61.52,58.88 L62.31,59.04 L63.10,59.19 L63.10,59.19 L64.99,59.18 L66.82,58.68 L68.45,57.72 L69.78,56.38 L70.71,54.73 L71.19,52.90 L71.18,51.01 L70.68,49.18 L69.72,47.55 L68.38,46.22 L66.73,45.29 L64.90,44.81 Z"/><path d="M41.79,45.19 L41.22,45.50 L40.67,45.80 L40.12,46.10 L39.59,46.39 L39.06,46.67 L38.54,46.95 L38.03,47.22 L37.53,47.49 L37.03,47.74 L36.54,47.99 L36.05,48.24 L35.57,48.47 L35.10,48.70 L34.62,48.92 L34.15,49.13 L33.69,49.34 L33.22,49.53 L32.76,49.72 L32.30,49.90 L31.83,50.07 L31.37,50.23 L30.90,50.38 L30.43,50.52 L29.96,50.66 L29.48,50.78 L29.00,50.90 L28.51,51.00 L28.02,51.09 L27.51,51.18 L26.96,51.25 L26.96,51.25 L25.99,51.39 L25.09,51.77 L24.32,52.38 L23.73,53.16 L23.37,54.07 L23.25,55.04 L23.39,56.01 L23.77,56.91 L24.38,57.68 L25.16,58.27 L26.07,58.63 L27.04,58.75 L27.04,58.75 L27.68,58.81 L28.36,58.85 L29.03,58.88 L29.70,58.90 L30.37,58.90 L31.03,58.89 L31.69,58.86 L32.35,58.82 L33.00,58.77 L33.65,58.71 L34.29,58.64 L34.94,58.55 L35.58,58.46 L36.21,58.36 L36.85,58.24 L37.48,58.12 L38.11,57.99 L38.73,57.86 L39.36,57.71 L39.98,57.56 L40.60,57.40 L41.22,57.24 L41.85,57.08 L42.47,56.91 L43.09,56.73 L43.71,56.55 L44.33,56.37 L44.96,56.18 L45.58,56.00 L46.21,55.81 L46.21,55.81 L47.51,55.06 L48.57,53.99 L49.32,52.69 L49.70,51.24 L49.70,49.74 L49.31,48.29 L48.56,46.99 L47.49,45.93 L46.19,45.18 L44.74,44.80 L43.24,44.80 L41.79,45.19 Z"/><path d="M27.05,51.25 L26.59,51.33 L26.17,51.39 L25.73,51.45 L25.28,51.50 L24.82,51.53 L24.34,51.55 L23.86,51.56 L23.36,51.56 L22.85,51.55 L22.33,51.52 L21.80,51.49 L21.26,51.44 L20.72,51.38 L20.16,51.31 L19.60,51.23 L19.03,51.14 L18.46,51.04 L17.88,50.93 L17.29,50.81 L16.70,50.68 L16.10,50.54 L15.50,50.39 L14.89,50.23 L14.28,50.06 L13.67,49.89 L13.05,49.70 L12.43,49.51 L11.81,49.31 L11.19,49.10 L10.55,48.88 L10.55,48.88 L10.25,48.77 L9.92,48.75 L9.60,48.82 L9.31,48.96 L9.06,49.17 L8.88,49.45 L8.77,49.75 L8.75,50.08 L8.82,50.40 L8.96,50.69 L9.17,50.94 L9.45,51.12 L9.45,51.12 L10.01,51.49 L10.59,51.86 L11.17,52.23 L11.74,52.59 L12.32,52.94 L12.90,53.28 L13.48,53.62 L14.06,53.94 L14.64,54.27 L15.23,54.58 L15.81,54.88 L16.39,55.18 L16.98,55.47 L17.56,55.75 L18.15,56.02 L18.73,56.28 L19.32,56.53 L19.90,56.77 L20.49,57.00 L21.08,57.22 L21.66,57.43 L22.25,57.63 L22.84,57.81 L23.43,57.99 L24.02,58.15 L24.62,58.30 L25.21,58.43 L25.80,58.55 L26.40,58.66 L26.95,58.75 L26.95,58.75 L27.92,58.63 L28.83,58.27 L29.62,57.69 L30.22,56.92 L30.61,56.02 L30.75,55.05 L30.63,54.08 L30.27,53.17 L29.69,52.38 L28.92,51.78 L28.02,51.39 L27.05,51.25 Z"/><path d="M45.57,45.25 L44.93,45.11 L44.29,44.98 L43.65,44.84 L43.02,44.72 L42.39,44.60 L41.77,44.49 L41.15,44.39 L40.54,44.30 L39.93,44.21 L39.33,44.12 L38.73,44.05 L38.13,43.98 L37.54,43.92 L36.96,43.87 L36.37,43.82 L35.79,43.78 L35.22,43.75 L34.65,43.72 L34.08,43.71 L33.51,43.70 L32.95,43.69 L32.39,43.70 L31.83,43.71 L31.28,43.73 L30.73,43.76 L30.18,43.79 L29.63,43.83 L29.08,43.88 L28.54,43.94 L28.02,44.00 L28.02,44.00 L27.24,44.10 L26.52,44.39 L25.89,44.86 L25.41,45.48 L25.11,46.20 L25.00,46.98 L25.10,47.76 L25.39,48.48 L25.86,49.11 L26.48,49.59 L27.20,49.89 L27.98,50.00 L27.98,50.00 L28.46,50.07 L28.92,50.15 L29.37,50.23 L29.83,50.32 L30.28,50.41 L30.74,50.51 L31.19,50.62 L31.65,50.73 L32.11,50.85 L32.56,50.97 L33.02,51.10 L33.48,51.24 L33.94,51.38 L34.41,51.53 L34.88,51.68 L35.35,51.84 L35.82,52.01 L36.30,52.18 L36.78,52.36 L37.27,52.54 L37.76,52.73 L38.25,52.93 L38.75,53.14 L39.26,53.35 L39.77,53.56 L40.29,53.79 L40.81,54.02 L41.34,54.25 L41.88,54.49 L42.43,54.75 L42.43,54.75 L43.72,54.99 L45.02,54.90 L46.25,54.46 L47.33,53.73 L48.18,52.74 L48.75,51.57 L48.99,50.28 L48.90,48.98 L48.46,47.75 L47.73,46.67 L46.74,45.82 L45.57,45.25 Z"/><path d="M27.49,44.04 L26.88,44.21 L26.27,44.38 L25.66,44.56 L25.06,44.75 L24.46,44.95 L23.87,45.15 L23.29,45.36 L22.72,45.57 L22.15,45.79 L21.59,46.02 L21.03,46.26 L20.48,46.50 L19.94,46.75 L19.40,47.00 L18.87,47.26 L18.34,47.53 L17.82,47.81 L17.30,48.09 L16.79,48.37 L16.28,48.67 L15.77,48.96 L15.27,49.27 L14.77,49.58 L14.27,49.90 L13.78,50.22 L13.29,50.55 L12.81,50.89 L12.32,51.23 L11.84,51.57 L11.36,51.92 L11.36,51.92 L11.11,52.13 L10.91,52.39 L10.79,52.69 L10.75,53.01 L10.80,53.34 L10.92,53.64 L11.13,53.89 L11.39,54.09 L11.69,54.21 L12.01,54.25 L12.34,54.20 L12.64,54.08 L12.64,54.08 L13.16,53.83 L13.68,53.60 L14.20,53.37 L14.71,53.16 L15.23,52.95 L15.74,52.74 L16.26,52.55 L16.77,52.36 L17.28,52.18 L17.80,52.00 L18.31,51.83 L18.83,51.67 L19.35,51.52 L19.86,51.37 L20.38,51.24 L20.90,51.10 L21.42,50.98 L21.95,50.86 L22.47,50.75 L23.00,50.64 L23.54,50.55 L24.07,50.45 L24.61,50.37 L25.15,50.29 L25.70,50.22 L26.25,50.16 L26.80,50.10 L27.36,50.04 L27.92,50.00 L28.51,49.96 L28.51,49.96 L29.26,49.72 L29.92,49.30 L30.45,48.73 L30.82,48.03 L30.99,47.27 L30.96,46.49 L30.72,45.74 L30.30,45.08 L29.73,44.55 L29.03,44.18 L28.27,44.01 L27.49,44.04 Z"/><path d="M68.21,53.14 L68.77,52.29 L69.32,51.44 L69.86,50.60 L70.39,49.76 L70.90,48.93 L71.40,48.12 L71.89,47.31 L72.37,46.50 L72.83,45.71 L73.29,44.92 L73.74,44.14 L74.17,43.37 L74.60,42.61 L75.02,41.86 L75.43,41.12 L75.83,40.38 L76.23,39.65 L76.62,38.93 L77.00,38.22 L77.38,37.52 L77.75,36.82 L78.11,36.14 L78.47,35.46 L78.83,34.79 L79.18,34.13 L79.53,33.47 L79.88,32.83 L80.23,32.19 L80.57,31.56 L80.92,30.93 L80.92,30.93 L81.32,30.11 L81.49,29.22 L81.43,28.31 L81.13,27.44 L80.62,26.68 L79.93,26.08 L79.11,25.68 L78.22,25.51 L77.31,25.57 L76.44,25.87 L75.68,26.38 L75.08,27.07 L75.08,27.07 L74.63,27.64 L74.17,28.23 L73.71,28.83 L73.26,29.43 L72.80,30.04 L72.34,30.65 L71.88,31.27 L71.41,31.89 L70.95,32.52 L70.48,33.15 L70.00,33.79 L69.53,34.43 L69.05,35.07 L68.56,35.73 L68.07,36.38 L67.57,37.05 L67.07,37.71 L66.56,38.39 L66.05,39.06 L65.52,39.74 L64.99,40.43 L64.46,41.12 L63.91,41.82 L63.35,42.52 L62.79,43.23 L62.21,43.94 L61.62,44.66 L61.03,45.39 L60.42,46.12 L59.79,46.86 L59.79,46.86 L59.12,48.06 L58.79,49.39 L58.81,50.76 L59.18,52.08 L59.88,53.26 L60.86,54.21 L62.06,54.88 L63.39,55.21 L64.76,55.19 L66.08,54.82 L67.26,54.12 L68.21,53.14 Z"/><path d="M80.92,30.93 L81.08,30.60 L81.25,30.26 L81.41,29.93 L81.57,29.59 L81.73,29.25 L81.87,28.90 L82.02,28.56 L82.15,28.21 L82.28,27.85 L82.40,27.49 L82.51,27.13 L82.62,26.76 L82.71,26.38 L82.78,26.00 L82.85,25.62 L82.90,25.23 L82.94,24.83 L82.96,24.44 L82.97,24.04 L82.96,23.64 L82.94,23.23 L82.90,22.83 L82.85,22.42 L82.78,22.01 L82.70,21.60 L82.60,21.18 L82.49,20.76 L82.37,20.34 L82.24,19.91 L82.09,19.50 L82.09,19.50 L81.89,18.98 L81.56,18.52 L81.13,18.17 L80.62,17.94 L80.06,17.85 L79.50,17.91 L78.98,18.11 L78.52,18.44 L78.17,18.87 L77.94,19.38 L77.85,19.94 L77.91,20.50 L77.91,20.50 L77.95,20.87 L77.98,21.21 L77.99,21.52 L77.99,21.82 L77.98,22.10 L77.95,22.36 L77.92,22.60 L77.88,22.83 L77.83,23.05 L77.78,23.25 L77.71,23.44 L77.64,23.63 L77.57,23.80 L77.49,23.97 L77.40,24.13 L77.31,24.29 L77.20,24.46 L77.10,24.62 L76.98,24.78 L76.86,24.95 L76.72,25.13 L76.58,25.31 L76.43,25.49 L76.27,25.69 L76.10,25.89 L75.92,26.11 L75.72,26.33 L75.52,26.56 L75.31,26.80 L75.08,27.07 L75.08,27.07 L74.68,27.89 L74.51,28.78 L74.57,29.70 L74.87,30.56 L75.38,31.32 L76.07,31.92 L76.89,32.32 L77.78,32.49 L78.70,32.43 L79.56,32.13 L80.32,31.62 L80.92,30.93 Z"/><path d="M59.80,56.84 L60.44,57.30 L61.07,57.75 L61.70,58.19 L62.33,58.63 L62.95,59.07 L63.57,59.49 L64.19,59.92 L64.80,60.33 L65.41,60.74 L66.02,61.15 L66.63,61.55 L67.24,61.94 L67.85,62.33 L68.46,62.71 L69.07,63.09 L69.69,63.46 L70.30,63.82 L70.91,64.17 L71.53,64.52 L72.15,64.87 L72.77,65.20 L73.39,65.53 L74.02,65.85 L74.66,66.17 L75.29,66.48 L75.93,66.78 L76.58,67.07 L77.23,67.36 L77.88,67.64 L78.53,67.90 L78.53,67.90 L79.33,68.18 L80.17,68.25 L81.01,68.09 L81.77,67.72 L82.42,67.17 L82.90,66.47 L83.18,65.67 L83.25,64.83 L83.09,63.99 L82.72,63.23 L82.17,62.58 L81.47,62.10 L81.47,62.10 L80.92,61.76 L80.40,61.42 L79.88,61.07 L79.36,60.72 L78.86,60.36 L78.35,59.99 L77.85,59.62 L77.36,59.24 L76.86,58.86 L76.37,58.47 L75.88,58.07 L75.39,57.67 L74.90,57.26 L74.41,56.84 L73.93,56.41 L73.44,55.98 L72.94,55.54 L72.45,55.10 L71.96,54.64 L71.46,54.18 L70.95,53.72 L70.45,53.24 L69.94,52.76 L69.42,52.27 L68.90,51.77 L68.37,51.26 L67.84,50.75 L67.30,50.23 L66.76,49.70 L66.20,49.16 L66.20,49.16 L65.09,48.46 L63.85,48.07 L62.54,48.02 L61.27,48.31 L60.12,48.92 L59.16,49.80 L58.46,50.91 L58.07,52.15 L58.02,53.46 L58.31,54.73 L58.92,55.88 L59.80,56.84 Z"/><path d="M78.22,67.72 L78.56,67.89 L78.93,68.08 L79.30,68.25 L79.67,68.42 L80.04,68.58 L80.41,68.73 L80.79,68.88 L81.16,69.02 L81.54,69.15 L81.92,69.27 L82.30,69.39 L82.69,69.49 L83.07,69.59 L83.46,69.68 L83.85,69.76 L84.25,69.83 L84.64,69.90 L85.04,69.95 L85.44,70.00 L85.84,70.04 L86.24,70.07 L86.65,70.09 L87.06,70.11 L87.47,70.12 L87.88,70.12 L88.30,70.11 L88.72,70.09 L89.14,70.07 L89.57,70.04 L89.98,70.00 L89.98,70.00 L90.50,69.94 L90.99,69.74 L91.40,69.43 L91.72,69.01 L91.93,68.53 L92.00,68.02 L91.94,67.50 L91.74,67.01 L91.43,66.60 L91.01,66.28 L90.53,66.07 L90.02,66.00 L90.02,66.00 L89.64,65.96 L89.28,65.90 L88.94,65.85 L88.60,65.79 L88.28,65.72 L87.96,65.64 L87.65,65.56 L87.34,65.48 L87.05,65.39 L86.76,65.29 L86.47,65.19 L86.19,65.09 L85.92,64.98 L85.66,64.86 L85.40,64.74 L85.14,64.62 L84.89,64.48 L84.64,64.35 L84.40,64.21 L84.15,64.06 L83.91,63.91 L83.68,63.75 L83.44,63.59 L83.21,63.43 L82.97,63.25 L82.74,63.07 L82.50,62.89 L82.27,62.70 L82.04,62.50 L81.78,62.28 L81.78,62.28 L81.02,61.91 L80.18,61.76 L79.34,61.82 L78.54,62.10 L77.84,62.58 L77.28,63.22 L76.91,63.98 L76.76,64.82 L76.82,65.66 L77.10,66.46 L77.58,67.16 L78.22,67.72 Z"/><path d="M74.50,29.00 a3.50,3.50 0 1,0 7.00,0 a3.50,3.50 0 1,0 -7.00,0 Z"/><path d="M76.60,65.00 a3.40,3.40 0 1,0 6.80,0 a3.40,3.40 0 1,0 -6.80,0 Z"/><path d="M23.60,55.00 a3.40,3.40 0 1,0 6.80,0 a3.40,3.40 0 1,0 -6.80,0 Z"/><path d="M59.40,51.00 a8.60,8.60 0 1,0 17.20,0 a8.60,8.60 0 1,0 -17.20,0 Z"/></clipPath></defs>
  <path d="M2 56 Q14 50 26 56 T50 56 T98 56" fill="none" stroke="__OUTLINE__" stroke-width="3" stroke-linecap="round" transform="translate(0,8)"/>
  <g fill="__ACCENT__"><path d="M64.90,44.81 L64.10,44.76 L63.31,44.72 L62.52,44.68 L61.73,44.64 L60.95,44.60 L60.17,44.56 L59.40,44.52 L58.62,44.49 L57.85,44.45 L57.09,44.42 L56.32,44.39 L55.56,44.36 L54.80,44.33 L54.04,44.31 L53.28,44.28 L52.52,44.27 L51.77,44.25 L51.02,44.24 L50.26,44.23 L49.51,44.23 L48.76,44.23 L48.01,44.24 L47.26,44.25 L46.51,44.27 L45.76,44.29 L45.01,44.32 L44.25,44.36 L43.50,44.40 L42.75,44.45 L42.03,44.50 L42.03,44.50 L40.60,44.68 L39.27,45.22 L38.13,46.09 L37.25,47.23 L36.69,48.55 L36.50,49.97 L36.68,51.40 L37.22,52.73 L38.09,53.87 L39.23,54.75 L40.55,55.31 L41.97,55.50 L41.97,55.50 L42.65,55.56 L43.30,55.63 L43.95,55.70 L44.60,55.78 L45.25,55.86 L45.91,55.95 L46.57,56.05 L47.23,56.15 L47.90,56.25 L48.56,56.36 L49.24,56.47 L49.91,56.59 L50.59,56.71 L51.28,56.84 L51.97,56.97 L52.67,57.10 L53.37,57.23 L54.07,57.37 L54.79,57.51 L55.51,57.66 L56.23,57.80 L56.97,57.95 L57.70,58.10 L58.45,58.25 L59.21,58.41 L59.97,58.56 L60.74,58.72 L61.52,58.88 L62.31,59.04 L63.10,59.19 L63.10,59.19 L64.99,59.18 L66.82,58.68 L68.45,57.72 L69.78,56.38 L70.71,54.73 L71.19,52.90 L71.18,51.01 L70.68,49.18 L69.72,47.55 L68.38,46.22 L66.73,45.29 L64.90,44.81 Z"/><path d="M41.79,45.19 L41.22,45.50 L40.67,45.80 L40.12,46.10 L39.59,46.39 L39.06,46.67 L38.54,46.95 L38.03,47.22 L37.53,47.49 L37.03,47.74 L36.54,47.99 L36.05,48.24 L35.57,48.47 L35.10,48.70 L34.62,48.92 L34.15,49.13 L33.69,49.34 L33.22,49.53 L32.76,49.72 L32.30,49.90 L31.83,50.07 L31.37,50.23 L30.90,50.38 L30.43,50.52 L29.96,50.66 L29.48,50.78 L29.00,50.90 L28.51,51.00 L28.02,51.09 L27.51,51.18 L26.96,51.25 L26.96,51.25 L25.99,51.39 L25.09,51.77 L24.32,52.38 L23.73,53.16 L23.37,54.07 L23.25,55.04 L23.39,56.01 L23.77,56.91 L24.38,57.68 L25.16,58.27 L26.07,58.63 L27.04,58.75 L27.04,58.75 L27.68,58.81 L28.36,58.85 L29.03,58.88 L29.70,58.90 L30.37,58.90 L31.03,58.89 L31.69,58.86 L32.35,58.82 L33.00,58.77 L33.65,58.71 L34.29,58.64 L34.94,58.55 L35.58,58.46 L36.21,58.36 L36.85,58.24 L37.48,58.12 L38.11,57.99 L38.73,57.86 L39.36,57.71 L39.98,57.56 L40.60,57.40 L41.22,57.24 L41.85,57.08 L42.47,56.91 L43.09,56.73 L43.71,56.55 L44.33,56.37 L44.96,56.18 L45.58,56.00 L46.21,55.81 L46.21,55.81 L47.51,55.06 L48.57,53.99 L49.32,52.69 L49.70,51.24 L49.70,49.74 L49.31,48.29 L48.56,46.99 L47.49,45.93 L46.19,45.18 L44.74,44.80 L43.24,44.80 L41.79,45.19 Z"/><path d="M27.05,51.25 L26.59,51.33 L26.17,51.39 L25.73,51.45 L25.28,51.50 L24.82,51.53 L24.34,51.55 L23.86,51.56 L23.36,51.56 L22.85,51.55 L22.33,51.52 L21.80,51.49 L21.26,51.44 L20.72,51.38 L20.16,51.31 L19.60,51.23 L19.03,51.14 L18.46,51.04 L17.88,50.93 L17.29,50.81 L16.70,50.68 L16.10,50.54 L15.50,50.39 L14.89,50.23 L14.28,50.06 L13.67,49.89 L13.05,49.70 L12.43,49.51 L11.81,49.31 L11.19,49.10 L10.55,48.88 L10.55,48.88 L10.25,48.77 L9.92,48.75 L9.60,48.82 L9.31,48.96 L9.06,49.17 L8.88,49.45 L8.77,49.75 L8.75,50.08 L8.82,50.40 L8.96,50.69 L9.17,50.94 L9.45,51.12 L9.45,51.12 L10.01,51.49 L10.59,51.86 L11.17,52.23 L11.74,52.59 L12.32,52.94 L12.90,53.28 L13.48,53.62 L14.06,53.94 L14.64,54.27 L15.23,54.58 L15.81,54.88 L16.39,55.18 L16.98,55.47 L17.56,55.75 L18.15,56.02 L18.73,56.28 L19.32,56.53 L19.90,56.77 L20.49,57.00 L21.08,57.22 L21.66,57.43 L22.25,57.63 L22.84,57.81 L23.43,57.99 L24.02,58.15 L24.62,58.30 L25.21,58.43 L25.80,58.55 L26.40,58.66 L26.95,58.75 L26.95,58.75 L27.92,58.63 L28.83,58.27 L29.62,57.69 L30.22,56.92 L30.61,56.02 L30.75,55.05 L30.63,54.08 L30.27,53.17 L29.69,52.38 L28.92,51.78 L28.02,51.39 L27.05,51.25 Z"/><path d="M45.57,45.25 L44.93,45.11 L44.29,44.98 L43.65,44.84 L43.02,44.72 L42.39,44.60 L41.77,44.49 L41.15,44.39 L40.54,44.30 L39.93,44.21 L39.33,44.12 L38.73,44.05 L38.13,43.98 L37.54,43.92 L36.96,43.87 L36.37,43.82 L35.79,43.78 L35.22,43.75 L34.65,43.72 L34.08,43.71 L33.51,43.70 L32.95,43.69 L32.39,43.70 L31.83,43.71 L31.28,43.73 L30.73,43.76 L30.18,43.79 L29.63,43.83 L29.08,43.88 L28.54,43.94 L28.02,44.00 L28.02,44.00 L27.24,44.10 L26.52,44.39 L25.89,44.86 L25.41,45.48 L25.11,46.20 L25.00,46.98 L25.10,47.76 L25.39,48.48 L25.86,49.11 L26.48,49.59 L27.20,49.89 L27.98,50.00 L27.98,50.00 L28.46,50.07 L28.92,50.15 L29.37,50.23 L29.83,50.32 L30.28,50.41 L30.74,50.51 L31.19,50.62 L31.65,50.73 L32.11,50.85 L32.56,50.97 L33.02,51.10 L33.48,51.24 L33.94,51.38 L34.41,51.53 L34.88,51.68 L35.35,51.84 L35.82,52.01 L36.30,52.18 L36.78,52.36 L37.27,52.54 L37.76,52.73 L38.25,52.93 L38.75,53.14 L39.26,53.35 L39.77,53.56 L40.29,53.79 L40.81,54.02 L41.34,54.25 L41.88,54.49 L42.43,54.75 L42.43,54.75 L43.72,54.99 L45.02,54.90 L46.25,54.46 L47.33,53.73 L48.18,52.74 L48.75,51.57 L48.99,50.28 L48.90,48.98 L48.46,47.75 L47.73,46.67 L46.74,45.82 L45.57,45.25 Z"/><path d="M27.49,44.04 L26.88,44.21 L26.27,44.38 L25.66,44.56 L25.06,44.75 L24.46,44.95 L23.87,45.15 L23.29,45.36 L22.72,45.57 L22.15,45.79 L21.59,46.02 L21.03,46.26 L20.48,46.50 L19.94,46.75 L19.40,47.00 L18.87,47.26 L18.34,47.53 L17.82,47.81 L17.30,48.09 L16.79,48.37 L16.28,48.67 L15.77,48.96 L15.27,49.27 L14.77,49.58 L14.27,49.90 L13.78,50.22 L13.29,50.55 L12.81,50.89 L12.32,51.23 L11.84,51.57 L11.36,51.92 L11.36,51.92 L11.11,52.13 L10.91,52.39 L10.79,52.69 L10.75,53.01 L10.80,53.34 L10.92,53.64 L11.13,53.89 L11.39,54.09 L11.69,54.21 L12.01,54.25 L12.34,54.20 L12.64,54.08 L12.64,54.08 L13.16,53.83 L13.68,53.60 L14.20,53.37 L14.71,53.16 L15.23,52.95 L15.74,52.74 L16.26,52.55 L16.77,52.36 L17.28,52.18 L17.80,52.00 L18.31,51.83 L18.83,51.67 L19.35,51.52 L19.86,51.37 L20.38,51.24 L20.90,51.10 L21.42,50.98 L21.95,50.86 L22.47,50.75 L23.00,50.64 L23.54,50.55 L24.07,50.45 L24.61,50.37 L25.15,50.29 L25.70,50.22 L26.25,50.16 L26.80,50.10 L27.36,50.04 L27.92,50.00 L28.51,49.96 L28.51,49.96 L29.26,49.72 L29.92,49.30 L30.45,48.73 L30.82,48.03 L30.99,47.27 L30.96,46.49 L30.72,45.74 L30.30,45.08 L29.73,44.55 L29.03,44.18 L28.27,44.01 L27.49,44.04 Z"/><path d="M68.21,53.14 L68.77,52.29 L69.32,51.44 L69.86,50.60 L70.39,49.76 L70.90,48.93 L71.40,48.12 L71.89,47.31 L72.37,46.50 L72.83,45.71 L73.29,44.92 L73.74,44.14 L74.17,43.37 L74.60,42.61 L75.02,41.86 L75.43,41.12 L75.83,40.38 L76.23,39.65 L76.62,38.93 L77.00,38.22 L77.38,37.52 L77.75,36.82 L78.11,36.14 L78.47,35.46 L78.83,34.79 L79.18,34.13 L79.53,33.47 L79.88,32.83 L80.23,32.19 L80.57,31.56 L80.92,30.93 L80.92,30.93 L81.32,30.11 L81.49,29.22 L81.43,28.31 L81.13,27.44 L80.62,26.68 L79.93,26.08 L79.11,25.68 L78.22,25.51 L77.31,25.57 L76.44,25.87 L75.68,26.38 L75.08,27.07 L75.08,27.07 L74.63,27.64 L74.17,28.23 L73.71,28.83 L73.26,29.43 L72.80,30.04 L72.34,30.65 L71.88,31.27 L71.41,31.89 L70.95,32.52 L70.48,33.15 L70.00,33.79 L69.53,34.43 L69.05,35.07 L68.56,35.73 L68.07,36.38 L67.57,37.05 L67.07,37.71 L66.56,38.39 L66.05,39.06 L65.52,39.74 L64.99,40.43 L64.46,41.12 L63.91,41.82 L63.35,42.52 L62.79,43.23 L62.21,43.94 L61.62,44.66 L61.03,45.39 L60.42,46.12 L59.79,46.86 L59.79,46.86 L59.12,48.06 L58.79,49.39 L58.81,50.76 L59.18,52.08 L59.88,53.26 L60.86,54.21 L62.06,54.88 L63.39,55.21 L64.76,55.19 L66.08,54.82 L67.26,54.12 L68.21,53.14 Z"/><path d="M80.92,30.93 L81.08,30.60 L81.25,30.26 L81.41,29.93 L81.57,29.59 L81.73,29.25 L81.87,28.90 L82.02,28.56 L82.15,28.21 L82.28,27.85 L82.40,27.49 L82.51,27.13 L82.62,26.76 L82.71,26.38 L82.78,26.00 L82.85,25.62 L82.90,25.23 L82.94,24.83 L82.96,24.44 L82.97,24.04 L82.96,23.64 L82.94,23.23 L82.90,22.83 L82.85,22.42 L82.78,22.01 L82.70,21.60 L82.60,21.18 L82.49,20.76 L82.37,20.34 L82.24,19.91 L82.09,19.50 L82.09,19.50 L81.89,18.98 L81.56,18.52 L81.13,18.17 L80.62,17.94 L80.06,17.85 L79.50,17.91 L78.98,18.11 L78.52,18.44 L78.17,18.87 L77.94,19.38 L77.85,19.94 L77.91,20.50 L77.91,20.50 L77.95,20.87 L77.98,21.21 L77.99,21.52 L77.99,21.82 L77.98,22.10 L77.95,22.36 L77.92,22.60 L77.88,22.83 L77.83,23.05 L77.78,23.25 L77.71,23.44 L77.64,23.63 L77.57,23.80 L77.49,23.97 L77.40,24.13 L77.31,24.29 L77.20,24.46 L77.10,24.62 L76.98,24.78 L76.86,24.95 L76.72,25.13 L76.58,25.31 L76.43,25.49 L76.27,25.69 L76.10,25.89 L75.92,26.11 L75.72,26.33 L75.52,26.56 L75.31,26.80 L75.08,27.07 L75.08,27.07 L74.68,27.89 L74.51,28.78 L74.57,29.70 L74.87,30.56 L75.38,31.32 L76.07,31.92 L76.89,32.32 L77.78,32.49 L78.70,32.43 L79.56,32.13 L80.32,31.62 L80.92,30.93 Z"/><path d="M59.80,56.84 L60.44,57.30 L61.07,57.75 L61.70,58.19 L62.33,58.63 L62.95,59.07 L63.57,59.49 L64.19,59.92 L64.80,60.33 L65.41,60.74 L66.02,61.15 L66.63,61.55 L67.24,61.94 L67.85,62.33 L68.46,62.71 L69.07,63.09 L69.69,63.46 L70.30,63.82 L70.91,64.17 L71.53,64.52 L72.15,64.87 L72.77,65.20 L73.39,65.53 L74.02,65.85 L74.66,66.17 L75.29,66.48 L75.93,66.78 L76.58,67.07 L77.23,67.36 L77.88,67.64 L78.53,67.90 L78.53,67.90 L79.33,68.18 L80.17,68.25 L81.01,68.09 L81.77,67.72 L82.42,67.17 L82.90,66.47 L83.18,65.67 L83.25,64.83 L83.09,63.99 L82.72,63.23 L82.17,62.58 L81.47,62.10 L81.47,62.10 L80.92,61.76 L80.40,61.42 L79.88,61.07 L79.36,60.72 L78.86,60.36 L78.35,59.99 L77.85,59.62 L77.36,59.24 L76.86,58.86 L76.37,58.47 L75.88,58.07 L75.39,57.67 L74.90,57.26 L74.41,56.84 L73.93,56.41 L73.44,55.98 L72.94,55.54 L72.45,55.10 L71.96,54.64 L71.46,54.18 L70.95,53.72 L70.45,53.24 L69.94,52.76 L69.42,52.27 L68.90,51.77 L68.37,51.26 L67.84,50.75 L67.30,50.23 L66.76,49.70 L66.20,49.16 L66.20,49.16 L65.09,48.46 L63.85,48.07 L62.54,48.02 L61.27,48.31 L60.12,48.92 L59.16,49.80 L58.46,50.91 L58.07,52.15 L58.02,53.46 L58.31,54.73 L58.92,55.88 L59.80,56.84 Z"/><path d="M78.22,67.72 L78.56,67.89 L78.93,68.08 L79.30,68.25 L79.67,68.42 L80.04,68.58 L80.41,68.73 L80.79,68.88 L81.16,69.02 L81.54,69.15 L81.92,69.27 L82.30,69.39 L82.69,69.49 L83.07,69.59 L83.46,69.68 L83.85,69.76 L84.25,69.83 L84.64,69.90 L85.04,69.95 L85.44,70.00 L85.84,70.04 L86.24,70.07 L86.65,70.09 L87.06,70.11 L87.47,70.12 L87.88,70.12 L88.30,70.11 L88.72,70.09 L89.14,70.07 L89.57,70.04 L89.98,70.00 L89.98,70.00 L90.50,69.94 L90.99,69.74 L91.40,69.43 L91.72,69.01 L91.93,68.53 L92.00,68.02 L91.94,67.50 L91.74,67.01 L91.43,66.60 L91.01,66.28 L90.53,66.07 L90.02,66.00 L90.02,66.00 L89.64,65.96 L89.28,65.90 L88.94,65.85 L88.60,65.79 L88.28,65.72 L87.96,65.64 L87.65,65.56 L87.34,65.48 L87.05,65.39 L86.76,65.29 L86.47,65.19 L86.19,65.09 L85.92,64.98 L85.66,64.86 L85.40,64.74 L85.14,64.62 L84.89,64.48 L84.64,64.35 L84.40,64.21 L84.15,64.06 L83.91,63.91 L83.68,63.75 L83.44,63.59 L83.21,63.43 L82.97,63.25 L82.74,63.07 L82.50,62.89 L82.27,62.70 L82.04,62.50 L81.78,62.28 L81.78,62.28 L81.02,61.91 L80.18,61.76 L79.34,61.82 L78.54,62.10 L77.84,62.58 L77.28,63.22 L76.91,63.98 L76.76,64.82 L76.82,65.66 L77.10,66.46 L77.58,67.16 L78.22,67.72 Z"/><path d="M74.50,29.00 a3.50,3.50 0 1,0 7.00,0 a3.50,3.50 0 1,0 -7.00,0 Z"/><path d="M76.60,65.00 a3.40,3.40 0 1,0 6.80,0 a3.40,3.40 0 1,0 -6.80,0 Z"/><path d="M23.60,55.00 a3.40,3.40 0 1,0 6.80,0 a3.40,3.40 0 1,0 -6.80,0 Z"/><path d="M59.40,51.00 a8.60,8.60 0 1,0 17.20,0 a8.60,8.60 0 1,0 -17.20,0 Z"/></g>
  <g clip-path="url(#b__UID__)"><rect x="0" y="56" width="100" height="44" fill="__GROUND__" opacity="0.24"/></g>
  <path d="M2 56 Q14 50 26 56 T50 56 T98 56" fill="none" stroke="__ACCENT__" stroke-width="3.2" stroke-linecap="round"/>
  <g fill="__ACCENT__" opacity="0.85"><circle cx="10" cy="50" r="1.6"/><circle cx="12" cy="53" r="1.6"/><circle cx="90" cy="68" r="1.6"/></g>
</svg>
