<svg xmlns="http://www.w3.org/2000/svg" viewBox="0 0 100 100" role="img" aria-label="Freestyle swimmer">
  <defs><clipPath id="b__UID__"><path d="M60.89,41.80 L60.15,42.09 L59.37,42.40 L58.60,42.72 L57.82,43.05 L57.06,43.38 L56.29,43.72 L55.53,44.07 L54.77,44.42 L54.02,44.78 L53.26,45.14 L52.51,45.50 L51.76,45.86 L51.02,46.22 L50.27,46.58 L49.53,46.94 L48.79,47.30 L48.05,47.65 L47.31,48.00 L46.58,48.35 L45.84,48.69 L45.11,49.03 L44.38,49.36 L43.66,49.68 L42.94,49.99 L42.22,50.30 L41.50,50.59 L40.79,50.88 L40.08,51.15 L39.37,51.41 L38.63,51.67 L38.63,51.67 L37.29,52.21 L36.15,53.08 L35.26,54.21 L34.70,55.53 L34.50,56.95 L34.67,58.37 L35.21,59.71 L36.08,60.85 L37.21,61.74 L38.53,62.30 L39.95,62.50 L41.37,62.33 L41.37,62.33 L42.23,62.17 L43.12,62.00 L44.01,61.81 L44.90,61.61 L45.78,61.41 L46.65,61.19 L47.52,60.97 L48.38,60.74 L49.23,60.51 L50.08,60.27 L50.93,60.03 L51.76,59.79 L52.59,59.55 L53.41,59.30 L54.22,59.06 L55.02,58.82 L55.82,58.58 L56.60,58.35 L57.38,58.12 L58.14,57.90 L58.90,57.69 L59.64,57.48 L60.37,57.28 L61.08,57.09 L61.79,56.91 L62.47,56.75 L63.15,56.59 L63.80,56.45 L64.44,56.32 L65.11,56.20 L65.11,56.20 L66.90,55.40 L68.43,54.18 L69.58,52.59 L70.29,50.77 L70.50,48.82 L70.20,46.89 L69.40,45.10 L68.18,43.57 L66.59,42.42 L64.77,41.71 L62.82,41.50 L60.89,41.80 Z"/><path d="M39.35,51.12 L38.90,51.41 L38.47,51.69 L38.04,51.97 L37.60,52.25 L37.15,52.52 L36.69,52.79 L36.23,53.06 L35.76,53.32 L35.29,53.58 L34.81,53.84 L34.33,54.10 L33.85,54.35 L33.36,54.60 L32.88,54.84 L32.39,55.08 L31.90,55.32 L31.41,55.55 L30.91,55.77 L30.42,55.99 L29.94,56.21 L29.45,56.42 L28.96,56.63 L28.48,56.83 L28.00,57.02 L27.52,57.22 L27.05,57.40 L26.58,57.58 L26.12,57.75 L25.67,57.92 L25.20,58.08 L25.20,58.08 L24.21,58.42 L23.34,59.01 L22.66,59.80 L22.20,60.74 L22.01,61.76 L22.08,62.80 L22.42,63.79 L23.01,64.66 L23.80,65.34 L24.74,65.80 L25.76,65.99 L26.80,65.92 L26.80,65.92 L27.34,65.88 L27.90,65.82 L28.47,65.76 L29.05,65.70 L29.63,65.62 L30.21,65.54 L30.80,65.46 L31.39,65.36 L31.98,65.27 L32.58,65.16 L33.19,65.05 L33.79,64.93 L34.40,64.81 L35.00,64.68 L35.61,64.55 L36.22,64.40 L36.84,64.26 L37.45,64.11 L38.06,63.95 L38.67,63.79 L39.28,63.62 L39.89,63.45 L40.50,63.27 L41.10,63.08 L41.71,62.89 L42.31,62.70 L42.91,62.50 L43.50,62.29 L44.09,62.08 L44.65,61.88 L44.65,61.88 L45.96,61.01 L46.99,59.83 L47.68,58.43 L47.99,56.89 L47.88,55.33 L47.38,53.85 L46.51,52.54 L45.33,51.51 L43.93,50.82 L42.39,50.51 L40.83,50.62 L39.35,51.12 Z"/><path d="M25.20,58.08 L24.69,58.28 L24.17,58.48 L23.65,58.70 L23.12,58.91 L22.59,59.13 L22.06,59.35 L21.53,59.58 L21.00,59.81 L20.46,60.04 L19.93,60.28 L19.39,60.51 L18.85,60.75 L18.31,60.98 L17.76,61.22 L17.21,61.46 L16.66,61.70 L16.11,61.93 L15.56,62.17 L15.00,62.40 L14.45,62.64 L13.89,62.87 L13.33,63.09 L12.77,63.32 L12.20,63.54 L11.64,63.76 L11.07,63.97 L10.50,64.18 L9.94,64.38 L9.37,64.58 L8.79,64.77 L8.79,64.77 L8.48,64.86 L8.20,65.04 L7.98,65.28 L7.83,65.57 L7.76,65.89 L7.77,66.21 L7.86,66.52 L8.04,66.80 L8.28,67.02 L8.57,67.17 L8.89,67.24 L9.21,67.23 L9.21,67.23 L9.83,67.22 L10.46,67.20 L11.09,67.17 L11.72,67.13 L12.35,67.10 L12.98,67.05 L13.61,67.01 L14.23,66.96 L14.86,66.90 L15.48,66.85 L16.10,66.79 L16.71,66.73 L17.33,66.66 L17.93,66.60 L18.54,66.54 L19.14,66.48 L19.73,66.42 L20.32,66.36 L20.90,66.30 L21.48,66.24 L22.05,66.19 L22.61,66.14 L23.17,66.10 L23.71,66.05 L24.25,66.02 L24.78,65.99 L25.30,65.96 L25.80,65.94 L26.30,65.93 L26.80,65.92 L26.80,65.92 L27.79,65.58 L28.66,64.99 L29.34,64.20 L29.80,63.26 L29.99,62.24 L29.92,61.20 L29.58,60.21 L28.99,59.34 L28.20,58.66 L27.26,58.20 L26.24,58.01 L25.20,58.08 Z"/><path d="M42.00,50.75 L41.40,50.82 L40.80,50.88 L40.20,50.95 L39.61,51.02 L39.01,51.08 L38.42,51.15 L37.82,51.21 L37.23,51.27 L36.64,51.34 L36.04,51.40 L35.45,51.46 L34.86,51.52 L34.27,51.58 L33.68,51.63 L33.09,51.69 L32.50,51.74 L31.91,51.79 L31.32,51.84 L30.73,51.89 L30.15,51.94 L29.56,51.98 L28.97,52.02 L28.38,52.06 L27.79,52.10 L27.21,52.13 L26.62,52.16 L26.03,52.19 L25.45,52.22 L24.86,52.24 L24.26,52.26 L24.26,52.26 L23.41,52.30 L22.61,52.56 L21.89,53.02 L21.33,53.65 L20.94,54.41 L20.76,55.24 L20.80,56.09 L21.06,56.89 L21.52,57.61 L22.15,58.17 L22.91,58.56 L23.74,58.74 L23.74,58.74 L24.34,58.86 L24.95,58.97 L25.57,59.08 L26.18,59.18 L26.79,59.29 L27.41,59.39 L28.02,59.49 L28.63,59.58 L29.24,59.68 L29.85,59.77 L30.47,59.85 L31.08,59.94 L31.69,60.02 L32.30,60.11 L32.91,60.19 L33.52,60.27 L34.13,60.34 L34.74,60.42 L35.35,60.49 L35.96,60.56 L36.56,60.64 L37.17,60.71 L37.78,60.78 L38.38,60.85 L38.99,60.91 L39.59,60.98 L40.20,61.05 L40.80,61.12 L41.40,61.18 L42.00,61.25 L42.00,61.25 L43.36,61.07 L44.62,60.55 L45.71,59.71 L46.55,58.63 L47.07,57.36 L47.25,56.00 L47.07,54.64 L46.55,53.38 L45.71,52.29 L44.63,51.45 L43.36,50.93 L42.00,50.75 Z"/><path d="M24.33,52.27 L23.84,52.28 L23.35,52.30 L22.86,52.31 L22.37,52.31 L21.89,52.32 L21.40,52.32 L20.90,52.31 L20.41,52.31 L19.92,52.30 L19.42,52.29 L18.93,52.27 L18.43,52.25 L17.94,52.23 L17.44,52.20 L16.94,52.17 L16.44,52.14 L15.94,52.10 L15.44,52.06 L14.94,52.01 L14.44,51.97 L13.93,51.92 L13.43,51.86 L12.92,51.80 L12.42,51.74 L11.91,51.68 L11.40,51.61 L10.89,51.54 L10.38,51.46 L9.87,51.38 L9.36,51.30 L9.36,51.30 L9.03,51.25 L8.71,51.28 L8.40,51.40 L8.14,51.59 L7.93,51.85 L7.80,52.14 L7.75,52.47 L7.78,52.79 L7.90,53.10 L8.09,53.36 L8.35,53.57 L8.64,53.70 L8.64,53.70 L9.13,53.91 L9.62,54.12 L10.11,54.33 L10.60,54.54 L11.09,54.74 L11.58,54.94 L12.08,55.13 L12.57,55.32 L13.07,55.51 L13.56,55.70 L14.06,55.88 L14.56,56.06 L15.06,56.24 L15.56,56.41 L16.06,56.58 L16.56,56.75 L17.06,56.91 L17.57,57.07 L18.07,57.23 L18.58,57.38 L19.08,57.53 L19.59,57.68 L20.10,57.82 L20.60,57.96 L21.11,58.10 L21.63,58.23 L22.14,58.36 L22.65,58.49 L23.16,58.61 L23.67,58.73 L23.67,58.73 L24.51,58.71 L25.33,58.47 L26.05,58.02 L26.63,57.41 L27.04,56.66 L27.23,55.83 L27.21,54.99 L26.97,54.17 L26.52,53.45 L25.91,52.87 L25.16,52.46 L24.33,52.27 Z"/><path d="M65.82,46.92 L65.46,46.23 L65.09,45.54 L64.73,44.87 L64.36,44.21 L64.00,43.57 L63.64,42.94 L63.28,42.32 L62.93,41.71 L62.58,41.12 L62.23,40.54 L61.88,39.97 L61.54,39.41 L61.20,38.86 L60.87,38.32 L60.54,37.79 L60.21,37.27 L59.89,36.76 L59.58,36.26 L59.27,35.77 L58.96,35.28 L58.67,34.80 L58.37,34.33 L58.09,33.86 L57.80,33.39 L57.53,32.94 L57.26,32.48 L57.00,32.03 L56.74,31.59 L56.49,31.14 L56.24,30.68 L56.24,30.68 L55.79,29.89 L55.15,29.24 L54.36,28.78 L53.48,28.53 L52.57,28.53 L51.68,28.76 L50.89,29.21 L50.24,29.85 L49.78,30.64 L49.53,31.52 L49.53,32.43 L49.76,33.32 L49.76,33.32 L49.91,33.86 L50.08,34.41 L50.26,34.97 L50.44,35.53 L50.63,36.08 L50.82,36.64 L51.02,37.19 L51.22,37.75 L51.42,38.31 L51.63,38.87 L51.84,39.43 L52.05,39.99 L52.27,40.56 L52.49,41.13 L52.71,41.71 L52.94,42.28 L53.16,42.87 L53.39,43.45 L53.62,44.05 L53.85,44.65 L54.08,45.25 L54.31,45.87 L54.54,46.49 L54.78,47.11 L55.01,47.75 L55.24,48.39 L55.48,49.05 L55.71,49.71 L55.94,50.38 L56.18,51.08 L56.18,51.08 L56.89,52.26 L57.87,53.21 L59.07,53.88 L60.40,54.22 L61.77,54.19 L63.08,53.82 L64.26,53.11 L65.21,52.13 L65.88,50.93 L66.22,49.60 L66.19,48.23 L65.82,46.92 Z"/><path d="M55.62,34.68 L55.86,34.38 L56.07,34.11 L56.29,33.85 L56.52,33.59 L56.75,33.34 L56.98,33.10 L57.23,32.86 L57.47,32.63 L57.73,32.40 L57.99,32.19 L58.25,31.98 L58.52,31.78 L58.80,31.58 L59.09,31.40 L59.38,31.22 L59.68,31.05 L59.98,30.89 L60.30,30.73 L60.62,30.59 L60.95,30.46 L61.29,30.33 L61.64,30.22 L62.00,30.12 L62.36,30.03 L62.74,29.95 L63.13,29.88 L63.52,29.82 L63.93,29.78 L64.35,29.75 L64.81,29.74 L64.81,29.74 L65.40,29.71 L65.96,29.54 L66.45,29.22 L66.85,28.78 L67.12,28.26 L67.24,27.69 L67.21,27.10 L67.04,26.54 L66.72,26.05 L66.28,25.65 L65.76,25.38 L65.19,25.26 L65.19,25.26 L64.66,25.16 L64.10,25.08 L63.54,25.02 L62.98,24.98 L62.43,24.96 L61.88,24.95 L61.33,24.96 L60.79,24.99 L60.25,25.04 L59.72,25.10 L59.19,25.18 L58.66,25.27 L58.14,25.39 L57.63,25.51 L57.12,25.66 L56.62,25.82 L56.12,25.99 L55.64,26.18 L55.15,26.38 L54.68,26.59 L54.21,26.82 L53.75,27.06 L53.30,27.31 L52.86,27.57 L52.42,27.84 L51.99,28.12 L51.57,28.42 L51.15,28.72 L50.75,29.03 L50.38,29.32 L50.38,29.32 L49.77,30.09 L49.39,30.99 L49.25,31.96 L49.37,32.93 L49.73,33.84 L50.32,34.62 L51.09,35.23 L51.99,35.61 L52.96,35.75 L53.93,35.63 L54.84,35.27 L55.62,34.68 Z"/><path d="M62.94,56.14 L63.42,56.18 L63.87,56.22 L64.32,56.27 L64.78,56.32 L65.24,56.37 L65.70,56.44 L66.16,56.51 L66.62,56.58 L67.08,56.66 L67.55,56.74 L68.01,56.83 L68.48,56.93 L68.94,57.02 L69.40,57.12 L69.86,57.23 L70.32,57.34 L70.78,57.45 L71.24,57.57 L71.69,57.69 L72.14,57.81 L72.59,57.93 L73.03,58.06 L73.47,58.19 L73.91,58.32 L74.34,58.45 L74.77,58.59 L75.19,58.72 L75.61,58.86 L76.03,58.99 L76.45,59.14 L76.45,59.14 L77.31,59.43 L78.22,59.49 L79.12,59.32 L79.94,58.91 L80.63,58.31 L81.14,57.55 L81.43,56.69 L81.49,55.78 L81.32,54.88 L80.91,54.06 L80.31,53.37 L79.55,52.86 L79.55,52.86 L79.17,52.61 L78.76,52.34 L78.35,52.08 L77.93,51.82 L77.50,51.56 L77.07,51.30 L76.63,51.04 L76.18,50.78 L75.73,50.52 L75.27,50.27 L74.80,50.01 L74.33,49.76 L73.86,49.51 L73.37,49.26 L72.89,49.02 L72.40,48.78 L71.90,48.54 L71.40,48.31 L70.89,48.08 L70.38,47.85 L69.86,47.63 L69.34,47.41 L68.82,47.19 L68.29,46.99 L67.75,46.78 L67.22,46.58 L66.68,46.39 L66.13,46.21 L65.58,46.03 L65.06,45.86 L65.06,45.86 L63.70,45.76 L62.35,46.02 L61.12,46.61 L60.08,47.51 L59.31,48.64 L58.86,49.94 L58.76,51.30 L59.02,52.65 L59.61,53.88 L60.51,54.92 L61.64,55.69 L62.94,56.14 Z"/><path d="M76.99,59.35 L77.51,59.45 L78.03,59.55 L78.54,59.65 L79.06,59.75 L79.58,59.85 L80.09,59.95 L80.61,60.05 L81.13,60.15 L81.65,60.24 L82.17,60.34 L82.70,60.44 L83.22,60.54 L83.75,60.64 L84.28,60.74 L84.80,60.84 L85.33,60.94 L85.87,61.04 L86.40,61.14 L86.94,61.24 L87.48,61.34 L88.02,61.44 L88.56,61.54 L89.11,61.64 L89.65,61.74 L90.20,61.84 L90.76,61.94 L91.31,62.03 L91.87,62.13 L92.43,62.23 L93.00,62.33 L93.00,62.33 L93.49,62.40 L93.98,62.34 L94.44,62.15 L94.84,61.85 L95.14,61.46 L95.33,61.00 L95.40,60.51 L95.34,60.02 L95.15,59.56 L94.85,59.16 L94.46,58.86 L94.00,58.67 L94.00,58.67 L93.47,58.47 L92.94,58.27 L92.42,58.07 L91.89,57.86 L91.37,57.66 L90.86,57.46 L90.35,57.26 L89.83,57.06 L89.33,56.86 L88.82,56.66 L88.32,56.46 L87.81,56.26 L87.31,56.06 L86.82,55.86 L86.32,55.66 L85.83,55.46 L85.33,55.26 L84.84,55.06 L84.35,54.86 L83.86,54.66 L83.37,54.46 L82.89,54.25 L82.40,54.05 L81.91,53.85 L81.43,53.65 L80.94,53.45 L80.46,53.25 L79.97,53.05 L79.49,52.85 L79.01,52.65 L79.01,52.65 L78.10,52.50 L77.19,52.59 L76.34,52.92 L75.60,53.45 L75.02,54.16 L74.65,54.99 L74.50,55.90 L74.59,56.81 L74.92,57.66 L75.45,58.40 L76.16,58.98 L76.99,59.35 Z"/><path d="M49.50,32.00 a3.50,3.50 0 1,0 7.00,0 a3.50,3.50 0 1,0 -7.00,0 Z"/><path d="M74.50,56.00 a3.50,3.50 0 1,0 7.00,0 a3.50,3.50 0 1,0 -7.00,0 Z"/><path d="M22.00,62.00 a4.00,4.00 0 1,0 8.00,0 a4.00,4.00 0 1,0 -8.00,0 Z"/><path d="M20.80,55.50 a3.20,3.20 0 1,0 6.40,0 a3.20,3.20 0 1,0 -6.40,0 Z"/><path d="M61.40,49.00 a8.60,8.60 0 1,0 17.20,0 a8.60,8.60 0 1,0 -17.20,0 Z"/></clipPath></defs>
  
  <path d="M2 58 Q14 52 26 58 T50 58 T98 58" fill="none" stroke="__OUTLINE__" stroke-width="3" stroke-linecap="round" transform="translate(0,8)"/>
  <g fill="__ACCENT__"><path d="M60.89,41.80 L60.15,42.09 L59.37,42.40 L58.60,42.72 L57.82,43.05 L57.06,43.38 L56.29,43.72 L55.53,44.07 L54.77,44.42 L54.02,44.78 L53.26,45.14 L52.51,45.50 L51.76,45.86 L51.02,46.22 L50.27,46.58 L49.53,46.94 L48.79,47.30 L48.05,47.65 L47.31,48.00 L46.58,48.35 L45.84,48.69 L45.11,49.03 L44.38,49.36 L43.66,49.68 L42.94,49.99 L42.22,50.30 L41.50,50.59 L40.79,50.88 L40.08,51.15 L39.37,51.41 L38.63,51.67 L38.63,51.67 L37.29,52.21 L36.15,53.08 L35.26,54.21 L34.70,55.53 L34.50,56.95 L34.67,58.37 L35.21,59.71 L36.08,60.85 L37.21,61.74 L38.53,62.30 L39.95,62.50 L41.37,62.33 L41.37,62.33 L42.23,62.17 L43.12,62.00 L44.01,61.81 L44.90,61.61 L45.78,61.41 L46.65,61.19 L47.52,60.97 L48.38,60.74 L49.23,60.51 L50.08,60.27 L50.93,60.03 L51.76,59.79 L52.59,59.55 L53.41,59.30 L54.22,59.06 L55.02,58.82 L55.82,58.58 L56.60,58.35 L57.38,58.12 L58.14,57.90 L58.90,57.69 L59.64,57.48 L60.37,57.28 L61.08,57.09 L61.79,56.91 L62.47,56.75 L63.15,56.59 L63.80,56.45 L64.44,56.32 L65.11,56.20 L65.11,56.20 L66.90,55.40 L68.43,54.18 L69.58,52.59 L70.29,50.77 L70.50,48.82 L70.20,46.89 L69.40,45.10 L68.18,43.57 L66.59,42.42 L64.77,41.71 L62.82,41.50 L60.89,41.80 Z"/><path d="M39.35,51.12 L38.90,51.41 L38.47,51.69 L38.04,51.97 L37.60,52.25 L37.15,52.52 L36.69,52.79 L36.23,53.06 L35.76,53.32 L35.29,53.58 L34.81,53.84 L34.33,54.10 L33.85,54.35 L33.36,54.60 L32.88,54.84 L32.39,55.08 L31.90,55.32 L31.41,55.55 L30.91,55.77 L30.42,55.99 L29.94,56.21 L29.45,56.42 L28.96,56.63 L28.48,56.83 L28.00,57.02 L27.52,57.22 L27.05,57.40 L26.58,57.58 L26.12,57.75 L25.67,57.92 L25.20,58.08 L25.20,58.08 L24.21,58.42 L23.34,59.01 L22.66,59.80 L22.20,60.74 L22.01,61.76 L22.08,62.80 L22.42,63.79 L23.01,64.66 L23.80,65.34 L24.74,65.80 L25.76,65.99 L26.80,65.92 L26.80,65.92 L27.34,65.88 L27.90,65.82 L28.47,65.76 L29.05,65.70 L29.63,65.62 L30.21,65.54 L30.80,65.46 L31.39,65.36 L31.98,65.27 L32.58,65.16 L33.19,65.05 L33.79,64.93 L34.40,64.81 L35.00,64.68 L35.61,64.55 L36.22,64.40 L36.84,64.26 L37.45,64.11 L38.06,63.95 L38.67,63.79 L39.28,63.62 L39.89,63.45 L40.50,63.27 L41.10,63.08 L41.71,62.89 L42.31,62.70 L42.91,62.50 L43.50,62.29 L44.09,62.08 L44.65,61.88 L44.65,61.88 L45.96,61.01 L46.99,59.83 L47.68,58.43 L47.99,56.89 L47.88,55.33 L47.38,53.85 L46.51,52.54 L45.33,51.51 L43.93,50.82 L42.39,50.51 L40.83,50.62 L39.35,51.12 Z"/><path d="M25.20,58.08 L24.69,58.28 L24.17,58.48 L23.65,58.70 L23.12,58.91 L22.59,59.13 L22.06,59.35 L21.53,59.58 L21.00,59.81 L20.46,60.04 L19.93,60.28 L19.39,60.51 L18.85,60.75 L18.31,60.98 L17.76,61.22 L17.21,61.46 L16.66,61.70 L16.11,61.93 L15.56,62.17 L15.00,62.40 L14.45,62.64 L13.89,62.87 L13.33,63.09 L12.77,63.32 L12.20,63.54 L11.64,63.76 L11.07,63.97 L10.50,64.18 L9.94,64.38 L9.37,64.58 L8.79,64.77 L8.79,64.77 L8.48,64.86 L8.20,65.04 L7.98,65.28 L7.83,65.57 L7.76,65.89 L7.77,66.21 L7.86,66.52 L8.04,66.80 L8.28,67.02 L8.57,67.17 L8.89,67.24 L9.21,67.23 L9.21,67.23 L9.83,67.22 L10.46,67.20 L11.09,67.17 L11.72,67.13 L12.35,67.10 L12.98,67.05 L13.61,67.01 L14.23,66.96 L14.86,66.90 L15.48,66.85 L16.10,66.79 L16.71,66.73 L17.33,66.66 L17.93,66.60 L18.54,66.54 L19.14,66.48 L19.73,66.42 L20.32,66.36 L20.90,66.30 L21.48,66.24 L22.05,66.19 L22.61,66.14 L23.17,66.10 L23.71,66.05 L24.25,66.02 L24.78,65.99 L25.30,65.96 L25.80,65.94 L26.30,65.93 L26.80,65.92 L26.80,65.92 L27.79,65.58 L28.66,64.99 L29.34,64.20 L29.80,63.26 L29.99,62.24 L29.92,61.20 L29.58,60.21 L28.99,59.34 L28.20,58.66 L27.26,58.20 L26.24,58.01 L25.20,58.08 Z"/><path d="M42.00,50.75 L41.40,50.82 L40.80,50.88 L40.20,50.95 L39.61,51.02 L39.01,51.08 L38.42,51.15 L37.82,51.21 L37.23,51.27 L36.64,51.34 L36.04,51.40 L35.45,51.46 L34.86,51.52 L34.27,51.58 L33.68,51.63 L33.09,51.69 L32.50,51.74 L31.91,51.79 L31.32,51.84 L30.73,51.89 L30.15,51.94 L29.56,51.98 L28.97,52.02 L28.38,52.06 L27.79,52.10 L27.21,52.13 L26.62,52.16 L26.03,52.19 L25.45,52.22 L24.86,52.24 L24.26,52.26 L24.26,52.26 L23.41,52.30 L22.61,52.56 L21.89,53.02 L21.33,53.65 L20.94,54.41 L20.76,55.24 L20.80,56.09 L21.06,56.89 L21.52,57.61 L22.15,58.17 L22.91,58.56 L23.74,58.74 L23.74,58.74 L24.34,58.86 L24.95,58.97 L25.57,59.08 L26.18,59.18 L26.79,59.29 L27.41,59.39 L28.02,59.49 L28.63,59.58 L29.24,59.68 L29.85,59.77 L30.47,59.85 L31.08,59.94 L31.69,60.02 L32.30,60.11 L32.91,60.19 L33.52,60.27 L34.13,60.34 L34.74,60.42 L35.35,60.49 L35.96,60.56 L36.56,60.64 L37.17,60.71 L37.78,60.78 L38.38,60.85 L38.99,60.91 L39.59,60.98 L40.20,61.05 L40.80,61.12 L41.40,61.18 L42.00,61.25 L42.00,61.25 L43.36,61.07 L44.62,60.55 L45.71,59.71 L46.55,58.63 L47.07,57.36 L47.25,56.00 L47.07,54.64 L46.55,53.38 L45.71,52.29 L44.63,51.45 L43.36,50.93 L42.00,50.75 Z"/><path d="M24.33,52.27 L23.84,52.28 L23.35,52.30 L22.86,52.31 L22.37,52.31 L21.89,52.32 L21.40,52.32 L20.90,52.31 L20.41,52.31 L19.92,52.30 L19.42,52.29 L18.93,52.27 L18.43,52.25 L17.94,52.23 L17.44,52.20 L16.94,52.17 L16.44,52.14 L15.94,52.10 L15.44,52.06 L14.94,52.01 L14.44,51.97 L13.93,51.92 L13.43,51.86 L12.92,51.80 L12.42,51.74 L11.91,51.68 L11.40,51.61 L10.89,51.54 L10.38,51.46 L9.87,51.38 L9.36,51.30 L9.36,51.30 L9.03,51.25 L8.71,51.28 L8.40,51.40 L8.14,51.59 L7.93,51.85 L7.80,52.14 L7.75,52.47 L7.78,52.79 L7.90,53.10 L8.09,53.36 L8.35,53.57 L8.64,53.70 L8.64,53.70 L9.13,53.91 L9.62,54.12 L10.11,54.33 L10.60,54.54 L11.09,54.74 L11.58,54.94 L12.08,55.13 L12.57,55.32 L13.07,55.51 L13.56,55.70 L14.06,55.88 L14.56,56.06 L15.06,56.24 L15.56,56.41 L16.06,56.58 L16.56,56.75 L17.06,56.91 L17.57,57.07 L18.07,57.23 L18.58,57.38 L19.08,57.53 L19.59,57.68 L20.10,57.82 L20.60,57.96 L21.11,58.10 L21.63,58.23 L22.14,58.36 L22.65,58.49 L23.16,58.61 L23.67,58.73 L23.67,58.73 L24.51,58.71 L25.33,58.47 L26.05,58.02 L26.63,57.41 L27.04,56.66 L27.23,55.83 L27.21,54.99 L26.97,54.17 L26.52,53.45 L25.91,52.87 L25.16,52.46 L24.33,52.27 Z"/><path d="M65.82,46.92 L65.46,46.23 L65.09,45.54 L64.73,44.87 L64.36,44.21 L64.00,43.57 L63.64,42.94 L63.28,42.32 L62.93,41.71 L62.58,41.12 L62.23,40.54 L61.88,39.97 L61.54,39.41 L61.20,38.86 L60.87,38.32 L60.54,37.79 L60.21,37.27 L59.89,36.76 L59.58,36.26 L59.27,35.77 L58.96,35.28 L58.67,34.80 L58.37,34.33 L58.09,33.86 L57.80,33.39 L57.53,32.94 L57.26,32.48 L57.00,32.03 L56.74,31.59 L56.49,31.14 L56.24,30.68 L56.24,30.68 L55.79,29.89 L55.15,29.24 L54.36,28.78 L53.48,28.53 L52.57,28.53 L51.68,28.76 L50.89,29.21 L50.24,29.85 L49.78,30.64 L49.53,31.52 L49.53,32.43 L49.76,33.32 L49.76,33.32 L49.91,33.86 L50.08,34.41 L50.26,34.97 L50.44,35.53 L50.63,36.08 L50.82,36.64 L51.02,37.19 L51.22,37.75 L51.42,38.31 L51.63,38.87 L51.84,39.43 L52.05,39.99 L52.27,40.56 L52.49,41.13 L52.71,41.71 L52.94,42.28 L53.16,42.87 L53.39,43.45 L53.62,44.05 L53.85,44.65 L54.08,45.25 L54.31,45.87 L54.54,46.49 L54.78,47.11 L55.01,47.75 L55.24,48.39 L55.48,49.05 L55.71,49.71 L55.94,50.38 L56.18,51.08 L56.18,51.08 L56.89,52.26 L57.87,53.21 L59.07,53.88 L60.40,54.22 L61.77,54.19 L63.08,53.82 L64.26,53.11 L65.21,52.13 L65.88,50.93 L66.22,49.60 L66.19,48.23 L65.82,46.92 Z"/><path d="M55.62,34.68 L55.86,34.38 L56.07,34.11 L56.29,33.85 L56.52,33.59 L56.75,33.34 L56.98,33.10 L57.23,32.86 L57.47,32.63 L57.73,32.40 L57.99,32.19 L58.25,31.98 L58.52,31.78 L58.80,31.58 L59.09,31.40 L59.38,31.22 L59.68,31.05 L59.98,30.89 L60.30,30.73 L60.62,30.59 L60.95,30.46 L61.29,30.33 L61.64,30.22 L62.00,30.12 L62.36,30.03 L62.74,29.95 L63.13,29.88 L63.52,29.82 L63.93,29.78 L64.35,29.75 L64.81,29.74 L64.81,29.74 L65.40,29.71 L65.96,29.54 L66.45,29.22 L66.85,28.78 L67.12,28.26 L67.24,27.69 L67.21,27.10 L67.04,26.54 L66.72,26.05 L66.28,25.65 L65.76,25.38 L65.19,25.26 L65.19,25.26 L64.66,25.16 L64.10,25.08 L63.54,25.02 L62.98,24.98 L62.43,24.96 L61.88,24.95 L61.33,24.96 L60.79,24.99 L60.25,25.04 L59.72,25.10 L59.19,25.18 L58.66,25.27 L58.14,25.39 L57.63,25.51 L57.12,25.66 L56.62,25.82 L56.12,25.99 L55.64,26.18 L55.15,26.38 L54.68,26.59 L54.21,26.82 L53.75,27.06 L53.30,27.31 L52.86,27.57 L52.42,27.84 L51.99,28.12 L51.57,28.42 L51.15,28.72 L50.75,29.03 L50.38,29.32 L50.38,29.32 L49.77,30.09 L49.39,30.99 L49.25,31.96 L49.37,32.93 L49.73,33.84 L50.32,34.62 L51.09,35.23 L51.99,35.61 L52.96,35.75 L53.93,35.63 L54.84,35.27 L55.62,34.68 Z"/><path d="M62.94,56.14 L63.42,56.18 L63.87,56.22 L64.32,56.27 L64.78,56.32 L65.24,56.37 L65.70,56.44 L66.16,56.51 L66.62,56.58 L67.08,56.66 L67.55,56.74 L68.01,56.83 L68.48,56.93 L68.94,57.02 L69.40,57.12 L69.86,57.23 L70.32,57.34 L70.78,57.45 L71.24,57.57 L71.69,57.69 L72.14,57.81 L72.59,57.93 L73.03,58.06 L73.47,58.19 L73.91,58.32 L74.34,58.45 L74.77,58.59 L75.19,58.72 L75.61,58.86 L76.03,58.99 L76.45,59.14 L76.45,59.14 L77.31,59.43 L78.22,59.49 L79.12,59.32 L79.94,58.91 L80.63,58.31 L81.14,57.55 L81.43,56.69 L81.49,55.78 L81.32,54.88 L80.91,54.06 L80.31,53.37 L79.55,52.86 L79.55,52.86 L79.17,52.61 L78.76,52.34 L78.35,52.08 L77.93,51.82 L77.50,51.56 L77.07,51.30 L76.63,51.04 L76.18,50.78 L75.73,50.52 L75.27,50.27 L74.80,50.01 L74.33,49.76 L73.86,49.51 L73.37,49.26 L72.89,49.02 L72.40,48.78 L71.90,48.54 L71.40,48.31 L70.89,48.08 L70.38,47.85 L69.86,47.63 L69.34,47.41 L68.82,47.19 L68.29,46.99 L67.75,46.78 L67.22,46.58 L66.68,46.39 L66.13,46.21 L65.58,46.03 L65.06,45.86 L65.06,45.86 L63.70,45.76 L62.35,46.02 L61.12,46.61 L60.08,47.51 L59.31,48.64 L58.86,49.94 L58.76,51.30 L59.02,52.65 L59.61,53.88 L60.51,54.92 L61.64,55.69 L62.94,56.14 Z"/><path d="M76.99,59.35 L77.51,59.45 L78.03,59.55 L78.54,59.65 L79.06,59.75 L79.58,59.85 L80.09,59.95 L80.61,60.05 L81.13,60.15 L81.65,60.24 L82.17,60.34 L82.70,60.44 L83.22,60.54 L83.75,60.64 L84.28,60.74 L84.80,60.84 L85.33,60.94 L85.87,61.04 L86.40,61.14 L86.94,61.24 L87.48,61.34 L88.02,61.44 L88.56,61.54 L89.11,61.64 L89.65,61.74 L90.20,61.84 L90.76,61.94 L91.31,62.03 L91.87,62.13 L92.43,62.23 L93.00,62.33 L93.00,62.33 L93.49,62.40 L93.98,62.34 L94.44,62.15 L94.84,61.85 L95.14,61.46 L95.33,61.00 L95.40,60.51 L95.34,60.02 L95.15,59.56 L94.85,59.16 L94.46,58.86 L94.00,58.67 L94.00,58.67 L93.47,58.47 L92.94,58.27 L92.42,58.07 L91.89,57.86 L91.37,57.66 L90.86,57.46 L90.35,57.26 L89.83,57.06 L89.33,56.86 L88.82,56.66 L88.32,56.46 L87.81,56.26 L87.31,56.06 L86.82,55.86 L86.32,55.66 L85.83,55.46 L85.33,55.26 L84.84,55.06 L84.35,54.86 L83.86,54.66 L83.37,54.46 L82.89,54.25 L82.40,54.05 L81.91,53.85 L81.43,53.65 L80.94,53.45 L80.46,53.25 L79.97,53.05 L79.49,52.85 L79.01,52.65 L79.01,52.65 L78.10,52.50 L77.19,52.59 L76.34,52.92 L75.60,53.45 L75.02,54.16 L74.65,54.99 L74.50,55.90 L74.59,56.81 L74.92,57.66 L75.45,58.40 L76.16,58.98 L76.99,59.35 Z"/><path d="M49.50,32.00 a3.50,3.50 0 1,0 7.00,0 a3.50,3.50 0 1,0 -7.00,0 Z"/><path d="M74.50,56.00 a3.50,3.50 0 1,0 7.00,0 a3.50,3.50 0 1,0 -7.00,0 Z"/><path d="M22.00,62.00 a4.00,4.00 0 1,0 8.00,0 a4.00,4.00 0 1,0 -8.00,0 Z"/><path d="M20.80,55.50 a3.20,3.20 0 1,0 6.40,0 a3.20,3.20 0 1,0 -6.40,0 Z"/><path d="M61.40,49.00 a8.60,8.60 0 1,0 17.20,0 a8.60,8.60 0 1,0 -17.20,0 Z"/></g>
  <g clip-path="url(#b__UID__)"><rect x="0" y="58" width="100" height="42" fill="__GROUND__" opacity="0.24"/></g>
  <path d="M2 58 Q14 52 26 58 T50 58 T98 58" fill="none" stroke="__ACCENT__" stroke-width="3.2" stroke-linecap="round"/>
  <g fill="__ACCENT__" opacity="0.85"><circle cx="94" cy="60.5" r="1.6"/><circle cx="9" cy="66" r="1.6"/><circle cx="9" cy="52.5" r="1.6"/></g>
</svg>
