<svg xmlns="http://www.w3.org/2000/svg" viewBox="0 0 100 100" role="img" aria-label="Butterfly swimmer">
  <defs><clipPath id="b__UID__"><path d="M61.19,46.85 L60.58,46.81 L59.97,46.76 L59.35,46.72 L58.73,46.68 L58.10,46.63 L57.47,46.59 L56.84,46.55 L56.21,46.51 L55.57,46.48 L54.92,46.44 L54.27,46.41 L53.62,46.37 L52.96,46.34 L52.30,46.32 L51.63,46.30 L50.96,46.28 L50.29,46.26 L49.60,46.25 L48.92,46.24 L48.23,46.24 L47.53,46.24 L46.83,46.24 L46.12,46.25 L45.40,46.27 L44.69,46.29 L43.96,46.32 L43.23,46.36 L42.49,46.40 L41.75,46.45 L41.03,46.50 L41.03,46.50 L39.60,46.68 L38.27,47.22 L37.13,48.09 L36.25,49.23 L35.69,50.55 L35.50,51.97 L35.68,53.40 L36.22,54.73 L37.09,55.87 L38.23,56.75 L39.55,57.31 L40.97,57.50 L40.97,57.50 L41.64,57.56 L42.28,57.63 L42.91,57.70 L43.54,57.78 L44.16,57.86 L44.77,57.95 L45.38,58.05 L45.99,58.15 L46.59,58.25 L47.18,58.36 L47.77,58.47 L48.36,58.58 L48.95,58.70 L49.53,58.83 L50.12,58.95 L50.70,59.08 L51.27,59.22 L51.85,59.35 L52.43,59.49 L53.00,59.63 L53.58,59.78 L54.16,59.92 L54.73,60.07 L55.31,60.22 L55.89,60.37 L56.47,60.53 L57.05,60.68 L57.63,60.84 L58.22,60.99 L58.81,61.15 L58.81,61.15 L60.70,61.22 L62.54,60.79 L64.21,59.90 L65.60,58.61 L66.60,57.00 L67.15,55.19 L67.22,53.30 L66.79,51.46 L65.90,49.79 L64.61,48.40 L63.00,47.40 L61.19,46.85 Z"/><path d="M39.34,46.23 L38.65,46.51 L37.96,46.79 L37.29,47.07 L36.63,47.35 L35.98,47.63 L35.34,47.91 L34.72,48.19 L34.10,48.46 L33.49,48.74 L32.90,49.02 L32.31,49.30 L31.73,49.57 L31.15,49.85 L30.59,50.12 L30.02,50.40 L29.47,50.67 L28.92,50.94 L28.37,51.21 L27.82,51.49 L27.28,51.76 L26.74,52.03 L26.20,52.30 L25.66,52.57 L25.12,52.84 L24.58,53.10 L24.03,53.37 L23.48,53.64 L22.93,53.91 L22.38,54.18 L21.81,54.44 L21.81,54.44 L20.93,54.87 L20.19,55.52 L19.64,56.33 L19.32,57.25 L19.26,58.23 L19.44,59.19 L19.87,60.07 L20.52,60.81 L21.33,61.36 L22.25,61.68 L23.23,61.74 L24.19,61.56 L24.19,61.56 L24.82,61.42 L25.44,61.29 L26.06,61.16 L26.68,61.03 L27.29,60.90 L27.89,60.76 L28.49,60.63 L29.09,60.50 L29.68,60.37 L30.28,60.24 L30.87,60.11 L31.46,59.99 L32.05,59.86 L32.64,59.73 L33.23,59.60 L33.82,59.48 L34.41,59.35 L35.01,59.23 L35.61,59.10 L36.22,58.98 L36.83,58.86 L37.44,58.74 L38.06,58.61 L38.69,58.49 L39.33,58.37 L39.97,58.25 L40.62,58.13 L41.29,58.01 L41.96,57.89 L42.66,57.77 L42.66,57.77 L44.10,57.14 L45.32,56.16 L46.25,54.90 L46.82,53.44 L47.00,51.89 L46.77,50.34 L46.14,48.90 L45.16,47.68 L43.90,46.75 L42.44,46.18 L40.89,46.00 L39.34,46.23 Z"/><path d="M22.26,54.32 L21.78,54.50 L21.30,54.69 L20.81,54.87 L20.33,55.05 L19.85,55.23 L19.36,55.41 L18.87,55.59 L18.38,55.77 L17.89,55.96 L17.40,56.14 L16.91,56.32 L16.41,56.50 L15.91,56.68 L15.41,56.86 L14.91,57.04 L14.40,57.23 L13.89,57.41 L13.37,57.59 L12.85,57.77 L12.33,57.95 L11.80,58.13 L11.27,58.31 L10.73,58.50 L10.18,58.68 L9.63,58.86 L9.08,59.04 L8.52,59.22 L7.95,59.40 L7.38,59.59 L6.79,59.77 L6.79,59.77 L6.48,59.86 L6.20,60.04 L5.98,60.27 L5.83,60.56 L5.76,60.88 L5.77,61.21 L5.86,61.52 L6.04,61.80 L6.27,62.02 L6.56,62.17 L6.88,62.24 L7.21,62.23 L7.21,62.23 L7.82,62.21 L8.42,62.20 L9.03,62.18 L9.62,62.16 L10.21,62.14 L10.79,62.12 L11.37,62.10 L11.95,62.09 L12.52,62.07 L13.08,62.05 L13.64,62.03 L14.20,62.01 L14.75,61.99 L15.30,61.97 L15.84,61.96 L16.38,61.94 L16.92,61.92 L17.46,61.90 L17.99,61.88 L18.52,61.86 L19.05,61.84 L19.58,61.83 L20.10,61.81 L20.62,61.79 L21.15,61.77 L21.67,61.75 L22.18,61.73 L22.70,61.71 L23.22,61.70 L23.74,61.68 L23.74,61.68 L24.66,61.36 L25.48,60.82 L26.12,60.08 L26.55,59.20 L26.74,58.24 L26.68,57.26 L26.36,56.34 L25.82,55.52 L25.08,54.88 L24.20,54.45 L23.24,54.26 L22.26,54.32 Z"/><path d="M42.17,47.07 L41.58,47.24 L40.99,47.40 L40.41,47.57 L39.83,47.74 L39.25,47.91 L38.68,48.08 L38.11,48.26 L37.55,48.43 L36.99,48.61 L36.43,48.79 L35.88,48.97 L35.33,49.16 L34.78,49.35 L34.24,49.54 L33.70,49.73 L33.16,49.93 L32.63,50.13 L32.10,50.34 L31.57,50.55 L31.04,50.77 L30.52,50.99 L29.99,51.21 L29.47,51.44 L28.96,51.68 L28.44,51.92 L27.93,52.17 L27.41,52.42 L26.90,52.68 L26.39,52.94 L25.90,53.21 L25.90,53.21 L25.22,53.59 L24.65,54.13 L24.25,54.80 L24.03,55.56 L24.02,56.34 L24.21,57.10 L24.59,57.78 L25.13,58.35 L25.80,58.75 L26.56,58.97 L27.34,58.98 L28.10,58.79 L28.10,58.79 L28.61,58.66 L29.10,58.55 L29.59,58.44 L30.08,58.34 L30.57,58.24 L31.06,58.15 L31.55,58.06 L32.04,57.98 L32.54,57.90 L33.03,57.82 L33.53,57.76 L34.03,57.69 L34.54,57.63 L35.04,57.57 L35.55,57.52 L36.07,57.46 L36.58,57.42 L37.10,57.37 L37.63,57.32 L38.16,57.28 L38.70,57.24 L39.24,57.20 L39.79,57.17 L40.35,57.13 L40.91,57.10 L41.48,57.06 L42.05,57.03 L42.63,57.00 L43.22,56.96 L43.83,56.93 L43.83,56.93 L45.07,56.55 L46.18,55.86 L47.07,54.90 L47.68,53.75 L47.98,52.48 L47.93,51.17 L47.55,49.93 L46.86,48.82 L45.90,47.93 L44.75,47.32 L43.48,47.02 L42.17,47.07 Z"/><path d="M26.43,53.05 L25.96,53.21 L25.51,53.35 L25.05,53.48 L24.59,53.61 L24.12,53.74 L23.66,53.86 L23.19,53.98 L22.71,54.09 L22.24,54.19 L21.75,54.30 L21.27,54.39 L20.78,54.49 L20.28,54.58 L19.78,54.67 L19.27,54.75 L18.76,54.83 L18.25,54.91 L17.73,54.99 L17.20,55.06 L16.67,55.13 L16.13,55.20 L15.58,55.26 L15.03,55.33 L14.48,55.39 L13.91,55.45 L13.34,55.51 L12.77,55.57 L12.19,55.63 L11.60,55.69 L11.00,55.75 L11.00,55.75 L10.68,55.79 L10.37,55.92 L10.12,56.12 L9.92,56.38 L9.79,56.68 L9.75,57.00 L9.79,57.32 L9.92,57.63 L10.12,57.88 L10.38,58.08 L10.68,58.21 L11.00,58.25 L11.00,58.25 L11.60,58.31 L12.19,58.37 L12.77,58.42 L13.35,58.48 L13.93,58.54 L14.50,58.59 L15.07,58.65 L15.63,58.70 L16.19,58.75 L16.74,58.80 L17.29,58.84 L17.84,58.89 L18.39,58.93 L18.93,58.96 L19.48,59.00 L20.02,59.03 L20.56,59.06 L21.10,59.08 L21.63,59.10 L22.17,59.11 L22.71,59.12 L23.25,59.12 L23.79,59.12 L24.33,59.12 L24.87,59.10 L25.41,59.09 L25.95,59.06 L26.49,59.03 L27.04,58.99 L27.57,58.95 L27.57,58.95 L28.31,58.70 L28.97,58.27 L29.49,57.68 L29.84,56.98 L29.99,56.21 L29.95,55.43 L29.70,54.69 L29.27,54.03 L28.68,53.51 L27.98,53.16 L27.21,53.01 L26.43,53.05 Z"/><path d="M64.22,53.57 L64.26,52.65 L64.29,51.75 L64.32,50.85 L64.34,49.97 L64.35,49.10 L64.35,48.24 L64.33,47.40 L64.31,46.56 L64.27,45.74 L64.22,44.93 L64.16,44.12 L64.07,43.33 L63.98,42.54 L63.86,41.77 L63.72,41.00 L63.56,40.24 L63.38,39.49 L63.18,38.75 L62.96,38.02 L62.71,37.29 L62.43,36.58 L62.13,35.89 L61.80,35.20 L61.44,34.53 L61.06,33.87 L60.65,33.23 L60.21,32.60 L59.74,31.99 L59.25,31.39 L58.78,30.87 L58.78,30.87 L58.13,30.22 L57.34,29.77 L56.45,29.53 L55.54,29.53 L54.66,29.77 L53.87,30.22 L53.22,30.87 L52.77,31.66 L52.53,32.55 L52.53,33.46 L52.77,34.34 L53.22,35.13 L53.22,35.13 L53.52,35.62 L53.75,36.04 L53.96,36.47 L54.14,36.89 L54.30,37.32 L54.45,37.74 L54.57,38.18 L54.68,38.62 L54.77,39.06 L54.85,39.52 L54.91,39.99 L54.96,40.47 L55.00,40.96 L55.02,41.47 L55.03,42.00 L55.03,42.55 L55.01,43.11 L54.98,43.70 L54.94,44.30 L54.89,44.93 L54.82,45.57 L54.75,46.24 L54.66,46.93 L54.57,47.65 L54.46,48.38 L54.34,49.14 L54.21,49.93 L54.08,50.73 L53.93,51.57 L53.78,52.43 L53.78,52.43 L53.81,53.80 L54.20,55.12 L54.91,56.29 L55.90,57.24 L57.10,57.89 L58.43,58.22 L59.80,58.19 L61.12,57.80 L62.29,57.09 L63.24,56.10 L63.89,54.90 L64.22,53.57 Z"/><path d="M58.62,30.32 L58.25,30.03 L57.85,29.72 L57.45,29.43 L57.03,29.15 L56.61,28.88 L56.19,28.63 L55.76,28.40 L55.32,28.17 L54.87,27.97 L54.42,27.78 L53.96,27.61 L53.50,27.46 L53.03,27.32 L52.55,27.21 L52.07,27.12 L51.59,27.04 L51.11,26.98 L50.62,26.95 L50.13,26.93 L49.64,26.93 L49.15,26.94 L48.65,26.98 L48.16,27.03 L47.66,27.09 L47.15,27.17 L46.65,27.27 L46.13,27.38 L45.61,27.50 L45.09,27.64 L44.58,27.79 L44.58,27.79 L44.02,27.97 L43.53,28.29 L43.14,28.73 L42.88,29.26 L42.76,29.83 L42.79,30.42 L42.97,30.98 L43.29,31.47 L43.73,31.86 L44.26,32.12 L44.83,32.24 L45.42,32.21 L45.42,32.21 L45.90,32.17 L46.33,32.15 L46.75,32.14 L47.15,32.14 L47.53,32.16 L47.90,32.19 L48.24,32.23 L48.57,32.28 L48.88,32.34 L49.17,32.41 L49.45,32.49 L49.71,32.57 L49.96,32.67 L50.20,32.77 L50.43,32.88 L50.64,33.00 L50.85,33.13 L51.05,33.26 L51.24,33.40 L51.43,33.55 L51.62,33.71 L51.81,33.88 L51.99,34.06 L52.18,34.25 L52.37,34.45 L52.56,34.66 L52.75,34.89 L52.95,35.13 L53.15,35.38 L53.38,35.68 L53.38,35.68 L54.16,36.27 L55.07,36.63 L56.04,36.75 L57.01,36.61 L57.91,36.23 L58.68,35.62 L59.27,34.84 L59.63,33.93 L59.75,32.96 L59.61,31.99 L59.23,31.09 L58.62,30.32 Z"/><path d="M66.47,55.24 L66.82,54.41 L67.16,53.60 L67.49,52.79 L67.82,51.99 L68.14,51.20 L68.45,50.41 L68.75,49.63 L69.05,48.85 L69.33,48.07 L69.59,47.30 L69.84,46.53 L70.08,45.76 L70.30,44.99 L70.51,44.23 L70.69,43.46 L70.86,42.70 L71.00,41.93 L71.12,41.16 L71.21,40.39 L71.28,39.62 L71.31,38.84 L71.32,38.07 L71.29,37.29 L71.23,36.52 L71.13,35.75 L71.00,34.98 L70.83,34.22 L70.62,33.46 L70.37,32.71 L70.11,32.05 L70.11,32.05 L69.76,31.28 L69.22,30.62 L68.53,30.13 L67.73,29.83 L66.89,29.75 L66.05,29.89 L65.28,30.24 L64.62,30.78 L64.13,31.47 L63.83,32.27 L63.75,33.11 L63.89,33.95 L63.89,33.95 L64.00,34.49 L64.05,34.94 L64.08,35.39 L64.09,35.83 L64.07,36.27 L64.03,36.71 L63.98,37.16 L63.90,37.61 L63.80,38.07 L63.69,38.53 L63.55,39.01 L63.39,39.50 L63.22,40.00 L63.02,40.51 L62.81,41.04 L62.57,41.58 L62.32,42.13 L62.05,42.70 L61.75,43.29 L61.45,43.89 L61.12,44.50 L60.78,45.13 L60.42,45.78 L60.04,46.44 L59.66,47.12 L59.25,47.81 L58.84,48.52 L58.41,49.25 L57.97,50.00 L57.53,50.76 L57.53,50.76 L57.10,52.00 L57.01,53.30 L57.26,54.58 L57.83,55.76 L58.68,56.74 L59.76,57.47 L61.00,57.90 L62.30,57.99 L63.58,57.74 L64.76,57.17 L65.74,56.32 L66.47,55.24 Z"/><path d="M69.88,31.01 L69.60,30.69 L69.27,30.33 L68.94,29.98 L68.59,29.66 L68.23,29.35 L67.86,29.05 L67.47,28.78 L67.08,28.52 L66.68,28.28 L66.27,28.06 L65.86,27.86 L65.44,27.68 L65.01,27.51 L64.58,27.37 L64.14,27.24 L63.70,27.13 L63.25,27.03 L62.80,26.95 L62.35,26.88 L61.89,26.82 L61.43,26.78 L60.97,26.75 L60.50,26.73 L60.02,26.72 L59.53,26.72 L59.04,26.73 L58.55,26.75 L58.04,26.77 L57.52,26.81 L57.01,26.85 L57.01,26.85 L56.46,26.92 L55.94,27.13 L55.49,27.47 L55.15,27.91 L54.93,28.43 L54.85,28.99 L54.92,29.54 L55.13,30.06 L55.47,30.51 L55.91,30.85 L56.43,31.07 L56.99,31.15 L56.99,31.15 L57.46,31.20 L57.91,31.25 L58.34,31.31 L58.75,31.38 L59.14,31.45 L59.52,31.54 L59.88,31.62 L60.22,31.71 L60.54,31.81 L60.85,31.92 L61.13,32.03 L61.40,32.14 L61.66,32.26 L61.89,32.38 L62.11,32.51 L62.31,32.64 L62.50,32.78 L62.68,32.91 L62.84,33.05 L62.99,33.20 L63.12,33.35 L63.25,33.50 L63.37,33.65 L63.49,33.81 L63.60,33.98 L63.70,34.15 L63.80,34.33 L63.90,34.53 L63.99,34.73 L64.12,34.99 L64.12,34.99 L64.74,35.67 L65.51,36.17 L66.38,36.44 L67.29,36.49 L68.18,36.29 L68.99,35.88 L69.67,35.26 L70.17,34.49 L70.44,33.62 L70.49,32.71 L70.29,31.82 L69.88,31.01 Z"/><path d="M52.40,33.00 a3.60,3.60 0 1,0 7.20,0 a3.60,3.60 0 1,0 -7.20,0 Z"/><path d="M63.60,33.00 a3.40,3.40 0 1,0 6.80,0 a3.40,3.40 0 1,0 -6.80,0 Z"/><path d="M19.60,58.00 a3.40,3.40 0 1,0 6.80,0 a3.40,3.40 0 1,0 -6.80,0 Z"/><path d="M57.40,52.00 a8.60,8.60 0 1,0 17.20,0 a8.60,8.60 0 1,0 -17.20,0 Z"/></clipPath></defs>
  <path d="M2 60 Q14 54 26 60 T50 60 T98 60" fill="none" stroke="__OUTLINE__" stroke-width="3" stroke-linecap="round" transform="translate(0,8)"/>
  <g fill="__ACCENT__"><path d="M61.19,46.85 L60.58,46.81 L59.97,46.76 L59.35,46.72 L58.73,46.68 L58.10,46.63 L57.47,46.59 L56.84,46.55 L56.21,46.51 L55.57,46.48 L54.92,46.44 L54.27,46.41 L53.62,46.37 L52.96,46.34 L52.30,46.32 L51.63,46.30 L50.96,46.28 L50.29,46.26 L49.60,46.25 L48.92,46.24 L48.23,46.24 L47.53,46.24 L46.83,46.24 L46.12,46.25 L45.40,46.27 L44.69,46.29 L43.96,46.32 L43.23,46.36 L42.49,46.40 L41.75,46.45 L41.03,46.50 L41.03,46.50 L39.60,46.68 L38.27,47.22 L37.13,48.09 L36.25,49.23 L35.69,50.55 L35.50,51.97 L35.68,53.40 L36.22,54.73 L37.09,55.87 L38.23,56.75 L39.55,57.31 L40.97,57.50 L40.97,57.50 L41.64,57.56 L42.28,57.63 L42.91,57.70 L43.54,57.78 L44.16,57.86 L44.77,57.95 L45.38,58.05 L45.99,58.15 L46.59,58.25 L47.18,58.36 L47.77,58.47 L48.36,58.58 L48.95,58.70 L49.53,58.83 L50.12,58.95 L50.70,59.08 L51.27,59.22 L51.85,59.35 L52.43,59.49 L53.00,59.63 L53.58,59.78 L54.16,59.92 L54.73,60.07 L55.31,60.22 L55.89,60.37 L56.47,60.53 L57.05,60.68 L57.63,60.84 L58.22,60.99 L58.81,61.15 L58.81,61.15 L60.70,61.22 L62.54,60.79 L64.21,59.90 L65.60,58.61 L66.60,57.00 L67.15,55.19 L67.22,53.30 L66.79,51.46 L65.90,49.79 L64.61,48.40 L63.00,47.40 L61.19,46.85 Z"/><path d="M39.34,46.23 L38.65,46.51 L37.96,46.79 L37.29,47.07 L36.63,47.35 L35.98,47.63 L35.34,47.91 L34.72,48.19 L34.10,48.46 L33.49,48.74 L32.90,49.02 L32.31,49.30 L31.73,49.57 L31.15,49.85 L30.59,50.12 L30.02,50.40 L29.47,50.67 L28.92,50.94 L28.37,51.21 L27.82,51.49 L27.28,51.76 L26.74,52.03 L26.20,52.30 L25.66,52.57 L25.12,52.84 L24.58,53.10 L24.03,53.37 L23.48,53.64 L22.93,53.91 L22.38,54.18 L21.81,54.44 L21.81,54.44 L20.93,54.87 L20.19,55.52 L19.64,56.33 L19.32,57.25 L19.26,58.23 L19.44,59.19 L19.87,60.07 L20.52,60.81 L21.33,61.36 L22.25,61.68 L23.23,61.74 L24.19,61.56 L24.19,61.56 L24.82,61.42 L25.44,61.29 L26.06,61.16 L26.68,61.03 L27.29,60.90 L27.89,60.76 L28.49,60.63 L29.09,60.50 L29.68,60.37 L30.28,60.24 L30.87,60.11 L31.46,59.99 L32.05,59.86 L32.64,59.73 L33.23,59.60 L33.82,59.48 L34.41,59.35 L35.01,59.23 L35.61,59.10 L36.22,58.98 L36.83,58.86 L37.44,58.74 L38.06,58.61 L38.69,58.49 L39.33,58.37 L39.97,58.25 L40.62,58.13 L41.29,58.01 L41.96,57.89 L42.66,57.77 L42.66,57.77 L44.10,57.14 L45.32,56.16 L46.25,54.90 L46.82,53.44 L47.00,51.89 L46.77,50.34 L46.14,48.90 L45.16,47.68 L43.90,46.75 L42.44,46.18 L40.89,46.00 L39.34,46.23 Z"/><path d="M22.26,54.32 L21.78,54.50 L21.30,54.69 L20.81,54.87 L20.33,55.05 L19.85,55.23 L19.36,55.41 L18.87,55.59 L18.38,55.77 L17.89,55.96 L17.40,56.14 L16.91,56.32 L16.41,56.50 L15.91,56.68 L15.41,56.86 L14.91,57.04 L14.40,57.23 L13.89,57.41 L13.37,57.59 L12.85,57.77 L12.33,57.95 L11.80,58.13 L11.27,58.31 L10.73,58.50 L10.18,58.68 L9.63,58.86 L9.08,59.04 L8.52,59.22 L7.95,59.40 L7.38,59.59 L6.79,59.77 L6.79,59.77 L6.48,59.86 L6.20,60.04 L5.98,60.27 L5.83,60.56 L5.76,60.88 L5.77,61.21 L5.86,61.52 L6.04,61.80 L6.27,62.02 L6.56,62.17 L6.88,62.24 L7.21,62.23 L7.21,62.23 L7.82,62.21 L8.42,62.20 L9.03,62.18 L9.62,62.16 L10.21,62.14 L10.79,62.12 L11.37,62.10 L11.95,62.09 L12.52,62.07 L13.08,62.05 L13.64,62.03 L14.20,62.01 L14.75,61.99 L15.30,61.97 L15.84,61.96 L16.38,61.94 L16.92,61.92 L17.46,61.90 L17.99,61.88 L18.52,61.86 L19.05,61.84 L19.58,61.83 L20.10,61.81 L20.62,61.79 L21.15,61.77 L21.67,61.75 L22.18,61.73 L22.70,61.71 L23.22,61.70 L23.74,61.68 L23.74,61.68 L24.66,61.36 L25.48,60.82 L26.12,60.08 L26.55,59.20 L26.74,58.24 L26.68,57.26 L26.36,56.34 L25.82,55.52 L25.08,54.88 L24.20,54.45 L23.24,54.26 L22.26,54.32 Z"/><path d="M42.17,47.07 L41.58,47.24 L40.99,47.40 L40.41,47.57 L39.83,47.74 L39.25,47.91 L38.68,48.08 L38.11,48.26 L37.55,48.43 L36.99,48.61 L36.43,48.79 L35.88,48.97 L35.33,49.16 L34.78,49.35 L34.24,49.54 L33.70,49.73 L33.16,49.93 L32.63,50.13 L32.10,50.34 L31.57,50.55 L31.04,50.77 L30.52,50.99 L29.99,51.21 L29.47,51.44 L28.96,51.68 L28.44,51.92 L27.93,52.17 L27.41,52.42 L26.90,52.68 L26.39,52.94 L25.90,53.21 L25.90,53.21 L25.22,53.59 L24.65,54.13 L24.25,54.80 L24.03,55.56 L24.02,56.34 L24.21,57.10 L24.59,57.78 L25.13,58.35 L25.80,58.75 L26.56,58.97 L27.34,58.98 L28.10,58.79 L28.10,58.79 L28.61,58.66 L29.10,58.55 L29.59,58.44 L30.08,58.34 L30.57,58.24 L31.06,58.15 L31.55,58.06 L32.04,57.98 L32.54,57.90 L33.03,57.82 L33.53,57.76 L34.03,57.69 L34.54,57.63 L35.04,57.57 L35.55,57.52 L36.07,57.46 L36.58,57.42 L37.10,57.37 L37.63,57.32 L38.16,57.28 L38.70,57.24 L39.24,57.20 L39.79,57.17 L40.35,57.13 L40.91,57.10 L41.48,57.06 L42.05,57.03 L42.63,57.00 L43.22,56.96 L43.83,56.93 L43.83,56.93 L45.07,56.55 L46.18,55.86 L47.07,54.90 L47.68,53.75 L47.98,52.48 L47.93,51.17 L47.55,49.93 L46.86,48.82 L45.90,47.93 L44.75,47.32 L43.48,47.02 L42.17,47.07 Z"/><path d="M26.43,53.05 L25.96,53.21 L25.51,53.35 L25.05,53.48 L24.59,53.61 L24.12,53.74 L23.66,53.86 L23.19,53.98 L22.71,54.09 L22.24,54.19 L21.75,54.30 L21.27,54.39 L20.78,54.49 L20.28,54.58 L19.78,54.67 L19.27,54.75 L18.76,54.83 L18.25,54.91 L17.73,54.99 L17.20,55.06 L16.67,55.13 L16.13,55.20 L15.58,55.26 L15.03,55.33 L14.48,55.39 L13.91,55.45 L13.34,55.51 L12.77,55.57 L12.19,55.63 L11.60,55.69 L11.00,55.75 L11.00,55.75 L10.68,55.79 L10.37,55.92 L10.12,56.12 L9.92,56.38 L9.79,56.68 L9.75,57.00 L9.79,57.32 L9.92,57.63 L10.12,57.88 L10.38,58.08 L10.68,58.21 L11.00,58.25 L11.00,58.25 L11.60,58.31 L12.19,58.37 L12.77,58.42 L13.35,58.48 L13.93,58.54 L14.50,58.59 L15.07,58.65 L15.63,58.70 L16.19,58.75 L16.74,58.80 L17.29,58.84 L17.84,58.89 L18.39,58.93 L18.93,58.96 L19.48,59.00 L20.02,59.03 L20.56,59.06 L21.10,59.08 L21.63,59.10 L22.17,59.11 L22.71,59.12 L23.25,59.12 L23.79,59.12 L24.33,59.12 L24.87,59.10 L25.41,59.09 L25.95,59.06 L26.49,59.03 L27.04,58.99 L27.57,58.95 L27.57,58.95 L28.31,58.70 L28.97,58.27 L29.49,57.68 L29.84,56.98 L29.99,56.21 L29.95,55.43 L29.70,54.69 L29.27,54.03 L28.68,53.51 L27.98,53.16 L27.21,53.01 L26.43,53.05 Z"/><path d="M64.22,53.57 L64.26,52.65 L64.29,51.75 L64.32,50.85 L64.34,49.97 L64.35,49.10 L64.35,48.24 L64.33,47.40 L64.31,46.56 L64.27,45.74 L64.22,44.93 L64.16,44.12 L64.07,43.33 L63.98,42.54 L63.86,41.77 L63.72,41.00 L63.56,40.24 L63.38,39.49 L63.18,38.75 L62.96,38.02 L62.71,37.29 L62.43,36.58 L62.13,35.89 L61.80,35.20 L61.44,34.53 L61.06,33.87 L60.65,33.23 L60.21,32.60 L59.74,31.99 L59.25,31.39 L58.78,30.87 L58.78,30.87 L58.13,30.22 L57.34,29.77 L56.45,29.53 L55.54,29.53 L54.66,29.77 L53.87,30.22 L53.22,30.87 L52.77,31.66 L52.53,32.55 L52.53,33.46 L52.77,34.34 L53.22,35.13 L53.22,35.13 L53.52,35.62 L53.75,36.04 L53.96,36.47 L54.14,36.89 L54.30,37.32 L54.45,37.74 L54.57,38.18 L54.68,38.62 L54.77,39.06 L54.85,39.52 L54.91,39.99 L54.96,40.47 L55.00,40.96 L55.02,41.47 L55.03,42.00 L55.03,42.55 L55.01,43.11 L54.98,43.70 L54.94,44.30 L54.89,44.93 L54.82,45.57 L54.75,46.24 L54.66,46.93 L54.57,47.65 L54.46,48.38 L54.34,49.14 L54.21,49.93 L54.08,50.73 L53.93,51.57 L53.78,52.43 L53.78,52.43 L53.81,53.80 L54.20,55.12 L54.91,56.29 L55.90,57.24 L57.10,57.89 L58.43,58.22 L59.80,58.19 L61.12,57.80 L62.29,57.09 L63.24,56.10 L63.89,54.90 L64.22,53.57 Z"/><path d="M58.62,30.32 L58.25,30.03 L57.85,29.72 L57.45,29.43 L57.03,29.15 L56.61,28.88 L56.19,28.63 L55.76,28.40 L55.32,28.17 L54.87,27.97 L54.42,27.78 L53.96,27.61 L53.50,27.46 L53.03,27.32 L52.55,27.21 L52.07,27.12 L51.59,27.04 L51.11,26.98 L50.62,26.95 L50.13,26.93 L49.64,26.93 L49.15,26.94 L48.65,26.98 L48.16,27.03 L47.66,27.09 L47.15,27.17 L46.65,27.27 L46.13,27.38 L45.61,27.50 L45.09,27.64 L44.58,27.79 L44.58,27.79 L44.02,27.97 L43.53,28.29 L43.14,28.73 L42.88,29.26 L42.76,29.83 L42.79,30.42 L42.97,30.98 L43.29,31.47 L43.73,31.86 L44.26,32.12 L44.83,32.24 L45.42,32.21 L45.42,32.21 L45.90,32.17 L46.33,32.15 L46.75,32.14 L47.15,32.14 L47.53,32.16 L47.90,32.19 L48.24,32.23 L48.57,32.28 L48.88,32.34 L49.17,32.41 L49.45,32.49 L49.71,32.57 L49.96,32.67 L50.20,32.77 L50.43,32.88 L50.64,33.00 L50.85,33.13 L51.05,33.26 L51.24,33.40 L51.43,33.55 L51.62,33.71 L51.81,33.88 L51.99,34.06 L52.18,34.25 L52.37,34.45 L52.56,34.66 L52.75,34.89 L52.95,35.13 L53.15,35.38 L53.38,35.68 L53.38,35.68 L54.16,36.27 L55.07,36.63 L56.04,36.75 L57.01,36.61 L57.91,36.23 L58.68,35.62 L59.27,34.84 L59.63,33.93 L59.75,32.96 L59.61,31.99 L59.23,31.09 L58.62,30.32 Z"/><path d="M66.47,55.24 L66.82,54.41 L67.16,53.60 L67.49,52.79 L67.82,51.99 L68.14,51.20 L68.45,50.41 L68.75,49.63 L69.05,48.85 L69.33,48.07 L69.59,47.30 L69.84,46.53 L70.08,45.76 L70.30,44.99 L70.51,44.23 L70.69,43.46 L70.86,42.70 L71.00,41.93 L71.12,41.16 L71.21,40.39 L71.28,39.62 L71.31,38.84 L71.32,38.07 L71.29,37.29 L71.23,36.52 L71.13,35.75 L71.00,34.98 L70.83,34.22 L70.62,33.46 L70.37,32.71 L70.11,32.05 L70.11,32.05 L69.76,31.28 L69.22,30.62 L68.53,30.13 L67.73,29.83 L66.89,29.75 L66.05,29.89 L65.28,30.24 L64.62,30.78 L64.13,31.47 L63.83,32.27 L63.75,33.11 L63.89,33.95 L63.89,33.95 L64.00,34.49 L64.05,34.94 L64.08,35.39 L64.09,35.83 L64.07,36.27 L64.03,36.71 L63.98,37.16 L63.90,37.61 L63.80,38.07 L63.69,38.53 L63.55,39.01 L63.39,39.50 L63.22,40.00 L63.02,40.51 L62.81,41.04 L62.57,41.58 L62.32,42.13 L62.05,42.70 L61.75,43.29 L61.45,43.89 L61.12,44.50 L60.78,45.13 L60.42,45.78 L60.04,46.44 L59.66,47.12 L59.25,47.81 L58.84,48.52 L58.41,49.25 L57.97,50.00 L57.53,50.76 L57.53,50.76 L57.10,52.00 L57.01,53.30 L57.26,54.58 L57.83,55.76 L58.68,56.74 L59.76,57.47 L61.00,57.90 L62.30,57.99 L63.58,57.74 L64.76,57.17 L65.74,56.32 L66.47,55.24 Z"/><path d="M69.88,31.01 L69.60,30.69 L69.27,30.33 L68.94,29.98 L68.59,29.66 L68.23,29.35 L67.86,29.05 L67.47,28.78 L67.08,28.52 L66.68,28.28 L66.27,28.06 L65.86,27.86 L65.44,27.68 L65.01,27.51 L64.58,27.37 L64.14,27.24 L63.70,27.13 L63.25,27.03 L62.80,26.95 L62.35,26.88 L61.89,26.82 L61.43,26.78 L60.97,26.75 L60.50,26.73 L60.02,26.72 L59.53,26.72 L59.04,26.73 L58.55,26.75 L58.04,26.77 L57.52,26.81 L57.01,26.85 L57.01,26.85 L56.46,26.92 L55.94,27.13 L55.49,27.47 L55.15,27.91 L54.93,28.43 L54.85,28.99 L54.92,29.54 L55.13,30.06 L55.47,30.51 L55.91,30.85 L56.43,31.07 L56.99,31.15 L56.99,31.15 L57.46,31.20 L57.91,31.25 L58.34,31.31 L58.75,31.38 L59.14,31.45 L59.52,31.54 L59.88,31.62 L60.22,31.71 L60.54,31.81 L60.85,31.92 L61.13,32.03 L61.40,32.14 L61.66,32.26 L61.89,32.38 L62.11,32.51 L62.31,32.64 L62.50,32.78 L62.68,32.91 L62.84,33.05 L62.99,33.20 L63.12,33.35 L63.25,33.50 L63.37,33.65 L63.49,33.81 L63.60,33.98 L63.70,34.15 L63.80,34.33 L63.90,34.53 L63.99,34.73 L64.12,34.99 L64.12,34.99 L64.74,35.67 L65.51,36.17 L66.38,36.44 L67.29,36.49 L68.18,36.29 L68.99,35.88 L69.67,35.26 L70.17,34.49 L70.44,33.62 L70.49,32.71 L70.29,31.82 L69.88,31.01 Z"/><path d="M52.40,33.00 a3.60,3.60 0 1,0 7.20,0 a3.60,3.60 0 1,0 -7.20,0 Z"/><path d="M63.60,33.00 a3.40,3.40 0 1,0 6.80,0 a3.40,3.40 0 1,0 -6.80,0 Z"/><path d="M19.60,58.00 a3.40,3.40 0 1,0 6.80,0 a3.40,3.40 0 1,0 -6.80,0 Z"/><path d="M57.40,52.00 a8.60,8.60 0 1,0 17.20,0 a8.60,8.60 0 1,0 -17.20,0 Z"/></g>
  <g clip-path="url(#b__UID__)"><rect x="0" y="60" width="100" height="40" fill="__GROUND__" opacity="0.24"/></g>
  <path d="M2 60 Q14 54 26 60 T50 60 T98 60" fill="none" stroke="__ACCENT__" stroke-width="3.2" stroke-linecap="round"/>
  <g fill="__ACCENT__" opacity="0.85"><circle cx="7" cy="61" r="1.6"/><circle cx="11" cy="57" r="1.6"/><circle cx="45" cy="30" r="1.6"/><circle cx="57" cy="29" r="1.6"/></g>
</svg>
