<svg viewBox="0 0 100 100" xmlns="http://www.w3.org/2000/svg" fill="__ACCENT__" stroke="none"><path fill="__ACCENT__" fill-rule="evenodd" d="M7 9.6L8.1 9.8L12.5 14.2L15.3 20L23.8 30.4L31.1 46.5L32.9 52L34 53L38.6 53.4L41.6 54.3L45.6 56.7L54.1 60.7L58.4 63.4L60.8 65.5L62.6 66.5L65.4 66.8L70 68.3L73 70.1L76 72.5L80.5 77L84.1 81.5L82.4 80.8L70.6 71.9L68.7 71L68 71.2L72.7 74.4L80 80.5L86.4 83.8L90.4 85L96 85.8L93.4 86.6L88.5 86.9L88.2 86.6L84.9 86.6L84.6 86.3L81.2 85.9L71.8 83.8L61.1 79.9L49.5 73.8L43.5 71.6L38.9 70.7L23.6 70.4L17.6 71.9L13.6 72.2L16.8 67.8L18 65.4L19.7 63.7L23.6 61.9L26.5 61.7L25.8 61.3L21.5 61.6L20 60.7L14.5 60.7L12.1 59.7L9.8 57.5L8.9 55.3L8.9 52L9.8 49.8L12.1 47.6L13.3 47L16 46.3L17.7 46.5L17.1 47.7L16.9 60.1L18 58.4L18.3 57.2L18.6 51.4L19.1 50.6L20.9 50.6L21.7 49.8L22 48.3L22.9 47.7L22.4 47L23.2 47.4L23.2 48L24.7 49.5L24.7 50.2L27.2 52L27.5 54.4L28.1 53.8L28.1 52.6L24.1 48.3L20.8 37.4L17.7 33.1L13.1 23.3L11.9 21.5L10.5 20.8L8 18.2L4.9 13.6L5.5 13L4.9 11.2L5.4 11L6.1 11.5L5.5 10.5L5.7 9.8L8 11.5L7 9.9ZM19.5 46.5L20.6 46.6L21.1 47.1L21.1 48.9L20.3 50L18.3 50.2L18 52.6L17.7 52.6L18 47.4L18.8 46.6L19.4 46.6ZM26.8 55.3L27.2 55.3L26.8 55.9L27.6 56.7L30 57.6L31.4 58.7L30.7 58.8L29.4 58.2L24.9 57.3L26.7 55.5ZM28.4 73.9L38.9 73.8L44.7 75L52.6 78L64.8 84.1L72.2 86.4L69.3 86.6L69 86.3L66.9 86.3L61.1 85L53.8 82.6L45.9 79.2L38.6 77.7L31.9 77.7L31.6 78L28.5 78L28.2 78.3L25.5 78.3L22.4 78.9L16.6 78.9L16.3 78.6L13.9 78.6L11.2 78L5.7 75.6L4.2 74.1L10.5 75.6L17.6 75.6L17.9 75.3L22.1 75L26.1 74.1L28.2 74.1ZM33.5 80.9L38.6 80.8L38.9 81.1L40.7 81.1L45.3 82.3L59 87.8L63.6 89L68.4 89.9L70.9 89.9L71.9 90.4L61.4 90.5L61.1 90.2L59.3 90.2L54.1 89L46.8 85.9L40.4 84.1L38.3 84.1L38 83.8L29.4 84.1L29.1 83.8L22.7 83.5L20.6 82.9L20 82.3L23.3 82.3L23.6 82L25.8 82L26.1 81.7L28.2 81.7L31 81.1L33.4 81.1Z"/></svg>
