<svg xmlns="http://www.w3.org/2000/svg" viewBox="0 0 100 100" role="img" aria-label="Backstroke swimmer"><path d="M2 55 Q14 49 26 55 T50 55 T98 55" fill="none" stroke="__OUTLINE__" stroke-width="3" stroke-linecap="round" transform="translate(0,8)"/><path d="M8.72,49.77 C9.02,50.66 10.52,53.46 11.39,54.14 C12.25,54.82 12.37,53.39 13.89,53.85 C15.41,54.30 18.47,56.10 20.52,56.86 C22.56,57.62 23.76,58.14 26.16,58.39 C28.55,58.65 31.61,58.81 34.90,58.41 C38.18,58.00 41.59,55.91 45.89,55.96 C50.18,56.01 57.60,57.65 60.67,58.71 C63.73,59.76 61.51,60.51 64.28,62.31 C67.05,64.10 74.34,68.05 77.30,69.48 C80.26,70.91 80.45,70.68 82.06,70.88 C83.66,71.07 85.96,70.96 86.94,70.65 C87.91,70.35 87.83,69.54 87.90,69.04 C87.97,68.54 88.35,68.19 87.35,67.67 C86.36,67.15 83.84,67.01 81.95,65.94 C80.06,64.87 76.76,62.88 76.03,61.27 C75.31,59.66 77.36,57.61 77.61,56.26 C77.85,54.90 77.77,54.21 77.50,53.13 C77.22,52.05 76.82,50.90 75.95,49.77 C75.08,48.64 71.05,50.73 72.29,46.35 C73.54,41.98 81.47,28.02 83.42,23.51 C85.36,18.99 84.06,20.67 83.98,19.24 C83.90,17.82 83.42,15.86 82.94,14.96 C82.45,14.05 81.70,13.82 81.06,13.80 C80.43,13.78 79.59,13.76 79.13,14.85 C78.66,15.93 81.25,15.36 78.27,20.30 C75.30,25.24 69.76,40.52 61.29,44.48 C52.83,48.44 34.20,43.75 27.49,44.05 C20.78,44.34 23.24,45.27 21.02,46.24 C18.81,47.21 16.08,49.44 14.18,49.86 C12.27,50.28 10.49,48.78 9.58,48.77 C8.67,48.75 8.42,48.87 8.72,49.77 Z" fill="__ACCENT__"/><path d="M2 55 Q14 49 26 55 T50 55 T98 55" fill="none" stroke="__ACCENT__" stroke-width="3.2" stroke-linecap="round"/></svg>
