<svg xmlns="http://www.w3.org/2000/svg" viewBox="0 0 100 100" role="img" aria-label="Racing dive off the blocks"><path d="M6 60 H40 L33 67 H6 Z" fill="__SECONDARY__"/><rect x="6" y="67" width="19" height="25" rx="2" fill="__SECONDARY__"/><rect x="6" y="60" width="34" height="3" rx="1.5" fill="__ACCENT__"/><path d="M42 86 Q54 80 66 86 T90 86 T138 86" fill="none" stroke="__OUTLINE__" stroke-width="3" stroke-linecap="round" transform="translate(0,8)"/><path d="M30.50,31.53 C23.10,27.58 21.39,28.19 19.26,27.73 C17.14,27.26 17.92,28.36 17.73,28.74 C17.54,29.11 16.48,28.50 18.14,29.97 C19.79,31.44 23.93,34.14 27.64,37.56 C31.35,40.98 37.45,47.72 40.39,50.47 C43.34,53.23 42.99,52.06 45.32,54.08 C47.65,56.09 52.29,60.90 54.37,62.57 C56.44,64.25 56.69,63.87 57.77,64.14 C58.86,64.42 59.13,63.38 60.88,64.21 C62.64,65.05 67.04,67.27 68.30,69.14 C69.56,71.00 67.92,73.62 68.45,75.39 C68.98,77.15 70.14,78.73 71.48,79.74 C72.83,80.74 75.10,81.25 76.52,81.40 C77.93,81.55 78.87,81.12 79.97,80.65 C81.07,80.17 81.98,78.64 83.12,78.55 C84.27,78.46 85.92,79.99 86.85,80.09 C87.79,80.20 88.39,79.69 88.73,79.19 C89.06,78.69 89.50,78.10 88.89,77.08 C88.27,76.06 86.05,74.70 85.04,73.10 C84.04,71.50 83.67,68.77 82.83,67.48 C82.00,66.20 81.13,65.88 80.01,65.37 C78.88,64.85 78.37,66.02 76.07,64.38 C73.77,62.75 68.28,57.70 66.21,55.54 C64.13,53.38 69.59,55.43 63.63,51.43 C57.68,47.42 37.89,35.48 30.50,31.53 Z" fill="__ACCENT__"/><path d="M42 86 Q54 80 66 86 T90 86 T138 86" fill="none" stroke="__ACCENT__" stroke-width="3.2" stroke-linecap="round"/></svg>
