<svg xmlns="http://www.w3.org/2000/svg" viewBox="0 0 100 100" role="img" aria-label="Butterfly swimmer"><g fill="__ACCENT__"><path d="M39.00,40.00 L39.08,40.80 L39.17,41.61 L39.25,42.43 L39.33,43.25 L39.42,44.08 L39.50,44.91 L39.58,45.75 L39.67,46.59 L39.75,47.44 L39.83,48.30 L39.92,49.15 L40.00,50.02 L40.08,50.88 L40.17,51.75 L40.25,52.62 L40.33,53.50 L40.42,54.38 L40.50,55.26 L40.58,56.15 L40.67,57.04 L40.75,57.93 L40.83,58.82 L40.92,59.71 L41.00,60.61 L41.08,61.50 L41.17,62.40 L41.25,63.30 L41.33,64.20 L41.42,65.10 L41.50,66.00 L41.50,66.00 L41.79,68.20 L42.64,70.25 L43.99,72.01 L45.75,73.36 L47.80,74.21 L50.00,74.50 L52.20,74.21 L54.25,73.36 L56.01,72.01 L57.36,70.25 L58.21,68.20 L58.50,66.00 L58.50,66.00 L58.58,65.10 L58.67,64.20 L58.75,63.30 L58.83,62.40 L58.92,61.50 L59.00,60.61 L59.08,59.71 L59.17,58.82 L59.25,57.93 L59.33,57.04 L59.42,56.15 L59.50,55.26 L59.58,54.38 L59.67,53.50 L59.75,52.62 L59.83,51.75 L59.92,50.88 L60.00,50.02 L60.08,49.15 L60.17,48.30 L60.25,47.44 L60.33,46.59 L60.42,45.75 L60.50,44.91 L60.58,44.08 L60.67,43.25 L60.75,42.43 L60.83,41.61 L60.92,40.80 L61.00,40.00 L61.00,40.00 L60.63,37.15 L59.53,34.50 L57.78,32.22 L55.50,30.47 L52.85,29.37 L50.00,29.00 L47.15,29.37 L44.50,30.47 L42.22,32.22 L40.47,34.50 L39.37,37.15 L39.00,40.00 Z"/><path d="M40.00,55.00 L40.67,54.80 L41.33,54.60 L42.00,54.40 L42.67,54.20 L43.33,54.00 L44.00,53.80 L44.67,53.60 L45.33,53.40 L46.00,53.20 L46.67,53.00 L47.33,52.80 L48.00,52.60 L48.67,52.40 L49.33,52.20 L50.00,52.00 L50.67,51.80 L51.33,51.60 L52.00,51.40 L52.67,51.20 L53.33,51.00 L54.00,50.80 L54.67,50.60 L55.33,50.40 L56.00,50.20 L56.67,50.00 L57.33,49.80 L58.00,49.60 L58.67,49.40 L59.33,49.20 L60.00,49.00 L60.00,49.00 L61.55,48.80 L63.00,48.20 L64.24,47.24 L65.20,46.00 L65.80,44.55 L66.00,43.00 L65.80,41.45 L65.20,40.00 L64.24,38.76 L63.00,37.80 L61.55,37.20 L60.00,37.00 L60.00,37.00 L59.33,36.80 L58.67,36.60 L58.00,36.40 L57.33,36.20 L56.67,36.00 L56.00,35.80 L55.33,35.60 L54.67,35.40 L54.00,35.20 L53.33,35.00 L52.67,34.80 L52.00,34.60 L51.33,34.40 L50.67,34.20 L50.00,34.00 L49.33,33.80 L48.67,33.60 L48.00,33.40 L47.33,33.20 L46.67,33.00 L46.00,32.80 L45.33,32.60 L44.67,32.40 L44.00,32.20 L43.33,32.00 L42.67,31.80 L42.00,31.60 L41.33,31.40 L40.67,31.20 L40.00,31.00 L40.00,31.00 L36.89,31.41 L34.00,32.61 L31.51,34.51 L29.61,37.00 L28.41,39.89 L28.00,43.00 L28.41,46.11 L29.61,49.00 L31.51,51.49 L34.00,53.39 L36.89,54.59 L40.00,55.00 Z"/><path d="M42.00,26.00 a8.00,8.00 0 1,0 16.00,0 a8.00,8.00 0 1,0 -16.00,0 Z"/><path d="M45.00,32.00 L44.97,32.13 L44.93,32.27 L44.90,32.40 L44.87,32.53 L44.83,32.67 L44.80,32.80 L44.77,32.93 L44.73,33.07 L44.70,33.20 L44.67,33.33 L44.63,33.47 L44.60,33.60 L44.57,33.73 L44.53,33.87 L44.50,34.00 L44.47,34.13 L44.43,34.27 L44.40,34.40 L44.37,34.53 L44.33,34.67 L44.30,34.80 L44.27,34.93 L44.23,35.07 L44.20,35.20 L44.17,35.33 L44.13,35.47 L44.10,35.60 L44.07,35.73 L44.03,35.87 L44.00,36.00 L44.00,36.00 L44.20,37.55 L44.80,39.00 L45.76,40.24 L47.00,41.20 L48.45,41.80 L50.00,42.00 L51.55,41.80 L53.00,41.20 L54.24,40.24 L55.20,39.00 L55.80,37.55 L56.00,36.00 L56.00,36.00 L55.97,35.87 L55.93,35.73 L55.90,35.60 L55.87,35.47 L55.83,35.33 L55.80,35.20 L55.77,35.07 L55.73,34.93 L55.70,34.80 L55.67,34.67 L55.63,34.53 L55.60,34.40 L55.57,34.27 L55.53,34.13 L55.50,34.00 L55.47,33.87 L55.43,33.73 L55.40,33.60 L55.37,33.47 L55.33,33.33 L55.30,33.20 L55.27,33.07 L55.23,32.93 L55.20,32.80 L55.17,32.67 L55.13,32.53 L55.10,32.40 L55.07,32.27 L55.03,32.13 L55.00,32.00 L55.00,32.00 L54.83,30.71 L54.33,29.50 L53.54,28.46 L52.50,27.67 L51.29,27.17 L50.00,27.00 L48.71,27.17 L47.50,27.67 L46.46,28.46 L45.67,29.50 L45.17,30.71 L45.00,32.00 Z"/><path d="M44.45,38.52 L43.50,38.23 L42.56,37.93 L41.61,37.63 L40.64,37.32 L39.67,37.00 L38.69,36.68 L37.70,36.36 L36.71,36.03 L35.71,35.71 L34.70,35.38 L33.69,35.04 L32.66,34.71 L31.64,34.38 L30.61,34.06 L29.57,33.73 L28.53,33.41 L27.49,33.09 L26.44,32.77 L25.39,32.46 L24.34,32.16 L23.28,31.86 L22.22,31.57 L21.16,31.29 L20.10,31.01 L19.04,30.75 L17.97,30.50 L16.91,30.26 L15.85,30.03 L14.78,29.81 L13.73,29.61 L13.73,29.61 L13.09,29.50 L12.44,29.56 L11.83,29.79 L11.30,30.17 L10.88,30.67 L10.61,31.27 L10.50,31.91 L10.56,32.56 L10.79,33.17 L11.17,33.70 L11.67,34.12 L12.27,34.39 L12.27,34.39 L13.22,34.80 L14.15,35.22 L15.09,35.66 L16.02,36.10 L16.95,36.55 L17.88,37.02 L18.81,37.49 L19.74,37.97 L20.66,38.46 L21.59,38.95 L22.51,39.46 L23.43,39.97 L24.35,40.48 L25.26,41.00 L26.18,41.52 L27.09,42.05 L28.00,42.58 L28.90,43.11 L29.81,43.64 L30.71,44.18 L31.61,44.72 L32.50,45.25 L33.39,45.79 L34.28,46.32 L35.17,46.86 L36.06,47.39 L36.94,47.92 L37.82,48.44 L38.69,48.97 L39.55,49.48 L39.55,49.48 L41.06,49.93 L42.62,49.97 L44.14,49.60 L45.52,48.86 L46.66,47.78 L47.48,46.45 L47.93,44.94 L47.97,43.38 L47.60,41.86 L46.86,40.48 L45.78,39.34 L44.45,38.52 Z"/><ellipse cx="10" cy="31" rx="5.4" ry="2.9" transform="rotate(18 10 31)"/><path d="M60.45,49.48 L61.31,48.97 L62.18,48.44 L63.06,47.92 L63.94,47.39 L64.83,46.86 L65.72,46.32 L66.61,45.79 L67.50,45.25 L68.39,44.72 L69.29,44.18 L70.19,43.64 L71.10,43.11 L72.00,42.58 L72.91,42.05 L73.82,41.52 L74.74,41.00 L75.65,40.48 L76.57,39.97 L77.49,39.46 L78.41,38.95 L79.34,38.46 L80.26,37.97 L81.19,37.49 L82.12,37.02 L83.05,36.55 L83.98,36.10 L84.91,35.66 L85.85,35.22 L86.78,34.80 L87.73,34.39 L87.73,34.39 L88.33,34.12 L88.83,33.70 L89.21,33.17 L89.44,32.56 L89.50,31.91 L89.39,31.27 L89.12,30.67 L88.70,30.17 L88.17,29.79 L87.56,29.56 L86.91,29.50 L86.27,29.61 L86.27,29.61 L85.22,29.81 L84.15,30.03 L83.09,30.26 L82.03,30.50 L80.96,30.75 L79.90,31.01 L78.84,31.29 L77.78,31.57 L76.72,31.86 L75.66,32.16 L74.61,32.46 L73.56,32.77 L72.51,33.09 L71.47,33.41 L70.43,33.73 L69.39,34.06 L68.36,34.38 L67.34,34.71 L66.31,35.04 L65.30,35.38 L64.29,35.71 L63.29,36.03 L62.30,36.36 L61.31,36.68 L60.33,37.00 L59.36,37.32 L58.39,37.63 L57.44,37.93 L56.50,38.23 L55.55,38.52 L55.55,38.52 L54.22,39.34 L53.14,40.48 L52.40,41.86 L52.03,43.38 L52.07,44.94 L52.52,46.45 L53.34,47.78 L54.48,48.86 L55.86,49.60 L57.38,49.97 L58.94,49.93 L60.45,49.48 Z"/><ellipse cx="90" cy="31" rx="5.4" ry="2.9" transform="rotate(-18 90 31)"/></g><g fill="__GROUND__"><rect x="44" y="24.5" width="5" height="4.2" rx="2.1"/><rect x="51" y="24.5" width="5" height="4.2" rx="2.1"/></g><path d="M4 64 Q18 58 32 64 T60 64 T88 64 T98 64" fill="none" stroke="__SECONDARY__" stroke-width="4" stroke-linecap="round"/><path d="M8 58 Q22 52 36 58 T64 58 T92 58" fill="none" stroke="__ACCENT__" stroke-width="4.5" stroke-linecap="round"/><g fill="__ACCENT__"><circle cx="20" cy="58" r="2"/><circle cx="80" cy="58" r="2"/><circle cx="14" cy="68" r="1.6"/><circle cx="86" cy="68" r="1.6"/></g></svg>
