<svg xmlns="http://www.w3.org/2000/svg" viewBox="0 0 100 100" role="img" aria-label="Swim cap">
  <!-- head in profile, facing right -->
  <path d="M22 54 C22 36 36 23 53 23 C67 23 78 33 80 46 L84 53 L79 57 C79 66 72 77 56 79 C38 81 22 71 22 54 Z" fill="__SURFACE__"/>
  <!-- silicone cap over the crown with a wavy hem -->
  <path d="M20 55 C20 35 35 20 53 20 C69 20 81 31 83 47 C72 50 63 48 52 51 C40 54 29 55 20 55 Z" fill="__ACCENT__"/>
  <!-- cap sheen -->
  <ellipse cx="40" cy="33" rx="12" ry="6" fill="__ON_GROUND__" opacity="0.26" transform="rotate(-18 40 33)"/>
  <!-- goggle strap over the cap -->
  <path d="M58 50 C46 47 32 47 22 51" fill="none" stroke="__SECONDARY__" stroke-width="3.4" stroke-linecap="round"/>
  <!-- goggle lens over the eye -->
  <ellipse cx="66" cy="53" rx="7.5" ry="6.5" fill="__GROUND__"/>
  <ellipse cx="66" cy="53" rx="7.5" ry="6.5" fill="none" stroke="__ACCENT__" stroke-width="2.6"/>
</svg>
